<?xml version="1.0" standalone="no"?><!DOCTYPE svg PUBLIC "-//W3C//DTD SVG 1.1//EN" "http://www.w3.org/Graphics/SVG/1.1/DTD/svg11.dtd"><svg t="1689090874210" class="icon" viewBox="0 0 1024 1024" version="1.1" xmlns="http://www.w3.org/2000/svg" p-id="9260" xmlns:xlink="http://www.w3.org/1999/xlink" width="64" height="64"><path d="M149.333333 938.666667a63.658667 63.658667 0 0 1-24.917333-5.034667 64 64 0 0 1-10.88-5.888 64 64 0 0 1-9.472-7.808 65.024 65.024 0 0 1-7.808-9.472 64 64 0 0 1-5.888-10.88A63.488 63.488 0 0 1 85.333333 874.666667v-155.733334h59.733334v160h160V938.666667H149.333333z m569.6 0v-59.733334h160v-160H938.666667v155.733334a63.701333 63.701333 0 0 1-5.034667 24.917333 64.597333 64.597333 0 0 1-5.888 10.88 64.682667 64.682667 0 0 1-7.808 9.472 64.256 64.256 0 0 1-9.472 7.808 64 64 0 0 1-10.88 5.888A63.573333 63.573333 0 0 1 874.666667 938.666667z m-409.6-160a63.616 63.616 0 0 1-24.917333-5.034667 64 64 0 0 1-20.352-13.696 63.701333 63.701333 0 0 1-13.696-20.352 63.488 63.488 0 0 1-5.034667-24.917333v-405.333334a63.488 63.488 0 0 1 5.034667-24.917333 63.744 63.744 0 0 1 13.696-20.352 64 64 0 0 1 20.352-13.696 63.658667 63.658667 0 0 1 24.917333-5.034667h405.333334a63.573333 63.573333 0 0 1 24.917333 5.034667 63.701333 63.701333 0 0 1 20.352 13.696 63.616 63.616 0 0 1 13.738667 20.352 63.658667 63.658667 0 0 1 5.034666 24.917333v405.333334a63.658667 63.658667 0 0 1-5.034666 24.917333 63.573333 63.573333 0 0 1-13.738667 20.352 63.701333 63.701333 0 0 1-20.352 13.696 63.573333 63.573333 0 0 1-24.917333 5.034667z m-4.266666-59.733334h413.866666v-413.866666h-413.866666zM938.666667 305.066667h-59.733334V145.066667h-160V85.333333h155.733334a63.573333 63.573333 0 0 1 24.917333 5.034667 64 64 0 0 1 10.88 5.888 64 64 0 0 1 9.472 7.808 64.725333 64.725333 0 0 1 7.808 9.472 64.682667 64.682667 0 0 1 5.888 10.88A63.658667 63.658667 0 0 1 938.666667 149.333333v155.733334z m-793.6 0H85.333333V149.333333a63.488 63.488 0 0 1 5.034667-24.917333 64 64 0 0 1 5.888-10.88 64.938667 64.938667 0 0 1 7.808-9.472 64.256 64.256 0 0 1 9.472-7.808 64 64 0 0 1 10.88-5.888A63.658667 63.658667 0 0 1 149.333333 85.333333h155.733334v59.733334H145.066667v160z" p-id="9261"></path></svg>