<?xml version="1.0" standalone="no"?><!DOCTYPE svg PUBLIC "-//W3C//DTD SVG 1.1//EN" "http://www.w3.org/Graphics/SVG/1.1/DTD/svg11.dtd"><svg t="1689261055976" class="icon" viewBox="0 0 1024 1024" version="1.1" xmlns="http://www.w3.org/2000/svg" p-id="17785" xmlns:xlink="http://www.w3.org/1999/xlink" width="64" height="64"><path d="M847.74 525.09H501.48V174.16c0-59.01-48-107.04-107.01-107.04h-218c-59.01 0-107.03 48.03-107.03 107.04v670.9c0 1.25 0.33 2.41 0.37 3.65v1.4c0 59.01 48.02 107.01 107.03 107.01h670.9c59.01 0 107.02-48 107.02-107.01V632.1c0-59.01-48.02-107.01-107.02-107.01z m31.4 325.02c0 17.31-14.08 31.39-31.4 31.39h-88.31v-80.94c0-20.88-16.93-37.81-37.81-37.81s-37.81 16.93-37.81 37.81v80.94H557.03V747.92c0-20.88-16.93-37.81-37.81-37.81-20.88 0-37.81 16.93-37.81 37.81V881.5h-86.94v-5.05h-39.83v-75.9c0-20.88-16.93-37.81-37.81-37.81s-37.81 16.93-37.81 37.81v75.9H176.46c-16.67 0-30.03-13.15-31.03-29.56v-98.97h83.55c20.88 0 37.81-16.93 37.81-37.81 0-20.88-16.93-37.81-37.81-37.81h-83.55v-40.2h-0.37v-86.57h136.55c20.88 0 37.81-16.93 37.81-37.81 0-20.88-16.93-37.81-37.81-37.81H145.06V343.13h83.92c20.88 0 37.81-16.93 37.81-37.81 0-20.88-16.93-37.81-37.81-37.81h-83.92v-93.34c0-17.33 14.08-31.41 31.4-31.41h218c17.31 0 31.39 14.08 31.39 31.41v397.92h0.05v28.63h421.83c17.32 0 31.4 14.08 31.4 31.39v218z" fill="#666666" p-id="17786"></path></svg>