<?xml version="1.0" standalone="no"?><!DOCTYPE svg PUBLIC "-//W3C//DTD SVG 1.1//EN" "http://www.w3.org/Graphics/SVG/1.1/DTD/svg11.dtd"><svg t="1718292494683" class="icon" viewBox="0 0 1024 1024" version="1.1" xmlns="http://www.w3.org/2000/svg" p-id="34167" width="64" height="64" xmlns:xlink="http://www.w3.org/1999/xlink"><path d="M536.10496 112.40448a34.07872 34.07872 0 0 0-48.2304 0l-96.57344 96.53248 36.22912 36.1984 58.83904-58.79808V307.2h51.2V186.2656l58.85952 58.90048 36.27008-36.22912-96.59392-96.53248zM487.89504 911.59552a34.05824 34.05824 0 0 0 48.2304 0l96.57344-96.54272-36.22912-36.1984-58.83904 58.79808V716.8h-51.2v120.94464l-58.85952-58.90048-36.27008 36.21888 96.59392 96.53248zM112.40448 487.89504a34.0992 34.0992 0 0 0 0 48.24064l96.53248 96.5632 36.1984-36.23936-58.79808-58.81856H307.2v-51.2H186.2656l58.90048-58.86976-36.23936-36.27008-96.52224 96.59392zM911.59552 536.10496a34.07872 34.07872 0 0 0 0-48.2304l-96.53248-96.5632-36.1984 36.23936 58.79808 58.8288H716.8v51.2h120.9344l-58.90048 58.88 36.23936 36.25984 96.52224-96.6144zM597.32992 358.4H426.67008C389.13024 358.4 358.4 389.09952 358.4 426.67008v170.67008C358.4 634.85952 389.13024 665.6 426.67008 665.6h170.65984C634.86976 665.6 665.6 634.85952 665.6 597.34016V426.67008C665.6 389.09952 634.86976 358.4 597.32992 358.4z m0 238.94016H426.67008V426.67008h170.65984v170.67008z" p-id="34168"></path></svg>