<?xml version="1.0" standalone="no"?><!DOCTYPE svg PUBLIC "-//W3C//DTD SVG 1.1//EN" "http://www.w3.org/Graphics/SVG/1.1/DTD/svg11.dtd"><svg t="1688918061450" class="icon" viewBox="0 0 1024 1024" version="1.1" xmlns="http://www.w3.org/2000/svg" p-id="4549" xmlns:xlink="http://www.w3.org/1999/xlink" width="64" height="64"><path d="M538.3 285.4c40.3 24.4 75 58.8 105.5 104.5l-31.8 12.7c-18.7 7.5-30.6 25.3-30.4 45.4s12.5 37.7 31.4 44.8l199.8 74.9c5.5 2.1 11.2 3.1 17 3.1 7.5 0 15-1.7 21.8-5.2 12-6.1 21-17 24.7-29.9l49.9-174.8c5.1-17.9-0.3-36.7-14.1-49.2-13.8-12.5-33.1-15.9-50.4-9l-39 15.6c-71.5-72-144.5-123.9-217.1-154.6-63.9-27-127.6-37.8-189.5-31.9-106.7 10-170.3 66.1-172.9 68.5l-91.6 82.2 120.1-27.1C376.5 231.5 466.2 241.7 538.3 285.4zM583.3 223.7c68.8 29.6 138.9 81.5 208.3 154.3l14.9 15.7 49.4-19.8-36.5 127.9-146.2-54.8 63.6-25.4-18-31.9c-40.4-71.5-88.6-123.5-147.3-159.1-20.9-12.6-42.8-23-65.8-31C531.3 204.4 557.2 212.5 583.3 223.7z" p-id="4550"></path><path d="M387.3 359.8c-20.6-6.2-42.4 1.6-54.3 19.5l-273 409.5c-9.9 14.9-10.8 33.9-2.4 49.7S82.4 864 100.3 864l273 0c26.7 0 48.4-21.7 48.4-48.4L421.7 406.1C421.7 384.7 407.9 366 387.3 359.8zM357.7 800 129.5 800l228.2-342.3L357.7 800z" p-id="4551"></path><path d="M938.4 775.4l-409.5-273c-14.9-9.9-33.9-10.8-49.7-2.4-15.8 8.4-25.6 24.8-25.6 42.7l0 273c0 26.7 21.7 48.4 48.4 48.4l409.5 0c21.5 0 40.1-13.8 46.3-34.4C964.1 809.1 956.3 787.3 938.4 775.4zM517.7 800 517.7 571.8 860 800 517.7 800z" p-id="4552"></path></svg>