<?xml version="1.0" standalone="no"?><!DOCTYPE svg PUBLIC "-//W3C//DTD SVG 1.1//EN" "http://www.w3.org/Graphics/SVG/1.1/DTD/svg11.dtd"><svg t="1699975109743" class="icon" viewBox="0 0 1024 1024" version="1.1" xmlns="http://www.w3.org/2000/svg" p-id="4163" xmlns:xlink="http://www.w3.org/1999/xlink" width="16" height="16"><path d="M512 256c-168 0-329.6 106.4-384 256 54.4 149.6 216 256 384 256 167.2 0 330.4-106.4 384.8-256-55.2-149.6-217.6-256-384.8-256z m0 416c-88 0-160-72-160-160s72-160 160-160 160 72 160 160-72 160-160 160z m96-160c0 52.8-43.2 96-96 96s-96-43.2-96-96 43.2-96 96-96 96 43.2 96 96z" p-id="4164"></path></svg>