<?xml version="1.0" standalone="no"?><!DOCTYPE svg PUBLIC "-//W3C//DTD SVG 1.1//EN" "http://www.w3.org/Graphics/SVG/1.1/DTD/svg11.dtd"><svg t="1696004803689" class="icon" viewBox="0 0 1024 1024" version="1.1" xmlns="http://www.w3.org/2000/svg" p-id="5961" xmlns:xlink="http://www.w3.org/1999/xlink" width="16" height="16"><path d="M572.16 512l183.466667-183.04a42.666667 42.666667 0 1 0-60.586667-60.586667L512 451.84l-183.04-183.466667a42.666667 42.666667 0 0 0-60.586667 60.586667l183.466667 183.04-183.466667 183.04a42.666667 42.666667 0 0 0 0 60.586667 42.666667 42.666667 0 0 0 60.586667 0l183.04-183.466667 183.04 183.466667a42.666667 42.666667 0 0 0 60.586667 0 42.666667 42.666667 0 0 0 0-60.586667z" p-id="5962" fill="#da4532"></path></svg>