<?xml version="1.0" standalone="no"?><!DOCTYPE svg PUBLIC "-//W3C//DTD SVG 1.1//EN" "http://www.w3.org/Graphics/SVG/1.1/DTD/svg11.dtd"><svg t="1704030595273" class="icon" viewBox="0 0 1024 1024" version="1.1" xmlns="http://www.w3.org/2000/svg" p-id="5493" xmlns:xlink="http://www.w3.org/1999/xlink" width="48" height="48"><path d="M533.015273 788.503273l-48.151273 3.165091 3.165091-48.151273L857.320727 374.225455l44.962909 45.009454-369.268363 369.268364zM698.181818 856.040727A51.642182 51.642182 0 0 1 646.586182 907.636364H167.936A51.642182 51.642182 0 0 1 116.363636 856.040727V167.959273A51.665455 51.665455 0 0 1 167.936 116.363636h478.650182A51.665455 51.665455 0 0 1 698.181818 167.959273v266.658909l-278.109091 278.109091-8.541091 130.187636a21.015273 21.015273 0 0 0 20.759273 22.132364c0.418909 0 0.861091 0 1.326546-0.046546l130.187636-8.564363L698.181818 722.082909v133.957818z m187.857455-551.796363a41.495273 41.495273 0 0 0-29.323637-12.334546c-9.821091 0-19.456 3.607273-26.740363 10.914909L768 364.8V167.959273A121.530182 121.530182 0 0 0 646.586182 46.545455H167.936A121.530182 121.530182 0 0 0 46.545455 167.959273v688.081454A121.530182 121.530182 0 0 0 167.936 977.454545h478.650182A121.530182 121.530182 0 0 0 768 856.040727v-199.936h-3.816727l209.547636-209.547636c15.080727-15.104 14.452364-40.192-1.442909-56.087273l-86.248727-86.225454zM221.090909 302.545455h372.363636a34.909091 34.909091 0 1 0 0-69.818182h-372.363636a34.909091 34.909091 0 1 0 0 69.818182m0 162.90909h232.727273a34.909091 34.909091 0 1 0 0-69.818181h-232.727273a34.909091 34.909091 0 1 0 0 69.818181m139.636364 93.09091h-139.636364a34.909091 34.909091 0 1 0 0 69.818181h139.636364a34.909091 34.909091 0 1 0 0-69.818181" fill="#707070" p-id="5494"></path></svg>