<?xml version="1.0" standalone="no"?><!DOCTYPE svg PUBLIC "-//W3C//DTD SVG 1.1//EN" "http://www.w3.org/Graphics/SVG/1.1/DTD/svg11.dtd"><svg t="1685371473670" class="icon" viewBox="0 0 1024 1024" version="1.1" xmlns="http://www.w3.org/2000/svg" p-id="5015" xmlns:xlink="http://www.w3.org/1999/xlink" width="128" height="128"><path d="M352.256 684.544c-7.68 0-14.848-3.072-20.48-8.704-58.368-58.368-82.432-141.312-64.512-222.208 3.584-15.872 19.456-25.6 34.816-22.016 15.872 3.584 25.6 18.944 22.016 34.816-13.824 60.928 4.608 123.904 48.64 167.936 11.264 11.264 11.264 30.208 0 41.472C367.104 681.472 359.936 684.544 352.256 684.544z" p-id="5016"></path><path d="M494.592 229.376c74.24 0 143.872 28.672 196.096 81.408 52.224 52.224 81.408 121.856 81.408 196.096 0 74.24-28.672 143.872-81.408 196.096-52.224 52.224-121.856 81.408-196.096 81.408-74.24 0-143.872-28.672-196.096-81.408-108.032-108.032-108.032-284.16 0-392.192C351.232 258.048 420.864 229.376 494.592 229.376M494.592 171.008c-86.016 0-172.032 32.768-237.568 98.304-131.072 131.072-131.072 343.552 0 474.624 65.536 65.536 151.552 98.304 237.568 98.304 86.016 0 172.032-32.768 237.568-98.304 131.072-131.072 131.072-343.552 0-475.136C666.624 203.776 580.608 171.008 494.592 171.008L494.592 171.008z" p-id="5017"></path><path d="M903.68 926.72c-7.68 0-14.848-3.072-20.48-8.704L706.56 741.888c-11.264-11.264-11.264-30.208 0-41.472 11.264-11.264 30.208-11.264 41.472 0l176.128 176.128c11.264 11.264 11.264 30.208 0 41.472C918.528 923.648 910.848 926.72 903.68 926.72z" p-id="5018"></path></svg>