<?xml version="1.0" encoding="utf-8"?>
<!-- Generator: Adobe Illustrator 26.0.0, SVG Export Plug-In . SVG Version: 6.00 Build 0)  -->
<svg version="1.1" id="图层_1" xmlns="http://www.w3.org/2000/svg" xmlns:xlink="http://www.w3.org/1999/xlink" x="0px" y="0px"
	 viewBox="0 0 128 128" style="enable-background:new 0 0 128 128;" xml:space="preserve">
<style type="text/css">
	.st0{fill:#EFB336;}
	.st1{fill:#FFFFFF;}
	.st2{fill:none;}
	.st3{fill:#F15A24;}
</style>
<path class="st0" d="M30,47.4h75.2v-6.7c0-3.6-3-6.7-6.7-6.7h-40v-6c0-3.6-3-6.7-6.7-6.7H18.5c-3.6,0-6.7,3-6.7,6.7v79.5l11.8-53.4
	C23.3,50.2,26.4,47.4,30,47.4z"/>
<rect x="27.2" y="19.4" class="st1" width="58" height="79.3"/>
<g>
	<path class="st2" d="M65.3,33.1V20.3H30.8v37.2h42.9c2.3,0,4.2,1.9,4.2,4.2v15c0,2.3-1.9,4.2-4.2,4.2H30.8v6.7h54V39.8H72
		C68.3,39.8,65.3,36.8,65.3,33.1z M37.4,49.5l5-8.7l5,8.7H37.4z M47.4,37.3c-1.5-0.6-2.6-2-2.8-3.6c-0.2-1.6,0.5-3.2,1.7-4.2
		c1.3-1,3-1.2,4.5-0.6c1.5,0.6,2.6,2,2.8,3.6c0.2,1.6-0.5,3.2-1.7,4.2C50.6,37.6,48.9,37.9,47.4,37.3z M60.6,49.5h-8.4v-8.4h8.4
		V49.5z"/>
	<path class="st2" d="M42.2,65.5c0.2-0.5,0.5-0.8,1-1.1c0.4-0.2,0.9-0.4,1.5-0.4c0.5,0,0.9,0.1,1.2,0.3c0.4,0.2,0.7,0.5,0.9,0.9
		c0.3,0.4,0.4,0.9,0.6,1.4h3.3c-0.2-1.2-0.6-2.3-1.1-3.1s-1.2-1.5-2.1-2c-0.8-0.5-1.8-0.7-2.8-0.7c-1.3,0-2.4,0.2-3.3,0.7
		c-0.9,0.5-1.6,1.2-2.1,2.1c-0.5,0.9-0.7,2.1-0.7,3.4v4.6c0,1.3,0.2,2.5,0.7,3.4c0.5,0.9,1.2,1.7,2.1,2.1c0.9,0.5,2,0.7,3.3,0.7
		c1.1,0,2-0.2,2.8-0.7c0.8-0.5,1.5-1.1,2.1-2c0.5-0.9,0.9-1.9,1.1-3.1h-3.3c-0.1,0.6-0.3,1-0.6,1.4c-0.3,0.4-0.6,0.7-0.9,0.9
		c-0.4,0.2-0.8,0.3-1.3,0.3c-0.6,0-1.1-0.1-1.5-0.4c-0.4-0.2-0.7-0.6-1-1.1c-0.2-0.5-0.3-1-0.3-1.7v-4.6
		C41.8,66.5,41.9,65.9,42.2,65.5z"/>
	<rect x="53.1" y="61" class="st2" width="3.3" height="16.8"/>
	<polygon class="st2" points="72,20.3 72,33.1 84.8,33.1 84.8,32.9 72.1,20.3 	"/>
	<path class="st3" d="M53.6,32.5c-0.2-1.6-1.3-3-2.8-3.6c-1.5-0.6-3.2-0.4-4.5,0.6c-1.3,1-2,2.6-1.7,4.2c0.2,1.6,1.3,3,2.8,3.6
		c1.5,0.6,3.2,0.4,4.5-0.6C53.2,35.7,53.8,34.1,53.6,32.5z"/>
	<polygon class="st3" points="37.4,49.5 47.4,49.5 42.4,40.8 	"/>
	<rect x="52.2" y="41.1" class="st3" width="8.4" height="8.4"/>
	<path class="st3" d="M91.5,33.3c0.1-1.8-0.5-3.7-2-5.1L77.6,16.3c-1.2-1.7-3.2-2.7-5.4-2.7H30.8c-2.8,0-5.2,1.7-6.2,4.1
		c-0.4,0.8-0.5,1.7-0.5,2.6v37.2h-2.6c-2.3,0-4.2,1.9-4.2,4.2v15c0,2.3,1.9,4.2,4.2,4.2h2.6v7.4h0c0.3,3.4,3.2,6,6.7,6h54v0
		c3.7,0,6.7-3,6.7-6.7v-54C91.5,33.6,91.5,33.5,91.5,33.3z M84.8,87.7h-54V81h42.9c2.3,0,4.2-1.9,4.2-4.2v-15c0-2.3-1.9-4.2-4.2-4.2
		H30.8V20.3h34.5v12.8c0,3.7,3,6.7,6.7,6.7h12.8V87.7z M42.2,73.4c0.2,0.5,0.5,0.8,1,1.1c0.4,0.2,0.9,0.4,1.5,0.4
		c0.5,0,0.9-0.1,1.3-0.3c0.4-0.2,0.7-0.5,0.9-0.9c0.3-0.4,0.4-0.9,0.6-1.4h3.3c-0.2,1.2-0.6,2.3-1.1,3.1c-0.5,0.9-1.2,1.5-2.1,2
		c-0.8,0.5-1.8,0.7-2.8,0.7c-1.3,0-2.4-0.2-3.3-0.7c-0.9-0.5-1.6-1.2-2.1-2.1c-0.5-0.9-0.7-2.1-0.7-3.4v-4.6c0-1.3,0.2-2.5,0.7-3.4
		c0.5-0.9,1.2-1.7,2.1-2.1c0.9-0.5,2-0.7,3.3-0.7c1.1,0,2,0.2,2.8,0.7c0.8,0.5,1.5,1.1,2.1,2s0.9,1.9,1.1,3.1h-3.3
		c-0.1-0.6-0.3-1-0.6-1.4c-0.3-0.4-0.6-0.7-0.9-0.9c-0.4-0.2-0.8-0.3-1.2-0.3c-0.6,0-1.1,0.1-1.5,0.4c-0.4,0.2-0.7,0.6-1,1.1
		c-0.2,0.5-0.3,1-0.3,1.7v4.6C41.8,72.4,41.9,73,42.2,73.4z M53.1,77.9V61h3.3v16.8H53.1z M84.8,33.1H72V20.3h0.1l12.7,12.7V33.1z"
		/>
</g>
<path class="st0" d="M111.9,52.3H35.2c-3.6,0-6.7,3-6.7,6.7l-11.8,55.2h83.7c3.6,0,6.7-3,6.7-6.7L118.6,59
	C118.6,55.3,115.6,52.3,111.9,52.3z"/>
</svg>
