<svg id="图层_1" data-name="图层 1" xmlns="http://www.w3.org/2000/svg" xmlns:xlink="http://www.w3.org/1999/xlink" viewBox="0 0 563.99 614.11"><defs><style>.cls-1{fill:none;}.cls-2{clip-path:url(#clip-path);}.cls-3{fill:#f15a24;}.cls-4{fill:#fff;}</style><clipPath id="clip-path" transform="translate(-15 -114.66)"><rect class="cls-1" x="15" y="113.89" width="564" height="615.84"/></clipPath></defs><g class="cls-2"><path class="cls-3" d="M578.88,264.77A50.89,50.89,0,0,0,564,225.69l-90.37-90.37a51,51,0,0,0-41-20.66H118.05A51.33,51.33,0,0,0,66.9,166V448.27H47a32,32,0,0,0-32,32V594.51a32,32,0,0,0,32,32H66.9v56.38h.37a51.05,51.05,0,0,0,50.78,45.83H528v0a51,51,0,0,0,51-51V268.06c0-1.11,0-2.2-.11-3.29ZM528,677.69h-410V626.51H443.26a32,32,0,0,0,32-32V480.27a32,32,0,0,0-32-32H117.94V165.69H380v97.16a51,51,0,0,0,51,51h97Zm0-414.84H431V165.69h.87L528,261.79Zm0,0" transform="translate(-15 -114.66)"/></g><path class="cls-3" d="M243.88,294.57a34.52,34.52,0,1,0-21-27.39,34.53,34.53,0,0,0,21,27.39Zm0,0" transform="translate(-15 -114.66)"/><path class="cls-3" d="M167.88,387.7H244.1l-38.11-66ZM280.22,324h63.71v63.71H280.22Zm0,0" transform="translate(-15 -114.66)"/><path class="cls-4" d="M198,598.56A37.22,37.22,0,0,1,182.2,582.3q-5.44-10.68-5.45-25.79V521.44q0-15.12,5.45-25.8A37.47,37.47,0,0,1,198,479.34q10.36-5.62,25-5.62a44.16,44.16,0,0,1,21.54,5.18A42.46,42.46,0,0,1,260.2,494q6.19,9.9,8.57,23.87h-25A32.3,32.3,0,0,0,239.46,507a20.85,20.85,0,0,0-7.12-6.86A18.61,18.61,0,0,0,223,497.8a22.42,22.42,0,0,0-11.51,2.77,17.86,17.86,0,0,0-7.25,8.08,29.83,29.83,0,0,0-2.51,12.79v35.07a29.47,29.47,0,0,0,2.51,12.74,17.86,17.86,0,0,0,7.25,8A22.42,22.42,0,0,0,223,580.06a19.2,19.2,0,0,0,9.49-2.33,19.84,19.84,0,0,0,7.12-6.81,31.5,31.5,0,0,0,4.22-10.9h25q-2.46,14-8.65,23.87A42.61,42.61,0,0,1,244.47,599,43.89,43.89,0,0,1,223,604.14Q208.39,604.14,198,598.56Z" transform="translate(-15 -114.66)"/><path class="cls-4" d="M312.19,602.83h-25V475h25Z" transform="translate(-15 -114.66)"/></svg>