<?xml version="1.0" encoding="utf-8"?>
<!-- Generator: Adobe Illustrator 26.0.0, SVG Export Plug-In . SVG Version: 6.00 Build 0)  -->
<svg version="1.1" id="图层_1" xmlns="http://www.w3.org/2000/svg" xmlns:xlink="http://www.w3.org/1999/xlink" x="0px" y="0px"
	 viewBox="0 0 128 128" style="enable-background:new 0 0 128 128;" xml:space="preserve">
<style type="text/css">
	.st0{fill:#EFB336;}
	.st1{fill:#FFFFFF;stroke:#FFFFFF;stroke-width:4;stroke-miterlimit:10;}
	.st2{fill:#20A139;stroke:#009DBF;stroke-miterlimit:10;}
</style>
<path class="st0" d="M104.7,104.7c0,3.6-3,6.7-6.7,6.7H14.2l11.8-55.2c0-3.6,3-6.7,6.7-6.7h76.8c3.6,0,6.7,3,6.7,6.7
	C116.2,56.1,104.7,104.7,104.7,104.7z M27.6,44.6h75.2v-6.7c0-3.6-3-6.7-6.7-6.7h-40v-6.1c0-3.6-3-6.7-6.7-6.7H16.1
	c-3.6,0-6.7,3-6.7,6.7v79.5l11.8-53.4C20.9,47.3,24,44.6,27.6,44.6z"/>
<g>
	<g>
		<path class="st1" d="M46.6,57.4h7.6v61h-7.6V57.4z M50.2,57.4h9.6V65h-9.6V57.4z M50.2,110.7h9.6v7.6h-9.6V110.7z"/>
		<path class="st1" d="M64.5,75.7H73v32.4h-8.6V75.7z M83.2,88.5c0-1.6-0.5-2.8-1.4-3.7s-2.2-1.3-3.9-1.3c-1.6,0-2.8,0.4-3.7,1.3
			C73.4,85.7,73,87,73,88.6l-0.7-7.2c1-2,2.2-3.6,3.5-4.6c1.4-1,3.1-1.5,5.1-1.5c3.4,0,6.1,1.2,7.9,3.5s2.8,5.6,2.8,9.8v19.7h-8.6
			V88.5z"/>
		<path class="st1" d="M96.1,57.4h9.6V65h-9.6V57.4z M96.1,110.7h9.6v7.6h-9.6V110.7z M101.7,57.4h7.6v61h-7.6V57.4z"/>
	</g>
</g>
<g>
	<g>
		<path class="st2" d="M46.7,57.4h7.6v61h-7.6V57.4z M50.3,57.4h9.6V65h-9.6V57.4z M50.3,110.7h9.6v7.6h-9.6V110.7z"/>
		<path class="st2" d="M64.6,75.7h8.6v32.4h-8.6V75.7z M83.3,88.5c0-1.6-0.5-2.8-1.4-3.7s-2.2-1.3-3.9-1.3c-1.6,0-2.8,0.4-3.7,1.3
			c-0.9,0.9-1.3,2.1-1.3,3.7l-0.7-7.2c1-2,2.2-3.6,3.5-4.6c1.4-1,3.1-1.5,5.1-1.5c3.4,0,6.1,1.2,7.9,3.5s2.8,5.6,2.8,9.8v19.7h-8.6
			V88.5z"/>
		<path class="st2" d="M96.3,57.4h9.6V65h-9.6V57.4z M96.3,110.7h9.6v7.6h-9.6V110.7z M101.8,57.4h7.6v61h-7.6V57.4z"/>
	</g>
</g>
</svg>
