<svg id="图层_1" data-name="图层 1" xmlns="http://www.w3.org/2000/svg" xmlns:xlink="http://www.w3.org/1999/xlink" viewBox="0 0 563.99 614.11"><defs><style>.cls-1{fill:none;}.cls-2{clip-path:url(#clip-path);}.cls-3{fill:#13b2ea;}.cls-4{fill:#fff;}</style><clipPath id="clip-path" transform="translate(-15 -114.66)"><rect class="cls-1" x="15" y="113.89" width="564" height="615.84"/></clipPath></defs><g class="cls-2"><path class="cls-3" d="M578.88,264.77A50.89,50.89,0,0,0,564,225.69l-90.37-90.37a51,51,0,0,0-41-20.66H118.05A51.33,51.33,0,0,0,66.9,166V448.27H47a32,32,0,0,0-32,32V594.51a32,32,0,0,0,32,32H66.9v56.38h.37a51.05,51.05,0,0,0,50.78,45.83H528v0a51,51,0,0,0,51-51V268.06c0-1.11,0-2.2-.11-3.29ZM528,677.69h-410V626.51H443.26a32,32,0,0,0,32-32V480.27a32,32,0,0,0-32-32H117.94V165.69H380v97.16a51,51,0,0,0,51,51h97ZM232.34,479.53m-46.24,119h0M528,262.85H431V165.69h.87L528,261.79Zm0,0" transform="translate(-15 -114.66)"/></g><path class="cls-3" d="M197,268.44a25.71,25.71,0,1,0-25.71-25.71A25.71,25.71,0,0,0,197,268.44ZM243.48,517.8c0-6.18-4.59-12-12.46-12H214.79v24.06H231c7.87,0,12.46-5.84,12.46-12Zm89.7-177.53a32.78,32.78,0,0,0-51.75-21.66,30,30,0,0,0-58.72,1.69A25.71,25.71,0,0,0,191,340.57a25.77,25.77,0,0,0,5,51.06H330.27a25.76,25.76,0,0,0,2.91-51.36Zm0,0" transform="translate(-15 -114.66)"/><path class="cls-4" d="M144,604.59H119V476.8h25Z" transform="translate(-15 -114.66)"/><path class="cls-4" d="M250.73,476.8h31.73V604.59H260.58V505.36l.88,5.62L237,590.35H215.75l-24.43-77.61.88-7.38v99.23H170.31V476.8H202l24.35,86.13Z" transform="translate(-15 -114.66)"/><path class="cls-4" d="M401.47,533.13v25q0,14.25-5.76,25.1A40.74,40.74,0,0,1,379.41,600q-10.56,5.94-24.44,5.94t-24.65-5.58a39.92,39.92,0,0,1-16.52-15.78q-5.85-10.2-5.85-23.64V523.2q0-14.24,5.76-25.05A40.76,40.76,0,0,1,330,481.41q10.55-5.94,24.43-5.93a47.68,47.68,0,0,1,21.1,4.7,43.9,43.9,0,0,1,16.13,13.31,49,49,0,0,1,8.74,20h-26a16.88,16.88,0,0,0-4.35-7,20.5,20.5,0,0,0-7.12-4.48,23.85,23.85,0,0,0-8.49-1.54,22.25,22.25,0,0,0-11.29,2.81,19.22,19.22,0,0,0-7.56,8,25.63,25.63,0,0,0-2.68,12v37.71a20.14,20.14,0,0,0,2.73,10.54,17.88,17.88,0,0,0,7.73,7A25.88,25.88,0,0,0,355,581a23.32,23.32,0,0,0,11.38-2.68,18.17,18.17,0,0,0,7.52-7.78,25.88,25.88,0,0,0,2.63-12v-2.11H357.17V533.13Z" transform="translate(-15 -114.66)"/></svg>