<svg id="图层_1" data-name="图层 1" xmlns="http://www.w3.org/2000/svg" viewBox="0 0 564 615.84"><defs><style>.cls-1{fill:none;}.cls-2{fill:#13b2ea;}</style></defs><path class="cls-1" d="M15,113.89V729.73H579V113.89ZM194.83,217.1a25.72,25.72,0,1,1-23.51,23.59A25.73,25.73,0,0,1,194.83,217.1ZM231,529.83H214.79V505.77H231c7.87,0,12.46,5.85,12.46,12S238.89,529.83,231,529.83Zm98.75-138.2H196.53c-13.29,0-24.83-9.85-26.18-23.07a25.79,25.79,0,0,1,20.67-28,25.71,25.71,0,0,1,31.69-20.27,30,30,0,0,1,58.72-1.69,32.78,32.78,0,0,1,51.75,21.66A25.75,25.75,0,0,1,356,367.64C355.06,381.24,343.4,391.63,329.77,391.63Z" transform="translate(-15 -113.89)"/><path class="cls-2" d="M197,268.44a25.71,25.71,0,1,0-25.71-25.71A25.71,25.71,0,0,0,197,268.44Z" transform="translate(-15 -113.89)"/><path class="cls-2" d="M333.18,340.27a32.78,32.78,0,0,0-51.75-21.66,30,30,0,0,0-58.72,1.69A25.71,25.71,0,0,0,191,340.57a25.79,25.79,0,0,0-20.67,28c1.35,13.22,12.89,23.07,26.18,23.07H329.77c13.63,0,25.29-10.39,26.2-24A25.75,25.75,0,0,0,333.18,340.27Z" transform="translate(-15 -113.89)"/><path class="cls-2" d="M578.88,264.77A50.89,50.89,0,0,0,564,225.69l-90.37-90.37a51,51,0,0,0-41-20.66H118.05A51.36,51.36,0,0,0,66.9,166V448.27H47a32,32,0,0,0-32,32V594.51a32,32,0,0,0,32,32H66.9v56.38h.37a51.05,51.05,0,0,0,50.78,45.83H528v0a51,51,0,0,0,51-51V268.06C579,267,579,265.86,578.88,264.77ZM103.75,473.11h25v127.8h-25ZM528,677.69H118V626.51H443.26a32,32,0,0,0,32-32V480.27a32,32,0,0,0-32-32H118V165.69H380v97.16a51,51,0,0,0,51,51h97Zm-306.17-91H200.52L177,511.85v89.06H155.08V473.11h31.73l24.35,86.14,24.34-86.14h31.73v127.8H245.35V510.16Zm98.61-18.9a18,18,0,0,0,7.74,7,26,26,0,0,0,11.6,2.46,23.21,23.21,0,0,0,11.38-2.68,18.2,18.2,0,0,0,7.52-7.77,26,26,0,0,0,2.63-12v-2.11H341.94v-23.2h44.29v25q0,14.24-5.75,25.1a40.77,40.77,0,0,1-16.31,16.78q-10.55,5.94-24.43,5.93t-24.65-5.58a39.92,39.92,0,0,1-16.53-15.77q-5.83-10.2-5.84-23.65v-37.7q0-14.24,5.76-25a40.7,40.7,0,0,1,16.3-16.74q10.55-5.94,24.43-5.93a47.54,47.54,0,0,1,21.1,4.7,43.79,43.79,0,0,1,16.12,13.31,48.86,48.86,0,0,1,8.75,19.95h-26a16.91,16.91,0,0,0-4.35-7,20.34,20.34,0,0,0-7.12-4.49,24,24,0,0,0-8.48-1.53,22.13,22.13,0,0,0-11.29,2.81,19.16,19.16,0,0,0-7.56,8,25.6,25.6,0,0,0-2.68,11.95v37.7A20.24,20.24,0,0,0,320.4,567.77ZM528,262.85H431V165.69h.87L528,261.79Z" transform="translate(-15 -113.89)"/></svg>