<?xml version="1.0" encoding="utf-8"?>
<!-- Generator: Adobe Illustrator 26.0.0, SVG Export Plug-In . SVG Version: 6.00 Build 0)  -->
<svg version="1.1" id="图层_1" xmlns="http://www.w3.org/2000/svg" xmlns:xlink="http://www.w3.org/1999/xlink" x="0px" y="0px"
	 viewBox="0 0 128 128" style="enable-background:new 0 0 128 128;" xml:space="preserve">
<style type="text/css">
	.st0{fill:#EFB336;}
	.st1{fill:#FFFFFF;}
	.st2{fill:none;}
	.st3{fill:#13B2EA;}
</style>
<path class="st0" d="M30,47.4h75.2v-6.7c0-3.6-3-6.7-6.7-6.7h-40V28c0-3.6-3-6.7-6.7-6.7H18.5c-3.6,0-6.7,3-6.7,6.7v79.5l11.8-53.4
	C23.3,50.2,26.4,47.4,30,47.4z"/>
<rect x="27.2" y="19.4" class="st1" width="58" height="79.3"/>
<g>
	<g>
		<path class="st2" d="M92.6,27.4V14.6H58v37.3h42.9c2.3,0,4.2,1.9,4.2,4.2v15.1c0,2.3-1.9,4.2-4.2,4.2H58v6.8h54.1v-48H99.3
			C95.6,34.2,92.6,31.2,92.6,27.4z M68.7,21.4c1.7,0.1,3.1,1.5,3.2,3.2c0.1,2-1.4,3.6-3.4,3.6c-1.9,0-3.4-1.5-3.4-3.4
			C65,22.8,66.7,21.3,68.7,21.4z M86,44.4H68.4c-1.8,0-3.3-1.3-3.5-3c-0.2-1.8,1.1-3.4,2.7-3.7c0.3-1.6,1.7-2.8,3.3-2.8
			c0.3,0,0.6,0,0.8,0.1c0.3-1.9,1.9-3.3,3.9-3.3c1.9,0,3.4,1.3,3.9,3c0.7-0.5,1.6-0.8,2.5-0.8c2.2,0,4,1.6,4.3,3.7
			c1.8,0.2,3.1,1.8,3,3.6C89.3,43.1,87.8,44.4,86,44.4z"/>
		<polygon class="st2" points="77.7,72.1 77.7,55.2 73.5,55.2 70.3,66.6 67.1,55.2 62.9,55.2 62.9,72.1 65.8,72.1 65.8,60.3 
			68.9,70.2 71.7,70.2 74.8,60.1 74.8,72.1 		"/>
		<rect x="56.1" y="55.2" class="st2" width="3.3" height="16.9"/>
		<path class="st2" d="M84.7,59.7c0.2-0.5,0.6-0.8,1-1.1c0.4-0.2,0.9-0.4,1.5-0.4c0.4,0,0.8,0.1,1.1,0.2c0.4,0.1,0.7,0.3,0.9,0.6
			c0.3,0.3,0.5,0.6,0.6,0.9h3.4c-0.2-1-0.6-1.9-1.2-2.6c-0.6-0.8-1.3-1.3-2.1-1.8c-0.9-0.4-1.8-0.6-2.8-0.6c-1.2,0-2.3,0.3-3.2,0.8
			c-0.9,0.5-1.6,1.3-2.2,2.2c-0.5,1-0.8,2.1-0.8,3.3v5c0,1.2,0.3,2.2,0.8,3.1c0.5,0.9,1.2,1.6,2.2,2.1c0.9,0.5,2,0.7,3.3,0.7
			c1.2,0,2.3-0.3,3.2-0.8c0.9-0.5,1.6-1.3,2.2-2.2c0.5-1,0.8-2.1,0.8-3.3v-3.3h-5.8v3.1h2.6V66c0,0.6-0.1,1.1-0.3,1.6
			c-0.2,0.4-0.6,0.8-1,1c-0.4,0.2-0.9,0.4-1.5,0.4c-0.6,0-1.1-0.1-1.5-0.3c-0.4-0.2-0.8-0.5-1-0.9c-0.2-0.4-0.4-0.9-0.4-1.4v-5
			C84.4,60.7,84.5,60.2,84.7,59.7z"/>
		<polygon class="st2" points="99.3,14.6 99.3,27.4 112.1,27.4 112.1,27.3 99.4,14.6 		"/>
		<g>
			<path class="st3" d="M91.5,33.3c0.1-1.9-0.5-3.7-2-5.2L77.6,16.2c-1.2-1.7-3.2-2.7-5.4-2.7H30.7c-2.8,0-5.2,1.7-6.2,4.1
				c-0.4,0.8-0.5,1.7-0.5,2.6v37.3h-2.6c-2.3,0-4.2,1.9-4.2,4.2v15.1c0,2.3,1.9,4.2,4.2,4.2H24v7.4h0c0.3,3.4,3.2,6,6.7,6h54.1v0
				c3.7,0,6.7-3,6.7-6.7V33.7C91.6,33.5,91.5,33.4,91.5,33.3z M28.8,60.8h3.3v16.9h-3.3V60.8z M84.8,87.8H30.7V81h42.9
				c2.3,0,4.2-1.9,4.2-4.2V61.7c0-2.3-1.9-4.2-4.2-4.2H30.7V20.2h34.6V33c0,3.7,3,6.7,6.7,6.7h12.8V87.8z M44.4,75.7h-2.8l-3.1-9.9
				v11.8h-2.9V60.8h4.2L43,72.1l3.2-11.4h4.2v16.9h-2.9v-12L44.4,75.7z M57.4,73.3c0.2,0.4,0.6,0.7,1,0.9c0.4,0.2,1,0.3,1.5,0.3
				c0.6,0,1.1-0.1,1.5-0.4c0.4-0.2,0.8-0.6,1-1c0.2-0.4,0.3-1,0.3-1.6v-0.3h-2.6v-3.1h5.8v3.3c0,1.3-0.3,2.4-0.8,3.3
				c-0.5,1-1.2,1.7-2.2,2.2c-0.9,0.5-2,0.8-3.2,0.8c-1.2,0-2.3-0.2-3.3-0.7c-0.9-0.5-1.7-1.2-2.2-2.1c-0.5-0.9-0.8-1.9-0.8-3.1v-5
				c0-1.3,0.3-2.4,0.8-3.3c0.5-1,1.2-1.7,2.2-2.2c0.9-0.5,2-0.8,3.2-0.8c1,0,1.9,0.2,2.8,0.6c0.9,0.4,1.6,1,2.1,1.8
				c0.6,0.8,1,1.6,1.2,2.6h-3.4c-0.1-0.4-0.3-0.7-0.6-0.9c-0.3-0.3-0.6-0.5-0.9-0.6c-0.4-0.1-0.7-0.2-1.1-0.2
				c-0.6,0-1.1,0.1-1.5,0.4c-0.4,0.2-0.8,0.6-1,1.1c-0.2,0.5-0.4,1-0.4,1.6v5C57.1,72.4,57.2,72.8,57.4,73.3z M84.8,33H72V20.2h0.1
				l12.7,12.7V33z"/>
			<rect x="28.8" y="60.8" class="st2" width="3.3" height="16.9"/>
			<polygon class="st2" points="50.4,77.6 50.4,60.8 46.2,60.8 43,72.1 39.8,60.8 35.6,60.8 35.6,77.6 38.5,77.6 38.5,65.9 
				41.6,75.7 44.4,75.7 47.5,65.6 47.5,77.6 			"/>
			<path class="st2" d="M65.3,33V20.2H30.7v37.3h42.9c2.3,0,4.2,1.9,4.2,4.2v15.1c0,2.3-1.9,4.2-4.2,4.2H30.7v6.8h54.1v-48H72
				C68.3,39.7,65.3,36.7,65.3,33z M41.3,27c1.7,0.1,3.1,1.5,3.2,3.2c0.1,2-1.4,3.6-3.4,3.6c-1.9,0-3.4-1.5-3.4-3.4
				C37.7,28.4,39.4,26.8,41.3,27z M58.7,50H41.1c-1.8,0-3.3-1.3-3.5-3c-0.2-1.8,1.1-3.4,2.7-3.7c0.3-1.6,1.7-2.8,3.3-2.8
				c0.3,0,0.6,0,0.8,0.1c0.3-1.9,1.9-3.3,3.9-3.3c1.9,0,3.4,1.3,3.9,3c0.7-0.5,1.6-0.8,2.5-0.8c2.2,0,4,1.6,4.3,3.7
				c1.8,0.2,3.1,1.8,3,3.6C62,48.6,60.5,50,58.7,50z"/>
			<path class="st2" d="M57.4,65.3c0.2-0.5,0.6-0.8,1-1.1c0.4-0.2,0.9-0.4,1.5-0.4c0.4,0,0.8,0.1,1.1,0.2c0.4,0.1,0.7,0.3,0.9,0.6
				c0.3,0.3,0.5,0.6,0.6,0.9H66c-0.2-1-0.6-1.9-1.2-2.6c-0.6-0.8-1.3-1.3-2.1-1.8c-0.9-0.4-1.8-0.6-2.8-0.6c-1.2,0-2.3,0.3-3.2,0.8
				c-0.9,0.5-1.6,1.3-2.2,2.2c-0.5,1-0.8,2.1-0.8,3.3v5c0,1.2,0.3,2.2,0.8,3.1c0.5,0.9,1.2,1.6,2.2,2.1c0.9,0.5,2,0.7,3.3,0.7
				c1.2,0,2.3-0.3,3.2-0.8c0.9-0.5,1.6-1.3,2.2-2.2c0.5-1,0.8-2.1,0.8-3.3v-3.3h-5.8v3.1h2.6v0.3c0,0.6-0.1,1.1-0.3,1.6
				c-0.2,0.4-0.6,0.8-1,1c-0.4,0.2-0.9,0.4-1.5,0.4c-0.6,0-1.1-0.1-1.5-0.3c-0.4-0.2-0.8-0.5-1-0.9c-0.2-0.4-0.4-0.9-0.4-1.4v-5
				C57.1,66.3,57.2,65.8,57.4,65.3z"/>
			<polygon class="st2" points="72,20.2 72,33 84.8,33 84.8,32.9 72.1,20.2 			"/>
			<path class="st3" d="M41.1,33.7c1.9,0,3.5-1.6,3.4-3.6c-0.1-1.7-1.5-3.1-3.2-3.2c-2-0.1-3.6,1.4-3.6,3.4
				C37.7,32.2,39.3,33.7,41.1,33.7z"/>
			<path class="st3" d="M59.1,43.2c-0.3-2.1-2.1-3.7-4.3-3.7c-1,0-1.8,0.3-2.5,0.8c-0.4-1.7-2-3-3.9-3c-1.9,0-3.6,1.4-3.9,3.3
				c-0.3-0.1-0.6-0.1-0.8-0.1c-1.7,0-3,1.2-3.3,2.8c-1.7,0.3-2.9,1.9-2.7,3.7c0.2,1.7,1.7,3,3.5,3h17.6c1.8,0,3.3-1.4,3.5-3.2
				C62.2,45,60.9,43.4,59.1,43.2z"/>
		</g>
	</g>
	<path class="st2" d="M44.4,7.8v81.3h74.4V7.8H44.4z M68.2,21.4c2.1-0.2,3.8,1.6,3.7,3.7c-0.1,1.6-1.5,3-3.1,3.1
		c-2.1,0.2-3.8-1.6-3.7-3.7C65.2,22.9,66.5,21.5,68.2,21.4z M72.9,62.7h-2.1v-3.2h2.1c1,0,1.6,0.8,1.6,1.6
		C74.6,61.9,74,62.7,72.9,62.7z M86,44.4H68.4c-1.8,0-3.3-1.3-3.5-3c-0.2-1.8,1.1-3.4,2.7-3.7c0.3-1.6,1.7-2.8,3.3-2.8
		c0.3,0,0.6,0,0.8,0.1c0.3-1.9,1.9-3.3,3.9-3.3c1.9,0,3.4,1.3,3.9,3c0.7-0.5,1.6-0.8,2.5-0.8c2.2,0,4,1.6,4.3,3.7
		c1.8,0.2,3.1,1.8,3,3.6C89.3,43.1,87.8,44.4,86,44.4z"/>
</g>
<path class="st0" d="M111.9,52.3H35.2c-3.6,0-6.7,3-6.7,6.7l-11.8,55.2h83.7c3.6,0,6.7-3,6.7-6.7c0,0,11.5-48.5,11.5-48.5
	C118.6,55.3,115.6,52.3,111.9,52.3z"/>
</svg>
