<?xml version="1.0" standalone="no"?><!DOCTYPE svg PUBLIC "-//W3C//DTD SVG 1.1//EN" "http://www.w3.org/Graphics/SVG/1.1/DTD/svg11.dtd"><svg t="1684586629267" class="icon" viewBox="0 0 1024 1024" version="1.1" xmlns="http://www.w3.org/2000/svg" p-id="5867" xmlns:xlink="http://www.w3.org/1999/xlink" width="128" height="128"><path d="M634.5 60.7h-419c-19.8 0-38.7 7.8-52.7 21.8C149.3 96 141 114.6 141 135.2v745.2c0 19.8 7.8 38.7 21.8 52.7s32.9 21.9 52.7 21.8h596.1c19.8 0 38.7-7.8 52.7-21.8 13.5-13.5 21.8-32.1 21.8-52.7l0.1-581.6L634.5 60.7z m-9.1 94.1l137 129.4h-137V154.8z m-409.9-19.6h335.3v186.3c0 9.9 3.9 19.4 10.9 26.4s16.5 10.9 26.4 10.9h223.6v296.5l-82.3-48.7c-13.2-7.8-30.4-7.5-43.3 0.9l-123.3 80.2-186.6-209.9c-6.9-7.7-17.1-12.4-28.1-12.8-11-0.4-21.6 3.4-29.2 10.6l-103.3 97.3V135.2z m0 745.2V671.8L343.9 551l204.7 230.1 160.8-104.5 99.5 58.9v3.8l2.7-1.4v142.5H215.5z" p-id="5868" fill="#1296db"></path><path d="M583.6 544.2a51.2 51.2 0 1 0 102.4 0 51.2 51.2 0 1 0-102.4 0Z" p-id="5869" fill="#1296db"></path></svg>