<?xml version="1.0" encoding="UTF-8" ?>
<svg version="1.1" width="32" height="32" xmlns="http://www.w3.org/2000/svg" shape-rendering="crispEdges">
<rect x="3" y="1" width="1" height="1" fill="#F4F6EF" />
<rect x="3" y="2" width="1" height="1" fill="#F4F6EF" />
<rect x="4" y="2" width="1" height="1" fill="#F4F6EF" />
<rect x="2" y="3" width="1" height="1" fill="#F4F6EF" />
<rect x="3" y="3" width="1" height="1" fill="#BCCACA" />
<rect x="4" y="3" width="1" height="1" fill="#BCCACA" />
<rect x="5" y="3" width="1" height="1" fill="#BCCACA" />
<rect x="2" y="4" width="1" height="1" fill="#BCCACA" />
<rect x="3" y="4" width="1" height="1" fill="#BCCACA" />
<rect x="4" y="4" width="1" height="1" fill="#BCCACA" />
<rect x="5" y="4" width="1" height="1" fill="#F68B2C" />
<rect x="6" y="4" width="1" height="1" fill="#FFB070" />
<rect x="1" y="5" width="1" height="1" fill="#BCCACA" />
<rect x="2" y="5" width="1" height="1" fill="#D57826" />
<rect x="3" y="5" width="1" height="1" fill="#BCCACA" />
<rect x="4" y="5" width="1" height="1" fill="#F68B2C" />
<rect x="5" y="5" width="1" height="1" fill="#F68B2C" />
<rect x="6" y="5" width="1" height="1" fill="#F68B2C" />
<rect x="16" y="5" width="1" height="1" fill="#FCC074" />
<rect x="17" y="5" width="1" height="1" fill="#FCC074" />
<rect x="18" y="5" width="1" height="1" fill="#FCC074" />
<rect x="19" y="5" width="1" height="1" fill="#FCC074" />
<rect x="1" y="6" width="1" height="1" fill="#D57826" />
<rect x="2" y="6" width="1" height="1" fill="#D57826" />
<rect x="3" y="6" width="1" height="1" fill="#F68B2C" />
<rect x="4" y="6" width="1" height="1" fill="#F68B2C" />
<rect x="5" y="6" width="1" height="1" fill="#F68B2C" />
<rect x="6" y="6" width="1" height="1" fill="#F68B2C" />
<rect x="7" y="6" width="1" height="1" fill="#FFB070" />
<rect x="14" y="6" width="1" height="1" fill="#E09F56" />
<rect x="15" y="6" width="1" height="1" fill="#FCC074" />
<rect x="16" y="6" width="1" height="1" fill="#FCC074" />
<rect x="17" y="6" width="1" height="1" fill="#FCC074" />
<rect x="18" y="6" width="1" height="1" fill="#FCC074" />
<rect x="19" y="6" width="1" height="1" fill="#FCC074" />
<rect x="20" y="6" width="1" height="1" fill="#FCC074" />
<rect x="21" y="6" width="1" height="1" fill="#FCC074" />
<rect x="1" y="7" width="1" height="1" fill="#D57826" />
<rect x="2" y="7" width="1" height="1" fill="#D57826" />
<rect x="3" y="7" width="1" height="1" fill="#F68B2C" />
<rect x="4" y="7" width="1" height="1" fill="#F68B2C" />
<rect x="5" y="7" width="1" height="1" fill="#F68B2C" />
<rect x="6" y="7" width="1" height="1" fill="#F68B2C" />
<rect x="7" y="7" width="1" height="1" fill="#FFB070" />
<rect x="12" y="7" width="1" height="1" fill="#E09F56" />
<rect x="13" y="7" width="1" height="1" fill="#E09F56" />
<rect x="14" y="7" width="1" height="1" fill="#E09F56" />
<rect x="15" y="7" width="1" height="1" fill="#E09F56" />
<rect x="16" y="7" width="1" height="1" fill="#FCC074" />
<rect x="17" y="7" width="1" height="1" fill="#FCC074" />
<rect x="18" y="7" width="1" height="1" fill="#FCC074" />
<rect x="19" y="7" width="1" height="1" fill="#FCC074" />
<rect x="20" y="7" width="1" height="1" fill="#FCC074" />
<rect x="21" y="7" width="1" height="1" fill="#FCC074" />
<rect x="22" y="7" width="1" height="1" fill="#FCC074" />
<rect x="23" y="7" width="1" height="1" fill="#FCC074" />
<rect x="1" y="8" width="1" height="1" fill="#D57826" />
<rect x="2" y="8" width="1" height="1" fill="#F68B2C" />
<rect x="3" y="8" width="1" height="1" fill="#F68B2C" />
<rect x="4" y="8" width="1" height="1" fill="#F68B2C" />
<rect x="5" y="8" width="1" height="1" fill="#F68B2C" />
<rect x="6" y="8" width="1" height="1" fill="#F68B2C" />
<rect x="7" y="8" width="1" height="1" fill="#F59440" />
<rect x="8" y="8" width="1" height="1" fill="#FFB070" />
<rect x="10" y="8" width="1" height="1" fill="#E09F56" />
<rect x="11" y="8" width="1" height="1" fill="#E09F56" />
<rect x="12" y="8" width="1" height="1" fill="#E09F56" />
<rect x="13" y="8" width="1" height="1" fill="#E09F56" />
<rect x="14" y="8" width="1" height="1" fill="#E09F56" />
<rect x="15" y="8" width="1" height="1" fill="#E09F56" />
<rect x="16" y="8" width="1" height="1" fill="#E09F56" />
<rect x="17" y="8" width="1" height="1" fill="#FCC074" />
<rect x="18" y="8" width="1" height="1" fill="#FCC074" />
<rect x="19" y="8" width="1" height="1" fill="#FCC074" />
<rect x="20" y="8" width="1" height="1" fill="#FCC074" />
<rect x="21" y="8" width="1" height="1" fill="#FCC074" />
<rect x="22" y="8" width="1" height="1" fill="#FCC074" />
<rect x="23" y="8" width="1" height="1" fill="#FCC074" />
<rect x="24" y="8" width="1" height="1" fill="#FCC074" />
<rect x="25" y="8" width="1" height="1" fill="#FCC074" />
<rect x="1" y="9" width="1" height="1" fill="#D57826" />
<rect x="2" y="9" width="1" height="1" fill="#D57826" />
<rect x="3" y="9" width="1" height="1" fill="#F68B2C" />
<rect x="4" y="9" width="1" height="1" fill="#F68B2C" />
<rect x="5" y="9" width="1" height="1" fill="#F68B2C" />
<rect x="6" y="9" width="1" height="1" fill="#F68B2C" />
<rect x="7" y="9" width="1" height="1" fill="#F68B2C" />
<rect x="8" y="9" width="1" height="1" fill="#FCC074" />
<rect x="9" y="9" width="1" height="1" fill="#FCC074" />
<rect x="10" y="9" width="1" height="1" fill="#FCC074" />
<rect x="11" y="9" width="1" height="1" fill="#E09F56" />
<rect x="12" y="9" width="1" height="1" fill="#E09F56" />
<rect x="13" y="9" width="1" height="1" fill="#E09F56" />
<rect x="14" y="9" width="1" height="1" fill="#E09F56" />
<rect x="15" y="9" width="1" height="1" fill="#E09F56" />
<rect x="16" y="9" width="1" height="1" fill="#E09F56" />
<rect x="17" y="9" width="1" height="1" fill="#E09F56" />
<rect x="18" y="9" width="1" height="1" fill="#E09F56" />
<rect x="19" y="9" width="1" height="1" fill="#FCC074" />
<rect x="20" y="9" width="1" height="1" fill="#FCC074" />
<rect x="21" y="9" width="1" height="1" fill="#FCC074" />
<rect x="22" y="9" width="1" height="1" fill="#FCC074" />
<rect x="23" y="9" width="1" height="1" fill="#FCC074" />
<rect x="24" y="9" width="1" height="1" fill="#FCC074" />
<rect x="25" y="9" width="1" height="1" fill="#FCC074" />
<rect x="26" y="9" width="1" height="1" fill="#FCC074" />
<rect x="27" y="9" width="1" height="1" fill="#FCC074" />
<rect x="2" y="10" width="1" height="1" fill="#D57826" />
<rect x="3" y="10" width="1" height="1" fill="#DB8439" />
<rect x="4" y="10" width="1" height="1" fill="#F68B2C" />
<rect x="5" y="10" width="1" height="1" fill="#F68B2C" />
<rect x="6" y="10" width="1" height="1" fill="#FCC074" />
<rect x="7" y="10" width="1" height="1" fill="#FCC074" />
<rect x="8" y="10" width="1" height="1" fill="#FCC074" />
<rect x="9" y="10" width="1" height="1" fill="#FCC074" />
<rect x="10" y="10" width="1" height="1" fill="#FCC074" />
<rect x="11" y="10" width="1" height="1" fill="#FCC074" />
<rect x="12" y="10" width="1" height="1" fill="#FCC074" />
<rect x="13" y="10" width="1" height="1" fill="#E09F56" />
<rect x="14" y="10" width="1" height="1" fill="#E09F56" />
<rect x="15" y="10" width="1" height="1" fill="#E09F56" />
<rect x="16" y="10" width="1" height="1" fill="#E09F56" />
<rect x="17" y="10" width="1" height="1" fill="#E09F56" />
<rect x="18" y="10" width="1" height="1" fill="#E09F56" />
<rect x="19" y="10" width="1" height="1" fill="#E09F56" />
<rect x="20" y="10" width="1" height="1" fill="#E09F56" />
<rect x="21" y="10" width="1" height="1" fill="#FCC074" />
<rect x="22" y="10" width="1" height="1" fill="#FCC074" />
<rect x="23" y="10" width="1" height="1" fill="#FCC074" />
<rect x="24" y="10" width="1" height="1" fill="#FCC074" />
<rect x="25" y="10" width="1" height="1" fill="#FCC074" />
<rect x="26" y="10" width="1" height="1" fill="#FCC074" />
<rect x="27" y="10" width="1" height="1" fill="#FCC074" />
<rect x="28" y="10" width="1" height="1" fill="#FCC074" />
<rect x="29" y="10" width="1" height="1" fill="#FCC074" />
<rect x="2" y="11" width="1" height="1" fill="#D57826" />
<rect x="3" y="11" width="1" height="1" fill="#D57826" />
<rect x="4" y="11" width="1" height="1" fill="#DB8439" />
<rect x="5" y="11" width="1" height="1" fill="#C85A3E" />
<rect x="6" y="11" width="1" height="1" fill="#FCC074" />
<rect x="7" y="11" width="1" height="1" fill="#FCC074" />
<rect x="8" y="11" width="1" height="1" fill="#FCC074" />
<rect x="9" y="11" width="1" height="1" fill="#FCC074" />
<rect x="10" y="11" width="1" height="1" fill="#FCC074" />
<rect x="11" y="11" width="1" height="1" fill="#FCC074" />
<rect x="12" y="11" width="1" height="1" fill="#FCC074" />
<rect x="13" y="11" width="1" height="1" fill="#FCC074" />
<rect x="14" y="11" width="1" height="1" fill="#FCC074" />
<rect x="15" y="11" width="1" height="1" fill="#E09F56" />
<rect x="16" y="11" width="1" height="1" fill="#E09F56" />
<rect x="17" y="11" width="1" height="1" fill="#E09F56" />
<rect x="18" y="11" width="1" height="1" fill="#E09F56" />
<rect x="19" y="11" width="1" height="1" fill="#E09F56" />
<rect x="20" y="11" width="1" height="1" fill="#E09F56" />
<rect x="21" y="11" width="1" height="1" fill="#E09F56" />
<rect x="22" y="11" width="1" height="1" fill="#FCC074" />
<rect x="23" y="11" width="1" height="1" fill="#FCC074" />
<rect x="24" y="11" width="1" height="1" fill="#FCC074" />
<rect x="25" y="11" width="1" height="1" fill="#FCC074" />
<rect x="26" y="11" width="1" height="1" fill="#FCC074" />
<rect x="27" y="11" width="1" height="1" fill="#FCC074" />
<rect x="28" y="11" width="1" height="1" fill="#FCC074" />
<rect x="29" y="11" width="1" height="1" fill="#E78E59" />
<rect x="30" y="11" width="1" height="1" fill="#E78E59" />
<rect x="3" y="12" width="1" height="1" fill="#D57826" />
<rect x="4" y="12" width="1" height="1" fill="#D57826" />
<rect x="5" y="12" width="1" height="1" fill="#C85A3E" />
<rect x="6" y="12" width="1" height="1" fill="#C85A3E" />
<rect x="7" y="12" width="1" height="1" fill="#C85A3E" />
<rect x="8" y="12" width="1" height="1" fill="#FCC074" />
<rect x="9" y="12" width="1" height="1" fill="#FCC074" />
<rect x="10" y="12" width="1" height="1" fill="#FCC074" />
<rect x="11" y="12" width="1" height="1" fill="#FCC074" />
<rect x="12" y="12" width="1" height="1" fill="#FCC074" />
<rect x="13" y="12" width="1" height="1" fill="#FCC074" />
<rect x="14" y="12" width="1" height="1" fill="#FCC074" />
<rect x="15" y="12" width="1" height="1" fill="#FCC074" />
<rect x="16" y="12" width="1" height="1" fill="#FCC074" />
<rect x="17" y="12" width="1" height="1" fill="#E09F56" />
<rect x="18" y="12" width="1" height="1" fill="#E09F56" />
<rect x="19" y="12" width="1" height="1" fill="#E09F56" />
<rect x="20" y="12" width="1" height="1" fill="#E09F56" />
<rect x="21" y="12" width="1" height="1" fill="#E09F56" />
<rect x="22" y="12" width="1" height="1" fill="#E09F56" />
<rect x="23" y="12" width="1" height="1" fill="#E09F56" />
<rect x="24" y="12" width="1" height="1" fill="#E09F56" />
<rect x="25" y="12" width="1" height="1" fill="#FCC074" />
<rect x="26" y="12" width="1" height="1" fill="#FCC074" />
<rect x="27" y="12" width="1" height="1" fill="#E78E59" />
<rect x="28" y="12" width="1" height="1" fill="#E78E59" />
<rect x="29" y="12" width="1" height="1" fill="#E78E59" />
<rect x="30" y="12" width="1" height="1" fill="#E78E59" />
<rect x="4" y="13" width="1" height="1" fill="#D57826" />
<rect x="5" y="13" width="1" height="1" fill="#C85A3E" />
<rect x="6" y="13" width="1" height="1" fill="#C85A3E" />
<rect x="7" y="13" width="1" height="1" fill="#C85A3E" />
<rect x="8" y="13" width="1" height="1" fill="#C85A3E" />
<rect x="9" y="13" width="1" height="1" fill="#C85A3E" />
<rect x="10" y="13" width="1" height="1" fill="#FCC074" />
<rect x="11" y="13" width="1" height="1" fill="#FCC074" />
<rect x="12" y="13" width="1" height="1" fill="#FCC074" />
<rect x="13" y="13" width="1" height="1" fill="#FCC074" />
<rect x="14" y="13" width="1" height="1" fill="#FCC074" />
<rect x="15" y="13" width="1" height="1" fill="#FCC074" />
<rect x="16" y="13" width="1" height="1" fill="#FCC074" />
<rect x="17" y="13" width="1" height="1" fill="#FCC074" />
<rect x="18" y="13" width="1" height="1" fill="#E09F56" />
<rect x="19" y="13" width="1" height="1" fill="#E09F56" />
<rect x="20" y="13" width="1" height="1" fill="#E09F56" />
<rect x="21" y="13" width="1" height="1" fill="#E09F56" />
<rect x="22" y="13" width="1" height="1" fill="#E09F56" />
<rect x="23" y="13" width="1" height="1" fill="#E09F56" />
<rect x="24" y="13" width="1" height="1" fill="#E09F56" />
<rect x="25" y="13" width="1" height="1" fill="#E09F56" />
<rect x="26" y="13" width="1" height="1" fill="#E78E59" />
<rect x="27" y="13" width="1" height="1" fill="#E78E59" />
<rect x="28" y="13" width="1" height="1" fill="#E78E59" />
<rect x="29" y="13" width="1" height="1" fill="#E78E59" />
<rect x="30" y="13" width="1" height="1" fill="#7973EF" />
<rect x="5" y="14" width="1" height="1" fill="#C85A3E" />
<rect x="6" y="14" width="1" height="1" fill="#D8684C" />
<rect x="7" y="14" width="1" height="1" fill="#C85A3E" />
<rect x="8" y="14" width="1" height="1" fill="#C85A3E" />
<rect x="9" y="14" width="1" height="1" fill="#C85A3E" />
<rect x="10" y="14" width="1" height="1" fill="#C85A3E" />
<rect x="11" y="14" width="1" height="1" fill="#C85A3E" />
<rect x="12" y="14" width="1" height="1" fill="#FCC074" />
<rect x="13" y="14" width="1" height="1" fill="#FCC074" />
<rect x="14" y="14" width="1" height="1" fill="#FCC074" />
<rect x="15" y="14" width="1" height="1" fill="#FCC074" />
<rect x="16" y="14" width="1" height="1" fill="#FCC074" />
<rect x="17" y="14" width="1" height="1" fill="#FCC074" />
<rect x="18" y="14" width="1" height="1" fill="#FCC074" />
<rect x="19" y="14" width="1" height="1" fill="#FCC074" />
<rect x="20" y="14" width="1" height="1" fill="#E09F56" />
<rect x="21" y="14" width="1" height="1" fill="#E09F56" />
<rect x="22" y="14" width="1" height="1" fill="#E09F56" />
<rect x="23" y="14" width="1" height="1" fill="#E09F56" />
<rect x="24" y="14" width="1" height="1" fill="#BF713F" />
<rect x="25" y="14" width="1" height="1" fill="#BF713F" />
<rect x="26" y="14" width="1" height="1" fill="#E78E59" />
<rect x="27" y="14" width="1" height="1" fill="#E78E59" />
<rect x="28" y="14" width="1" height="1" fill="#E78E59" />
<rect x="29" y="14" width="1" height="1" fill="#7973EF" />
<rect x="30" y="14" width="1" height="1" fill="#7973EF" />
<rect x="5" y="15" width="1" height="1" fill="#C85A3E" />
<rect x="6" y="15" width="1" height="1" fill="#D8684C" />
<rect x="7" y="15" width="1" height="1" fill="#D8684C" />
<rect x="8" y="15" width="1" height="1" fill="#C85A3E" />
<rect x="9" y="15" width="1" height="1" fill="#C85A3E" />
<rect x="10" y="15" width="1" height="1" fill="#C85A3E" />
<rect x="11" y="15" width="1" height="1" fill="#C85A3E" />
<rect x="12" y="15" width="1" height="1" fill="#C85A3E" />
<rect x="13" y="15" width="1" height="1" fill="#C85A3E" />
<rect x="14" y="15" width="1" height="1" fill="#FCC074" />
<rect x="15" y="15" width="1" height="1" fill="#FCC074" />
<rect x="16" y="15" width="1" height="1" fill="#FCC074" />
<rect x="17" y="15" width="1" height="1" fill="#FCC074" />
<rect x="18" y="15" width="1" height="1" fill="#FCC074" />
<rect x="19" y="15" width="1" height="1" fill="#FCC074" />
<rect x="20" y="15" width="1" height="1" fill="#FCC074" />
<rect x="21" y="15" width="1" height="1" fill="#E09F56" />
<rect x="22" y="15" width="1" height="1" fill="#BF713F" />
<rect x="23" y="15" width="1" height="1" fill="#BF713F" />
<rect x="24" y="15" width="1" height="1" fill="#BF713F" />
<rect x="25" y="15" width="1" height="1" fill="#BF713F" />
<rect x="26" y="15" width="1" height="1" fill="#E78E59" />
<rect x="27" y="15" width="1" height="1" fill="#E78E59" />
<rect x="28" y="15" width="1" height="1" fill="#E78E59" />
<rect x="29" y="15" width="1" height="1" fill="#7973EF" />
<rect x="30" y="15" width="1" height="1" fill="#E78E59" />
<rect x="5" y="16" width="1" height="1" fill="#C85A3E" />
<rect x="6" y="16" width="1" height="1" fill="#C85A3E" />
<rect x="7" y="16" width="1" height="1" fill="#D8684C" />
<rect x="8" y="16" width="1" height="1" fill="#E3E3E3" />
<rect x="9" y="16" width="1" height="1" fill="#E3E3E3" />
<rect x="10" y="16" width="1" height="1" fill="#C85A3E" />
<rect x="11" y="16" width="1" height="1" fill="#C85A3E" />
<rect x="12" y="16" width="1" height="1" fill="#C85A3E" />
<rect x="13" y="16" width="1" height="1" fill="#C85A3E" />
<rect x="14" y="16" width="1" height="1" fill="#C85A3E" />
<rect x="15" y="16" width="1" height="1" fill="#C85A3E" />
<rect x="16" y="16" width="1" height="1" fill="#FCC074" />
<rect x="17" y="16" width="1" height="1" fill="#FCC074" />
<rect x="18" y="16" width="1" height="1" fill="#FCC074" />
<rect x="19" y="16" width="1" height="1" fill="#FCC074" />
<rect x="20" y="16" width="1" height="1" fill="#E78E59" />
<rect x="21" y="16" width="1" height="1" fill="#BF713F" />
<rect x="22" y="16" width="1" height="1" fill="#BF713F" />
<rect x="23" y="16" width="1" height="1" fill="#BF713F" />
<rect x="24" y="16" width="1" height="1" fill="#BF713F" />
<rect x="25" y="16" width="1" height="1" fill="#BF713F" />
<rect x="26" y="16" width="1" height="1" fill="#E78E59" />
<rect x="27" y="16" width="1" height="1" fill="#E78E59" />
<rect x="28" y="16" width="1" height="1" fill="#E78E59" />
<rect x="29" y="16" width="1" height="1" fill="#E78E59" />
<rect x="30" y="16" width="1" height="1" fill="#E78E59" />
<rect x="5" y="17" width="1" height="1" fill="#C85A3E" />
<rect x="6" y="17" width="1" height="1" fill="#C85A3E" />
<rect x="7" y="17" width="1" height="1" fill="#C85A3E" />
<rect x="8" y="17" width="1" height="1" fill="#E3E3E3" />
<rect x="9" y="17" width="1" height="1" fill="#C85A3E" />
<rect x="10" y="17" width="1" height="1" fill="#E3E3E3" />
<rect x="11" y="17" width="1" height="1" fill="#C85A3E" />
<rect x="12" y="17" width="1" height="1" fill="#C85A3E" />
<rect x="13" y="17" width="1" height="1" fill="#C85A3E" />
<rect x="14" y="17" width="1" height="1" fill="#C85A3E" />
<rect x="15" y="17" width="1" height="1" fill="#C85A3E" />
<rect x="16" y="17" width="1" height="1" fill="#C85A3E" />
<rect x="17" y="17" width="1" height="1" fill="#C85A3E" />
<rect x="18" y="17" width="1" height="1" fill="#E78E59" />
<rect x="19" y="17" width="1" height="1" fill="#E78E59" />
<rect x="20" y="17" width="1" height="1" fill="#E78E59" />
<rect x="21" y="17" width="1" height="1" fill="#BF713F" />
<rect x="22" y="17" width="1" height="1" fill="#BF713F" />
<rect x="23" y="17" width="1" height="1" fill="#BF713F" />
<rect x="24" y="17" width="1" height="1" fill="#E78E59" />
<rect x="25" y="17" width="1" height="1" fill="#E78E59" />
<rect x="26" y="17" width="1" height="1" fill="#E78E59" />
<rect x="27" y="17" width="1" height="1" fill="#E78E59" />
<rect x="28" y="17" width="1" height="1" fill="#E78E59" />
<rect x="29" y="17" width="1" height="1" fill="#E78E59" />
<rect x="30" y="17" width="1" height="1" fill="#E78E59" />
<rect x="5" y="18" width="1" height="1" fill="#C85A3E" />
<rect x="6" y="18" width="1" height="1" fill="#C85A3E" />
<rect x="7" y="18" width="1" height="1" fill="#C85A3E" />
<rect x="8" y="18" width="1" height="1" fill="#E3E3E3" />
<rect x="9" y="18" width="1" height="1" fill="#C85A3E" />
<rect x="10" y="18" width="1" height="1" fill="#E3E3E3" />
<rect x="11" y="18" width="1" height="1" fill="#C85A3E" />
<rect x="12" y="18" width="1" height="1" fill="#C85A3E" />
<rect x="13" y="18" width="1" height="1" fill="#E3E3E3" />
<rect x="14" y="18" width="1" height="1" fill="#C85A3E" />
<rect x="15" y="18" width="1" height="1" fill="#C85A3E" />
<rect x="16" y="18" width="1" height="1" fill="#C85A3E" />
<rect x="17" y="18" width="1" height="1" fill="#C85A3E" />
<rect x="18" y="18" width="1" height="1" fill="#E78E59" />
<rect x="19" y="18" width="1" height="1" fill="#E78E59" />
<rect x="20" y="18" width="1" height="1" fill="#E78E59" />
<rect x="21" y="18" width="1" height="1" fill="#BF713F" />
<rect x="22" y="18" width="1" height="1" fill="#E78E59" />
<rect x="23" y="18" width="1" height="1" fill="#E78E59" />
<rect x="24" y="18" width="1" height="1" fill="#CCCBCD" />
<rect x="25" y="18" width="1" height="1" fill="#CCCBCD" />
<rect x="26" y="18" width="1" height="1" fill="#555555" />
<rect x="27" y="18" width="1" height="1" fill="#555555" />
<rect x="28" y="18" width="1" height="1" fill="#E78E59" />
<rect x="29" y="18" width="1" height="1" fill="#E78E59" />
<rect x="30" y="18" width="1" height="1" fill="#E78E59" />
<rect x="5" y="19" width="1" height="1" fill="#C85A3E" />
<rect x="6" y="19" width="1" height="1" fill="#C85A3E" />
<rect x="7" y="19" width="1" height="1" fill="#C85A3E" />
<rect x="8" y="19" width="1" height="1" fill="#E3E3E3" />
<rect x="9" y="19" width="1" height="1" fill="#C85A3E" />
<rect x="10" y="19" width="1" height="1" fill="#E3E3E3" />
<rect x="11" y="19" width="1" height="1" fill="#C85A3E" />
<rect x="12" y="19" width="1" height="1" fill="#E3E3E3" />
<rect x="13" y="19" width="1" height="1" fill="#C85A3E" />
<rect x="14" y="19" width="1" height="1" fill="#E3E3E3" />
<rect x="15" y="19" width="1" height="1" fill="#C85A3E" />
<rect x="16" y="19" width="1" height="1" fill="#C85A3E" />
<rect x="17" y="19" width="1" height="1" fill="#C85A3E" />
<rect x="18" y="19" width="1" height="1" fill="#E78E59" />
<rect x="19" y="19" width="1" height="1" fill="#E78E59" />
<rect x="20" y="19" width="1" height="1" fill="#E78E59" />
<rect x="21" y="19" width="1" height="1" fill="#E78E59" />
<rect x="22" y="19" width="1" height="1" fill="#CCCBCD" />
<rect x="23" y="19" width="1" height="1" fill="#CCCBCD" />
<rect x="24" y="19" width="1" height="1" fill="#A7A6A7" />
<rect x="25" y="19" width="1" height="1" fill="#0D0D0D" />
<rect x="26" y="19" width="1" height="1" fill="#0D0D0D" />
<rect x="27" y="19" width="1" height="1" fill="#0D0D0D" />
<rect x="28" y="19" width="1" height="1" fill="#555555" />
<rect x="29" y="19" width="1" height="1" fill="#58A6C1" />
<rect x="30" y="19" width="1" height="1" fill="#E78E59" />
<rect x="5" y="20" width="1" height="1" fill="#C85A3E" />
<rect x="6" y="20" width="1" height="1" fill="#C85A3E" />
<rect x="7" y="20" width="1" height="1" fill="#C85A3E" />
<rect x="8" y="20" width="1" height="1" fill="#E3E3E3" />
<rect x="9" y="20" width="1" height="1" fill="#E3E3E3" />
<rect x="10" y="20" width="1" height="1" fill="#C85A3E" />
<rect x="11" y="20" width="1" height="1" fill="#C85A3E" />
<rect x="12" y="20" width="1" height="1" fill="#E3E3E3" />
<rect x="13" y="20" width="1" height="1" fill="#C85A3E" />
<rect x="14" y="20" width="1" height="1" fill="#E3E3E3" />
<rect x="15" y="20" width="1" height="1" fill="#C85A3E" />
<rect x="16" y="20" width="1" height="1" fill="#C85A3E" />
<rect x="17" y="20" width="1" height="1" fill="#C85A3E" />
<rect x="18" y="20" width="1" height="1" fill="#E78E59" />
<rect x="19" y="20" width="1" height="1" fill="#E78E59" />
<rect x="20" y="20" width="1" height="1" fill="#CCCBCD" />
<rect x="21" y="20" width="1" height="1" fill="#CCCBCD" />
<rect x="22" y="20" width="1" height="1" fill="#A7A6A7" />
<rect x="23" y="20" width="1" height="1" fill="#0D0D0D" />
<rect x="24" y="20" width="1" height="1" fill="#0D0D0D" />
<rect x="25" y="20" width="1" height="1" fill="#0D0D0D" />
<rect x="26" y="20" width="1" height="1" fill="#EFEFEF" />
<rect x="27" y="20" width="1" height="1" fill="#0D0D0D" />
<rect x="28" y="20" width="1" height="1" fill="#0D0D0D" />
<rect x="29" y="20" width="1" height="1" fill="#58A6C1" />
<rect x="30" y="20" width="1" height="1" fill="#E78E59" />
<rect x="5" y="21" width="1" height="1" fill="#C85A3E" />
<rect x="6" y="21" width="1" height="1" fill="#C85A3E" />
<rect x="7" y="21" width="1" height="1" fill="#C85A3E" />
<rect x="8" y="21" width="1" height="1" fill="#E3E3E3" />
<rect x="9" y="21" width="1" height="1" fill="#C85A3E" />
<rect x="10" y="21" width="1" height="1" fill="#E3E3E3" />
<rect x="11" y="21" width="1" height="1" fill="#C85A3E" />
<rect x="12" y="21" width="1" height="1" fill="#E3E3E3" />
<rect x="13" y="21" width="1" height="1" fill="#C85A3E" />
<rect x="14" y="21" width="1" height="1" fill="#C85A3E" />
<rect x="15" y="21" width="1" height="1" fill="#C85A3E" />
<rect x="16" y="21" width="1" height="1" fill="#C75F46" />
<rect x="17" y="21" width="1" height="1" fill="#C85A3E" />
<rect x="18" y="21" width="1" height="1" fill="#E78E59" />
<rect x="19" y="21" width="1" height="1" fill="#E78E59" />
<rect x="20" y="21" width="1" height="1" fill="#CCCBCD" />
<rect x="21" y="21" width="1" height="1" fill="#CCCBCD" />
<rect x="22" y="21" width="1" height="1" fill="#555555" />
<rect x="23" y="21" width="1" height="1" fill="#0D0D0D" />
<rect x="24" y="21" width="1" height="1" fill="#EFEFEF" />
<rect x="25" y="21" width="1" height="1" fill="#0D0D0D" />
<rect x="26" y="21" width="1" height="1" fill="#EFEFEF" />
<rect x="27" y="21" width="1" height="1" fill="#0D0D0D" />
<rect x="28" y="21" width="1" height="1" fill="#0D0D0D" />
<rect x="29" y="21" width="1" height="1" fill="#58A6C1" />
<rect x="30" y="21" width="1" height="1" fill="#E78E59" />
<rect x="5" y="22" width="1" height="1" fill="#C85A3E" />
<rect x="6" y="22" width="1" height="1" fill="#C85A3E" />
<rect x="7" y="22" width="1" height="1" fill="#C85A3E" />
<rect x="8" y="22" width="1" height="1" fill="#E3E3E3" />
<rect x="9" y="22" width="1" height="1" fill="#C85A3E" />
<rect x="10" y="22" width="1" height="1" fill="#E3E3E3" />
<rect x="11" y="22" width="1" height="1" fill="#C85A3E" />
<rect x="12" y="22" width="1" height="1" fill="#C85A3E" />
<rect x="13" y="22" width="1" height="1" fill="#E3E3E3" />
<rect x="14" y="22" width="1" height="1" fill="#C85A3E" />
<rect x="15" y="22" width="1" height="1" fill="#C85A3E" />
<rect x="16" y="22" width="1" height="1" fill="#C75F46" />
<rect x="17" y="22" width="1" height="1" fill="#C85A3E" />
<rect x="18" y="22" width="1" height="1" fill="#E78E59" />
<rect x="19" y="22" width="1" height="1" fill="#E78E59" />
<rect x="20" y="22" width="1" height="1" fill="#BCCACA" />
<rect x="21" y="22" width="1" height="1" fill="#A7A6A7" />
<rect x="22" y="22" width="1" height="1" fill="#555555" />
<rect x="23" y="22" width="1" height="1" fill="#0D0D0D" />
<rect x="24" y="22" width="1" height="1" fill="#EFEFEF" />
<rect x="25" y="22" width="1" height="1" fill="#0D0D0D" />
<rect x="26" y="22" width="1" height="1" fill="#0D0D0D" />
<rect x="27" y="22" width="1" height="1" fill="#0D0D0D" />
<rect x="28" y="22" width="1" height="1" fill="#58A6C1" />
<rect x="29" y="22" width="1" height="1" fill="#58A6C1" />
<rect x="30" y="22" width="1" height="1" fill="#E78E59" />
<rect x="5" y="23" width="1" height="1" fill="#C85A3E" />
<rect x="6" y="23" width="1" height="1" fill="#C85A3E" />
<rect x="7" y="23" width="1" height="1" fill="#C85A3E" />
<rect x="8" y="23" width="1" height="1" fill="#E3E3E3" />
<rect x="9" y="23" width="1" height="1" fill="#C85A3E" />
<rect x="10" y="23" width="1" height="1" fill="#E3E3E3" />
<rect x="11" y="23" width="1" height="1" fill="#C85A3E" />
<rect x="12" y="23" width="1" height="1" fill="#C85A3E" />
<rect x="13" y="23" width="1" height="1" fill="#C85A3E" />
<rect x="14" y="23" width="1" height="1" fill="#E3E3E3" />
<rect x="15" y="23" width="1" height="1" fill="#C85A3E" />
<rect x="16" y="23" width="1" height="1" fill="#C85A3E" />
<rect x="17" y="23" width="1" height="1" fill="#C85A3E" />
<rect x="18" y="23" width="1" height="1" fill="#E78E59" />
<rect x="19" y="23" width="1" height="1" fill="#E78E59" />
<rect x="20" y="23" width="1" height="1" fill="#CCCBCD" />
<rect x="21" y="23" width="1" height="1" fill="#CCCBCD" />
<rect x="22" y="23" width="1" height="1" fill="#CCCBCD" />
<rect x="23" y="23" width="1" height="1" fill="#0D0D0D" />
<rect x="24" y="23" width="1" height="1" fill="#0D0D0D" />
<rect x="25" y="23" width="1" height="1" fill="#0D0D0D" />
<rect x="26" y="23" width="1" height="1" fill="#555555" />
<rect x="27" y="23" width="1" height="1" fill="#58A6C1" />
<rect x="28" y="23" width="1" height="1" fill="#E78E59" />
<rect x="29" y="23" width="1" height="1" fill="#E78E59" />
<rect x="30" y="23" width="1" height="1" fill="#E78E59" />
<rect x="5" y="24" width="1" height="1" fill="#C85A3E" />
<rect x="6" y="24" width="1" height="1" fill="#C85A3E" />
<rect x="7" y="24" width="1" height="1" fill="#C85A3E" />
<rect x="8" y="24" width="1" height="1" fill="#C85A3E" />
<rect x="9" y="24" width="1" height="1" fill="#E3E3E3" />
<rect x="10" y="24" width="1" height="1" fill="#E3E3E3" />
<rect x="11" y="24" width="1" height="1" fill="#C85A3E" />
<rect x="12" y="24" width="1" height="1" fill="#C85A3E" />
<rect x="13" y="24" width="1" height="1" fill="#C85A3E" />
<rect x="14" y="24" width="1" height="1" fill="#E3E3E3" />
<rect x="15" y="24" width="1" height="1" fill="#C85A3E" />
<rect x="16" y="24" width="1" height="1" fill="#C85A3E" />
<rect x="17" y="24" width="1" height="1" fill="#C85A3E" />
<rect x="18" y="24" width="1" height="1" fill="#E78E59" />
<rect x="19" y="24" width="1" height="1" fill="#58A6C1" />
<rect x="20" y="24" width="1" height="1" fill="#CCCBCD" />
<rect x="21" y="24" width="1" height="1" fill="#CCCBCD" />
<rect x="22" y="24" width="1" height="1" fill="#58A6C1" />
<rect x="23" y="24" width="1" height="1" fill="#555555" />
<rect x="24" y="24" width="1" height="1" fill="#555555" />
<rect x="25" y="24" width="1" height="1" fill="#58A6C1" />
<rect x="26" y="24" width="1" height="1" fill="#E78E59" />
<rect x="27" y="24" width="1" height="1" fill="#E78E59" />
<rect x="28" y="24" width="1" height="1" fill="#E78E59" />
<rect x="29" y="24" width="1" height="1" fill="#E78E59" />
<rect x="30" y="24" width="1" height="1" fill="#E78E59" />
<rect x="6" y="25" width="1" height="1" fill="#C85A3E" />
<rect x="7" y="25" width="1" height="1" fill="#C85A3E" />
<rect x="8" y="25" width="1" height="1" fill="#C85A3E" />
<rect x="9" y="25" width="1" height="1" fill="#C85A3E" />
<rect x="10" y="25" width="1" height="1" fill="#C85A3E" />
<rect x="11" y="25" width="1" height="1" fill="#C85A3E" />
<rect x="12" y="25" width="1" height="1" fill="#E3E3E3" />
<rect x="13" y="25" width="1" height="1" fill="#C85A3E" />
<rect x="14" y="25" width="1" height="1" fill="#E3E3E3" />
<rect x="15" y="25" width="1" height="1" fill="#C85A3E" />
<rect x="16" y="25" width="1" height="1" fill="#C85A3E" />
<rect x="17" y="25" width="1" height="1" fill="#C85A3E" />
<rect x="18" y="25" width="1" height="1" fill="#E78E59" />
<rect x="19" y="25" width="1" height="1" fill="#58A6C1" />
<rect x="20" y="25" width="1" height="1" fill="#58A6C1" />
<rect x="21" y="25" width="1" height="1" fill="#58A6C1" />
<rect x="22" y="25" width="1" height="1" fill="#58A6C1" />
<rect x="23" y="25" width="1" height="1" fill="#58A6C1" />
<rect x="24" y="25" width="1" height="1" fill="#E78E59" />
<rect x="25" y="25" width="1" height="1" fill="#E78E59" />
<rect x="26" y="25" width="1" height="1" fill="#E78E59" />
<rect x="27" y="25" width="1" height="1" fill="#E78E59" />
<rect x="28" y="25" width="1" height="1" fill="#E78E59" />
<rect x="29" y="25" width="1" height="1" fill="#E78E59" />
<rect x="8" y="26" width="1" height="1" fill="#C85A3E" />
<rect x="9" y="26" width="1" height="1" fill="#C85A3E" />
<rect x="10" y="26" width="1" height="1" fill="#C85A3E" />
<rect x="11" y="26" width="1" height="1" fill="#C85A3E" />
<rect x="12" y="26" width="1" height="1" fill="#C85A3E" />
<rect x="13" y="26" width="1" height="1" fill="#E3E3E3" />
<rect x="14" y="26" width="1" height="1" fill="#C85A3E" />
<rect x="15" y="26" width="1" height="1" fill="#A57E4C" />
<rect x="16" y="26" width="1" height="1" fill="#A57E4C" />
<rect x="17" y="26" width="1" height="1" fill="#C85A3E" />
<rect x="18" y="26" width="1" height="1" fill="#E78E59" />
<rect x="19" y="26" width="1" height="1" fill="#58A6C1" />
<rect x="20" y="26" width="1" height="1" fill="#58A6C1" />
<rect x="21" y="26" width="1" height="1" fill="#58A6C1" />
<rect x="22" y="26" width="1" height="1" fill="#E78E59" />
<rect x="23" y="26" width="1" height="1" fill="#E78E59" />
<rect x="24" y="26" width="1" height="1" fill="#E78E59" />
<rect x="25" y="26" width="1" height="1" fill="#E78E59" />
<rect x="26" y="26" width="1" height="1" fill="#E78E59" />
<rect x="27" y="26" width="1" height="1" fill="#E78E59" />
<rect x="10" y="27" width="1" height="1" fill="#C85A3E" />
<rect x="11" y="27" width="1" height="1" fill="#C85A3E" />
<rect x="12" y="27" width="1" height="1" fill="#C85A3E" />
<rect x="13" y="27" width="1" height="1" fill="#C85A3E" />
<rect x="14" y="27" width="1" height="1" fill="#C85A3E" />
<rect x="15" y="27" width="1" height="1" fill="#C85A3E" />
<rect x="16" y="27" width="1" height="1" fill="#C85A3E" />
<rect x="17" y="27" width="1" height="1" fill="#A57E4C" />
<rect x="18" y="27" width="1" height="1" fill="#E78E59" />
<rect x="19" y="27" width="1" height="1" fill="#58A6C1" />
<rect x="20" y="27" width="1" height="1" fill="#E78E59" />
<rect x="21" y="27" width="1" height="1" fill="#E78E59" />
<rect x="22" y="27" width="1" height="1" fill="#E78E59" />
<rect x="23" y="27" width="1" height="1" fill="#E78E59" />
<rect x="24" y="27" width="1" height="1" fill="#E78E59" />
<rect x="25" y="27" width="1" height="1" fill="#E78E59" />
<rect x="12" y="28" width="1" height="1" fill="#C85A3E" />
<rect x="13" y="28" width="1" height="1" fill="#C85A3E" />
<rect x="14" y="28" width="1" height="1" fill="#C85A3E" />
<rect x="15" y="28" width="1" height="1" fill="#A57E4C" />
<rect x="16" y="28" width="1" height="1" fill="#A57E4C" />
<rect x="17" y="28" width="1" height="1" fill="#C85A3E" />
<rect x="18" y="28" width="1" height="1" fill="#E78E59" />
<rect x="19" y="28" width="1" height="1" fill="#E78E59" />
<rect x="20" y="28" width="1" height="1" fill="#E78E59" />
<rect x="21" y="28" width="1" height="1" fill="#E78E59" />
<rect x="22" y="28" width="1" height="1" fill="#E78E59" />
<rect x="23" y="28" width="1" height="1" fill="#E78E59" />
<rect x="14" y="29" width="1" height="1" fill="#C85A3E" />
<rect x="15" y="29" width="1" height="1" fill="#C85A3E" />
<rect x="16" y="29" width="1" height="1" fill="#C85A3E" />
<rect x="17" y="29" width="1" height="1" fill="#A57E4C" />
<rect x="18" y="29" width="1" height="1" fill="#E78E59" />
<rect x="19" y="29" width="1" height="1" fill="#E78E59" />
<rect x="20" y="29" width="1" height="1" fill="#E78E59" />
<rect x="21" y="29" width="1" height="1" fill="#E78E59" />
<rect x="16" y="30" width="1" height="1" fill="#C85A3E" />
<rect x="17" y="30" width="1" height="1" fill="#C85A3E" />
<rect x="18" y="30" width="1" height="1" fill="#E78E59" />
<rect x="19" y="30" width="1" height="1" fill="#E78E59" />
</svg>