<?xml version="1.0" standalone="no"?><!DOCTYPE svg PUBLIC "-//W3C//DTD SVG 1.1//EN" "http://www.w3.org/Graphics/SVG/1.1/DTD/svg11.dtd"><svg t="1684061812628" class="icon" viewBox="0 0 1024 1024" version="1.1" xmlns="http://www.w3.org/2000/svg" p-id="14788" xmlns:xlink="http://www.w3.org/1999/xlink" width="128" height="128"><path d="M512 0C296.192 0 64 65.056 64 208v608C64 958.88 296.192 1024 512 1024c215.776 0 448-65.12 448-208v-608C960 65.056 727.744 0 512 0z m384 816c0 79.488-171.936 144-384 144-212.096 0-384-64.512-384-144v-119.552C194.112 764.576 353.6 800 512 800s317.888-35.424 384-103.552V816z m0-192h-0.128c0 0.32 0.128 0.672 0.128 0.992C896 704 724.064 768 512 768S128 704 128 624.992c0-0.32 0.128-0.672 0.128-0.992H128v-119.552C194.112 572.576 353.6 608 512 608s317.888-35.424 384-103.552V624z m0-192h-0.128c0 0.32 0.128 0.672 0.128 0.992C896 512 724.064 576 512 576S128 512 128 432.992c0-0.32 0.128-0.672 0.128-0.992H128v-109.952C211.872 385.952 365.6 416 512 416s300.128-30.048 384-93.952V432zM512 352C299.904 352 128 287.488 128 208 128 128.448 299.904 64 512 64c212.064 0 384 64.448 384 144 0 79.488-171.936 144-384 144z" fill="#1296db" p-id="14789"></path><path d="M800 832m-32 0a32 32 0 1 0 64 0 32 32 0 1 0-64 0Z" fill="#1296db" p-id="14790"></path><path d="M800 640m-32 0a32 32 0 1 0 64 0 32 32 0 1 0-64 0Z" fill="#1296db" p-id="14791"></path><path d="M800 448m-32 0a32 32 0 1 0 64 0 32 32 0 1 0-64 0Z" fill="#1296db" p-id="14792"></path></svg>