<?xml version="1.0" standalone="no"?><!DOCTYPE svg PUBLIC "-//W3C//DTD SVG 1.1//EN" "http://www.w3.org/Graphics/SVG/1.1/DTD/svg11.dtd"><svg t="1692635185899" class="icon" viewBox="0 0 1024 1024" version="1.1" xmlns="http://www.w3.org/2000/svg" p-id="2798" xmlns:xlink="http://www.w3.org/1999/xlink" width="64" height="64"><path d="M133.95080614089972 401.0724182128906L499.563789844513 568.3907623291016c3.9396286010742188 1.7766952514648438 8.188247680664062 2.7036666870117188 12.436866760253908 2.7036666870117188 4.248619079589844 0 8.497238159179688-0.926971435546875 12.436866760253908-2.7036666870117188l365.5357360839844-167.31834411621094c10.814666748046875-4.94384765625 17.53520965576172-15.44952392578125 17.457962036132812-27.345657348632812-0.07724761962890625-11.896133422851562-6.79779052734375-22.324562072753906-17.68970489501953-27.191162109375L524.2830281257629 182.0754165649414a30.234718322753906 30.234718322753906 0 0 0-24.564743041992188 0L134.18254899978643 346.5355987548828C123.29063463211071 351.4021987915039 116.57009172439581 361.83062744140625 116.4928441047669 373.7267608642578c-0.07724761962890625 11.896133422851562 6.6432952880859375 22.324562072753906 17.457962036132812 27.345657348632812zM512.0006566047668 218.9225311279297l344.5243835449219 154.95872497558594-344.5243835449219 157.73963928222656L167.47627305984503 373.8812561035156l344.5243835449219-154.95872497558594z" p-id="2799"></path><path d="M889.8187642097474 619.9921722412109L712.3037343025208 540.1181335449219c-10.660171508789062-4.7893524169921875-22.788047790527344-4.712104797363281-33.3709716796875 0.07724761962890625l-166.8548583984375 76.39789581298828-166.8548583984375-76.39789581298828c-10.582923889160156-4.866600036621094-22.788047790527344-4.866600036621094-33.3709716796875-0.07724761962890625l-177.66952514648438 79.87403869628906C123.29063463211071 624.858772277832 116.57009172439581 635.2872009277344 116.4928441047669 647.1833343505859c-0.07724761962890625 11.896133422851562 6.6432952880859375 22.401809692382812 17.457962036132812 27.345657348632812L499.563789844513 841.8473358154297c3.9396286010742188 1.7766952514648438 8.188247680664062 2.7036666870117188 12.436866760253908 2.7036666870117188 4.248619079589844 0 8.497238159179688-0.926971435546875 12.436866760253908-2.7036666870117188l365.5357360839844-167.31834411621094c10.814666748046875-4.94384765625 17.53520965576172-15.44952392578125 17.457962036132812-27.345657348632812 0-11.896133422851562-6.720542907714844-22.324562072753906-17.612457275390625-27.191162109375z" p-id="2800"></path></svg>