<?xml version="1.0" encoding="utf-8"?>
<!-- Generator: Adobe Illustrator 26.0.0, SVG Export Plug-In . SVG Version: 6.00 Build 0)  -->
<svg version="1.1" id="图层_1" xmlns="http://www.w3.org/2000/svg" xmlns:xlink="http://www.w3.org/1999/xlink" x="0px" y="0px"
	 viewBox="0 0 64 64" style="enable-background:new 0 0 64 64;" xml:space="preserve">
<style type="text/css">
	.st0{fill:#2C2C2C;}
</style>
<path class="st0" d="M44.8,38.1l-7-5.2c-1.1-0.8-2.5-0.8-3.6,0L28,37.5l-8.2-6.6c-1-0.8-2.5-0.9-3.6-0.1L8,36.3V14h44v22
	c0,1.1,0.9,2,2,2s2-0.9,2-2V13.8c0-2.1-1.7-3.8-3.8-3.8H7.8C5.7,10,4,11.7,4,13.8v36.3C4,52.3,5.7,54,7.8,54H38c1.1,0,2-0.9,2-2
	s-0.9-2-2-2H8v-8.9l9.9-6.7l10.1,8l8-6l6.4,4.8c0.9,0.7,2.1,0.5,2.8-0.4C45.9,40,45.7,38.8,44.8,38.1z"/>
<path class="st0" d="M36,24c0,3.3,2.7,6,6,6s6-2.7,6-6s-2.7-6-6-6S36,20.7,36,24z M44,24c0,1.1-0.9,2-2,2s-2-0.9-2-2s0.9-2,2-2
	S44,22.9,44,24z"/>
<path class="st0" d="M64,54.1c0,1.3-0.2,2.6-0.6,3.8c-1.5-4.4-5.3-7.5-9.9-7.5v1.9c0,0.7-0.4,1.4-1,1.7c-0.2,0.1-0.5,0.2-0.8,0.2
	c-0.4,0-0.7-0.1-1.1-0.4l-7-5.6c-0.4-0.3-0.7-0.9-0.7-1.5s0.3-1.1,0.7-1.5l7-5.6c0.3-0.2,0.7-0.4,1.1-0.4c0.3,0,0.5,0.1,0.8,0.2
	c0.6,0.3,1,1,1,1.7V43C59.2,42.8,64,47.9,64,54.1z"/>
</svg>
