<?xml version="1.0" standalone="no"?><!DOCTYPE svg PUBLIC "-//W3C//DTD SVG 1.1//EN" "http://www.w3.org/Graphics/SVG/1.1/DTD/svg11.dtd"><svg t="1692886227827" class="icon" viewBox="0 0 1024 1024" version="1.1" xmlns="http://www.w3.org/2000/svg" p-id="8307" xmlns:xlink="http://www.w3.org/1999/xlink" width="256" height="256"><path d="M170.666667 128a42.666667 42.666667 0 0 0 0 85.333333h597.333333a42.666667 42.666667 0 0 1 42.666667 42.666667v206.421333L758.101333 399.36a42.666667 42.666667 0 1 0-65.536 54.613333l95.274667 114.346667a85.333333 85.333333 0 0 0 130.986667 0.085333l95.232-113.92a42.666667 42.666667 0 1 0-65.450667-54.741333L896 462.677333V256a128 128 0 0 0-128-128H170.666667zM853.333333 896a42.666667 42.666667 0 1 0 0-85.333333H256a42.666667 42.666667 0 0 1-42.666667-42.666667v-266.410667l52.608 62.933334a42.666667 42.666667 0 0 0 65.450667-54.741334l-95.189333-113.92a85.333333 85.333333 0 0 0-131.029334 0.085334L9.898667 510.293333a42.666667 42.666667 0 0 0 65.536 54.613334L128 501.845333V768a128 128 0 0 0 128 128h597.333333z" fill="#303133" p-id="8308" cursorshover="true"></path></svg>