<?xml version="1.0" encoding="UTF-8" ?>
<svg version="1.1" width="32" height="32" xmlns="http://www.w3.org/2000/svg" shape-rendering="crispEdges">
<rect x="20" y="4" width="1" height="1" fill="#F95360" />
<rect x="21" y="4" width="1" height="1" fill="#F76874" />
<rect x="19" y="5" width="1" height="1" fill="#F95360" />
<rect x="20" y="5" width="1" height="1" fill="#F95360" />
<rect x="21" y="5" width="1" height="1" fill="#F95360" />
<rect x="22" y="5" width="1" height="1" fill="#F76874" />
<rect x="18" y="6" width="1" height="1" fill="#DD081A" />
<rect x="19" y="6" width="1" height="1" fill="#F95360" />
<rect x="20" y="6" width="1" height="1" fill="#F95360" />
<rect x="21" y="6" width="1" height="1" fill="#F95360" />
<rect x="22" y="6" width="1" height="1" fill="#F95360" />
<rect x="23" y="6" width="1" height="1" fill="#F77C86" />
<rect x="16" y="7" width="1" height="1" fill="#FFC766" opacity="0.250980" />
<rect x="17" y="7" width="1" height="1" fill="#FFD996" />
<rect x="18" y="7" width="1" height="1" fill="#A87729" />
<rect x="19" y="7" width="1" height="1" fill="#DD081A" />
<rect x="20" y="7" width="1" height="1" fill="#F95360" />
<rect x="21" y="7" width="1" height="1" fill="#F95360" />
<rect x="22" y="7" width="1" height="1" fill="#F95360" />
<rect x="23" y="7" width="1" height="1" fill="#F77C86" />
<rect x="24" y="7" width="1" height="1" fill="#F77C86" />
<rect x="15" y="8" width="1" height="1" fill="#FFC766" opacity="0.250980" />
<rect x="16" y="8" width="1" height="1" fill="#FFD996" />
<rect x="17" y="8" width="1" height="1" fill="#FFCC72" />
<rect x="18" y="8" width="1" height="1" fill="#ED9D29" />
<rect x="19" y="8" width="1" height="1" fill="#A87729" />
<rect x="20" y="8" width="1" height="1" fill="#DD081A" />
<rect x="21" y="8" width="1" height="1" fill="#F95360" />
<rect x="22" y="8" width="1" height="1" fill="#F95360" />
<rect x="23" y="8" width="1" height="1" fill="#F95360" />
<rect x="24" y="8" width="1" height="1" fill="#F77C86" />
<rect x="25" y="8" width="1" height="1" fill="#F77C86" />
<rect x="14" y="9" width="1" height="1" fill="#FFC766" opacity="0.250980" />
<rect x="15" y="9" width="1" height="1" fill="#FFD996" />
<rect x="16" y="9" width="1" height="1" fill="#FFCC72" />
<rect x="17" y="9" width="1" height="1" fill="#ED9D29" />
<rect x="18" y="9" width="1" height="1" fill="#FFCC72" />
<rect x="19" y="9" width="1" height="1" fill="#FFCC72" />
<rect x="20" y="9" width="1" height="1" fill="#A87729" />
<rect x="21" y="9" width="1" height="1" fill="#DD081A" />
<rect x="22" y="9" width="1" height="1" fill="#F95360" />
<rect x="23" y="9" width="1" height="1" fill="#F95360" />
<rect x="24" y="9" width="1" height="1" fill="#F95360" />
<rect x="25" y="9" width="1" height="1" fill="#F77C86" />
<rect x="13" y="10" width="1" height="1" fill="#FFC766" opacity="0.250980" />
<rect x="14" y="10" width="1" height="1" fill="#FFD996" />
<rect x="15" y="10" width="1" height="1" fill="#FFCC72" />
<rect x="16" y="10" width="1" height="1" fill="#ED9D29" />
<rect x="17" y="10" width="1" height="1" fill="#FFCC72" />
<rect x="18" y="10" width="1" height="1" fill="#FFCC72" />
<rect x="19" y="10" width="1" height="1" fill="#ED9D29" />
<rect x="20" y="10" width="1" height="1" fill="#FFCC72" />
<rect x="21" y="10" width="1" height="1" fill="#A87729" />
<rect x="22" y="10" width="1" height="1" fill="#DD081A" />
<rect x="23" y="10" width="1" height="1" fill="#F95360" />
<rect x="24" y="10" width="1" height="1" fill="#F77C86" />
<rect x="25" y="10" width="1" height="1" fill="#F77C86" opacity="0.117647" />
<rect x="12" y="11" width="1" height="1" fill="#FFC766" opacity="0.250980" />
<rect x="13" y="11" width="1" height="1" fill="#FFD996" />
<rect x="14" y="11" width="1" height="1" fill="#FFCC72" />
<rect x="15" y="11" width="1" height="1" fill="#ED9D29" />
<rect x="16" y="11" width="1" height="1" fill="#FFCC72" />
<rect x="17" y="11" width="1" height="1" fill="#FFCC72" />
<rect x="18" y="11" width="1" height="1" fill="#ED9D29" />
<rect x="19" y="11" width="1" height="1" fill="#FFCC72" />
<rect x="20" y="11" width="1" height="1" fill="#FFCC72" />
<rect x="21" y="11" width="1" height="1" fill="#ED9D29" />
<rect x="22" y="11" width="1" height="1" fill="#A87729" />
<rect x="23" y="11" width="1" height="1" fill="#DD081A" />
<rect x="24" y="11" width="1" height="1" fill="#F77C86" opacity="0.117647" />
<rect x="11" y="12" width="1" height="1" fill="#FFC766" opacity="0.250980" />
<rect x="12" y="12" width="1" height="1" fill="#FFD996" />
<rect x="13" y="12" width="1" height="1" fill="#FFCC72" />
<rect x="14" y="12" width="1" height="1" fill="#ED9D29" />
<rect x="15" y="12" width="1" height="1" fill="#FFCC72" />
<rect x="16" y="12" width="1" height="1" fill="#FFCC72" />
<rect x="17" y="12" width="1" height="1" fill="#ED9D29" />
<rect x="18" y="12" width="1" height="1" fill="#FFCC72" />
<rect x="19" y="12" width="1" height="1" fill="#FFCC72" />
<rect x="20" y="12" width="1" height="1" fill="#ED9D29" />
<rect x="21" y="12" width="1" height="1" fill="#FFCC72" />
<rect x="22" y="12" width="1" height="1" fill="#FFC766" />
<rect x="23" y="12" width="1" height="1" fill="#FFC766" opacity="0.250980" />
<rect x="10" y="13" width="1" height="1" fill="#FFC766" opacity="0.250980" />
<rect x="11" y="13" width="1" height="1" fill="#FFD996" />
<rect x="12" y="13" width="1" height="1" fill="#FFCC72" />
<rect x="13" y="13" width="1" height="1" fill="#ED9D29" />
<rect x="14" y="13" width="1" height="1" fill="#FFCC72" />
<rect x="15" y="13" width="1" height="1" fill="#FFCC72" />
<rect x="16" y="13" width="1" height="1" fill="#ED9D29" />
<rect x="17" y="13" width="1" height="1" fill="#FFCC72" />
<rect x="18" y="13" width="1" height="1" fill="#FFCC72" />
<rect x="19" y="13" width="1" height="1" fill="#ED9D29" />
<rect x="20" y="13" width="1" height="1" fill="#FFCC72" />
<rect x="21" y="13" width="1" height="1" fill="#FFC766" />
<rect x="22" y="13" width="1" height="1" fill="#FFC766" opacity="0.250980" />
<rect x="9" y="14" width="1" height="1" fill="#FFC766" opacity="0.250980" />
<rect x="10" y="14" width="1" height="1" fill="#FFD996" />
<rect x="11" y="14" width="1" height="1" fill="#FFCC72" />
<rect x="12" y="14" width="1" height="1" fill="#ED9D29" />
<rect x="13" y="14" width="1" height="1" fill="#FFCC72" />
<rect x="14" y="14" width="1" height="1" fill="#FFCC72" />
<rect x="15" y="14" width="1" height="1" fill="#ED9D29" />
<rect x="16" y="14" width="1" height="1" fill="#FFCC72" />
<rect x="17" y="14" width="1" height="1" fill="#FFCC72" />
<rect x="18" y="14" width="1" height="1" fill="#ED9D29" />
<rect x="19" y="14" width="1" height="1" fill="#FFCC72" />
<rect x="20" y="14" width="1" height="1" fill="#FFC766" />
<rect x="21" y="14" width="1" height="1" fill="#FFC766" opacity="0.250980" />
<rect x="8" y="15" width="1" height="1" fill="#FFC766" opacity="0.250980" />
<rect x="9" y="15" width="1" height="1" fill="#FFD996" />
<rect x="10" y="15" width="1" height="1" fill="#FFCC72" />
<rect x="11" y="15" width="1" height="1" fill="#ED9D29" />
<rect x="12" y="15" width="1" height="1" fill="#FFCC72" />
<rect x="13" y="15" width="1" height="1" fill="#FFCC72" />
<rect x="14" y="15" width="1" height="1" fill="#ED9D29" />
<rect x="15" y="15" width="1" height="1" fill="#FFCC72" />
<rect x="16" y="15" width="1" height="1" fill="#FFCC72" />
<rect x="17" y="15" width="1" height="1" fill="#ED9D29" />
<rect x="18" y="15" width="1" height="1" fill="#FFCC72" />
<rect x="19" y="15" width="1" height="1" fill="#FFC766" />
<rect x="20" y="15" width="1" height="1" fill="#FFC766" opacity="0.250980" />
<rect x="7" y="16" width="1" height="1" fill="#FFC766" opacity="0.250980" />
<rect x="8" y="16" width="1" height="1" fill="#FFD996" />
<rect x="9" y="16" width="1" height="1" fill="#FFCC72" />
<rect x="10" y="16" width="1" height="1" fill="#ED9D29" />
<rect x="11" y="16" width="1" height="1" fill="#FFCC72" />
<rect x="12" y="16" width="1" height="1" fill="#FFCC72" />
<rect x="13" y="16" width="1" height="1" fill="#ED9D29" />
<rect x="14" y="16" width="1" height="1" fill="#FFCC72" />
<rect x="15" y="16" width="1" height="1" fill="#FFCC72" />
<rect x="16" y="16" width="1" height="1" fill="#ED9D29" />
<rect x="17" y="16" width="1" height="1" fill="#FFCC72" />
<rect x="18" y="16" width="1" height="1" fill="#FFC766" />
<rect x="19" y="16" width="1" height="1" fill="#FFC766" opacity="0.250980" />
<rect x="6" y="17" width="1" height="1" fill="#FFC766" opacity="0.250980" />
<rect x="7" y="17" width="1" height="1" fill="#FFD996" />
<rect x="8" y="17" width="1" height="1" fill="#FFCC72" />
<rect x="9" y="17" width="1" height="1" fill="#ED9D29" />
<rect x="10" y="17" width="1" height="1" fill="#FFCC72" />
<rect x="11" y="17" width="1" height="1" fill="#FFCC72" />
<rect x="12" y="17" width="1" height="1" fill="#ED9D29" />
<rect x="13" y="17" width="1" height="1" fill="#FFCC72" />
<rect x="14" y="17" width="1" height="1" fill="#FFCC72" />
<rect x="15" y="17" width="1" height="1" fill="#ED9D29" />
<rect x="16" y="17" width="1" height="1" fill="#FFCC72" />
<rect x="17" y="17" width="1" height="1" fill="#FFC766" />
<rect x="18" y="17" width="1" height="1" fill="#FFC766" opacity="0.250980" />
<rect x="5" y="18" width="1" height="1" fill="#FFC766" opacity="0.250980" />
<rect x="6" y="18" width="1" height="1" fill="#FFD996" />
<rect x="7" y="18" width="1" height="1" fill="#FFCC72" />
<rect x="8" y="18" width="1" height="1" fill="#ED9D29" />
<rect x="9" y="18" width="1" height="1" fill="#FFCC72" />
<rect x="10" y="18" width="1" height="1" fill="#FFCC72" />
<rect x="11" y="18" width="1" height="1" fill="#ED9D29" />
<rect x="12" y="18" width="1" height="1" fill="#FFCC72" />
<rect x="13" y="18" width="1" height="1" fill="#FFCC72" />
<rect x="14" y="18" width="1" height="1" fill="#ED9D29" />
<rect x="15" y="18" width="1" height="1" fill="#FFCC72" />
<rect x="16" y="18" width="1" height="1" fill="#FFC766" />
<rect x="17" y="18" width="1" height="1" fill="#FFC766" opacity="0.250980" />
<rect x="4" y="19" width="1" height="1" fill="#FFC766" opacity="0.250980" />
<rect x="5" y="19" width="1" height="1" fill="#FFD996" />
<rect x="6" y="19" width="1" height="1" fill="#FFCC72" />
<rect x="7" y="19" width="1" height="1" fill="#ED9D29" />
<rect x="8" y="19" width="1" height="1" fill="#FFCC72" />
<rect x="9" y="19" width="1" height="1" fill="#FFCC72" />
<rect x="10" y="19" width="1" height="1" fill="#ED9D29" />
<rect x="11" y="19" width="1" height="1" fill="#FFCC72" />
<rect x="12" y="19" width="1" height="1" fill="#FFCC72" />
<rect x="13" y="19" width="1" height="1" fill="#ED9D29" />
<rect x="14" y="19" width="1" height="1" fill="#FFCC72" />
<rect x="15" y="19" width="1" height="1" fill="#FFC766" />
<rect x="16" y="19" width="1" height="1" fill="#FFC766" opacity="0.250980" />
<rect x="3" y="20" width="1" height="1" fill="#FFC766" opacity="0.250980" />
<rect x="4" y="20" width="1" height="1" fill="#FFD996" />
<rect x="5" y="20" width="1" height="1" fill="#FFCC72" />
<rect x="6" y="20" width="1" height="1" fill="#ED9D29" />
<rect x="7" y="20" width="1" height="1" fill="#FFCC72" />
<rect x="8" y="20" width="1" height="1" fill="#FFCC72" />
<rect x="9" y="20" width="1" height="1" fill="#ED9D29" />
<rect x="10" y="20" width="1" height="1" fill="#FFCC72" />
<rect x="11" y="20" width="1" height="1" fill="#FFCC72" />
<rect x="12" y="20" width="1" height="1" fill="#ED9D29" />
<rect x="13" y="20" width="1" height="1" fill="#FFCC72" />
<rect x="14" y="20" width="1" height="1" fill="#FFC766" />
<rect x="15" y="20" width="1" height="1" fill="#FFC766" opacity="0.250980" />
<rect x="3" y="21" width="1" height="1" fill="#E5E5E5" />
<rect x="4" y="21" width="1" height="1" fill="#FFCC72" />
<rect x="5" y="21" width="1" height="1" fill="#ED9D29" />
<rect x="6" y="21" width="1" height="1" fill="#FFCC72" />
<rect x="7" y="21" width="1" height="1" fill="#FFCC72" />
<rect x="8" y="21" width="1" height="1" fill="#ED9D29" />
<rect x="9" y="21" width="1" height="1" fill="#FFCC72" />
<rect x="10" y="21" width="1" height="1" fill="#FFCC72" />
<rect x="11" y="21" width="1" height="1" fill="#ED9D29" />
<rect x="12" y="21" width="1" height="1" fill="#FFCC72" />
<rect x="13" y="21" width="1" height="1" fill="#FFC766" />
<rect x="14" y="21" width="1" height="1" fill="#FFC766" opacity="0.250980" />
<rect x="3" y="22" width="1" height="1" fill="#E5E5E5" />
<rect x="4" y="22" width="1" height="1" fill="#E5E5E5" />
<rect x="5" y="22" width="1" height="1" fill="#FFCC72" />
<rect x="6" y="22" width="1" height="1" fill="#FFCC72" />
<rect x="7" y="22" width="1" height="1" fill="#ED9D29" />
<rect x="8" y="22" width="1" height="1" fill="#FFCC72" />
<rect x="9" y="22" width="1" height="1" fill="#FFCC72" />
<rect x="10" y="22" width="1" height="1" fill="#ED9D29" />
<rect x="11" y="22" width="1" height="1" fill="#FFCC72" />
<rect x="12" y="22" width="1" height="1" fill="#FFC766" />
<rect x="13" y="22" width="1" height="1" fill="#FFC766" opacity="0.250980" />
<rect x="3" y="23" width="1" height="1" fill="#E5E5E5" />
<rect x="4" y="23" width="1" height="1" fill="#E5E5E5" />
<rect x="5" y="23" width="1" height="1" fill="#E5E5E5" />
<rect x="6" y="23" width="1" height="1" fill="#ED9D29" />
<rect x="7" y="23" width="1" height="1" fill="#FFCC72" />
<rect x="8" y="23" width="1" height="1" fill="#FFCC72" />
<rect x="9" y="23" width="1" height="1" fill="#ED9D29" />
<rect x="10" y="23" width="1" height="1" fill="#FFCC72" />
<rect x="11" y="23" width="1" height="1" fill="#FFC766" />
<rect x="12" y="23" width="1" height="1" fill="#FFC766" opacity="0.250980" />
<rect x="3" y="24" width="1" height="1" fill="#E5E5E5" />
<rect x="4" y="24" width="1" height="1" fill="#E5E5E5" />
<rect x="5" y="24" width="1" height="1" fill="#E5E5E5" />
<rect x="6" y="24" width="1" height="1" fill="#E5E5E5" />
<rect x="7" y="24" width="1" height="1" fill="#FFCC72" />
<rect x="8" y="24" width="1" height="1" fill="#ED9D29" />
<rect x="9" y="24" width="1" height="1" fill="#FFCC72" />
<rect x="10" y="24" width="1" height="1" fill="#FFC766" />
<rect x="11" y="24" width="1" height="1" fill="#FFC766" opacity="0.250980" />
<rect x="13" y="24" width="1" height="1" fill="#9CE0EF" />
<rect x="14" y="24" width="1" height="1" fill="#9CE0EF" />
<rect x="15" y="24" width="1" height="1" fill="#9CE0EF" />
<rect x="19" y="24" width="1" height="1" fill="#9CE0EF" />
<rect x="20" y="24" width="1" height="1" fill="#9CE0EF" />
<rect x="21" y="24" width="1" height="1" fill="#9CE0EF" />
<rect x="25" y="24" width="1" height="1" fill="#9CE0EF" />
<rect x="26" y="24" width="1" height="1" fill="#9CE0EF" />
<rect x="27" y="24" width="1" height="1" fill="#9CE0EF" />
<rect x="3" y="25" width="1" height="1" fill="#5D5D5D" />
<rect x="4" y="25" width="1" height="1" fill="#E5E5E5" />
<rect x="5" y="25" width="1" height="1" fill="#E5E5E5" />
<rect x="6" y="25" width="1" height="1" fill="#D3D3D3" />
<rect x="7" y="25" width="1" height="1" fill="#D3D3D3" />
<rect x="8" y="25" width="1" height="1" fill="#FFCC72" />
<rect x="9" y="25" width="1" height="1" fill="#FFC766" />
<rect x="10" y="25" width="1" height="1" fill="#FFC766" opacity="0.250980" />
<rect x="13" y="25" width="1" height="1" fill="#9CE0EF" />
<rect x="14" y="25" width="1" height="1" fill="#9CE0EF" />
<rect x="15" y="25" width="1" height="1" fill="#9CE0EF" />
<rect x="19" y="25" width="1" height="1" fill="#9CE0EF" />
<rect x="20" y="25" width="1" height="1" fill="#9CE0EF" />
<rect x="21" y="25" width="1" height="1" fill="#9CE0EF" />
<rect x="25" y="25" width="1" height="1" fill="#9CE0EF" />
<rect x="26" y="25" width="1" height="1" fill="#9CE0EF" />
<rect x="27" y="25" width="1" height="1" fill="#9CE0EF" />
<rect x="3" y="26" width="1" height="1" fill="#272727" />
<rect x="4" y="26" width="1" height="1" fill="#5D5D5D" />
<rect x="5" y="26" width="1" height="1" fill="#D3D3D3" />
<rect x="6" y="26" width="1" height="1" fill="#D3D3D3" />
<rect x="7" y="26" width="1" height="1" fill="#D3D3D3" />
<rect x="8" y="26" width="1" height="1" fill="#D3D3D3" />
<rect x="9" y="26" width="1" height="1" fill="#D3D3D3" />
<rect x="13" y="26" width="1" height="1" fill="#9CE0EF" />
<rect x="14" y="26" width="1" height="1" fill="#9CE0EF" />
<rect x="15" y="26" width="1" height="1" fill="#9CE0EF" />
<rect x="19" y="26" width="1" height="1" fill="#9CE0EF" />
<rect x="20" y="26" width="1" height="1" fill="#9CE0EF" />
<rect x="21" y="26" width="1" height="1" fill="#9CE0EF" />
<rect x="25" y="26" width="1" height="1" fill="#9CE0EF" />
<rect x="26" y="26" width="1" height="1" fill="#9CE0EF" />
<rect x="27" y="26" width="1" height="1" fill="#9CE0EF" />
</svg>