<?xml version="1.0" standalone="no"?><!DOCTYPE svg PUBLIC "-//W3C//DTD SVG 1.1//EN" "http://www.w3.org/Graphics/SVG/1.1/DTD/svg11.dtd"><svg t="1687427586779" class="icon" viewBox="0 0 1024 1024" version="1.1" xmlns="http://www.w3.org/2000/svg" p-id="1937" xmlns:xlink="http://www.w3.org/1999/xlink" width="64" height="64"><path d="M642.7 592H429.8c-11 0-20-9-20-20s9-20 20-20h212.9c11 0 20 9 20 20s-9 20-20 20z" fill="#515151" p-id="1938"></path><path d="M536.2 699.8c-11 0-20-9-20-20V463.6c0-11 9-20 20-20s20 9 20 20v216.2c0 11-8.9 20-20 20z" fill="#515151" p-id="1939"></path><path d="M755.4 802.6H234.1c-36.2 0-65.6-29.4-65.6-65.6V263.2c0-32.3 26.3-58.5 58.5-58.5h96c19.3 0 37.8 5.8 53.6 16.8l50.8 35.4c4.3 3 7.5 5.7 9.7 7.6 1 0.8 2.1 1.8 2.7 2.2 0.4 0.1 1.7 0.3 4.2 0.3l310.6 2c31.7 0.2 57.5 26.2 57.5 57.9v27h-40v-27c0-9.8-8-17.8-17.8-17.9l-310.6-2c-17.2-0.1-24.3-5.1-32.5-12-1.9-1.6-3.9-3.4-6.7-5.3l-50.8-35.4c-9.1-6.3-19.7-9.7-30.7-9.7h-96c-10.2 0-18.5 8.3-18.5 18.5V737c0 14.1 11.5 25.6 25.6 25.6h521.2v40z" fill="#515151" p-id="1940"></path><path d="M755.2 802.6H252c-18.6 0-35.6-8.6-46.6-23.5s-14.2-33.7-8.7-51.5L299.9 395c7.6-24.4 29.8-40.7 55.3-40.7h503.2c18.6 0 35.6 8.6 46.6 23.5 11 15 14.2 33.7 8.7 51.5L810.5 761.8c-7.5 24.4-29.7 40.8-55.3 40.8z m-400-408.4c-7.9 0-14.7 5.1-17.1 12.6L234.9 739.4c-1.7 5.5-0.7 11.3 2.7 15.9 3.4 4.6 8.7 7.3 14.4 7.3h503.2c7.9 0 14.7-5.1 17.1-12.6l103.2-332.6c1.7-5.5 0.7-11.3-2.7-15.9-3.4-4.6-8.7-7.3-14.4-7.3H355.2z" fill="#515151" p-id="1941"></path></svg>