<?xml version="1.0" standalone="no"?><!DOCTYPE svg PUBLIC "-//W3C//DTD SVG 1.1//EN" "http://www.w3.org/Graphics/SVG/1.1/DTD/svg11.dtd"><svg t="1693112221482" class="icon" viewBox="0 0 1024 1024" version="1.1" xmlns="http://www.w3.org/2000/svg" p-id="3959" xmlns:xlink="http://www.w3.org/1999/xlink" width="256" height="256"><path d="M1024.02752 512c0-14.16-6.128-26.896-15.888-35.68l-160-144a48 48 0 0 0-64.224 71.36L850.93952 464H560.02752V173.088l60.32 67.024a48 48 0 1 0 71.36-64.224l-144-160C538.93952 6.144 526.18752 0 512.02752 0s-26.896 6.144-35.68 15.888l-144 160a48 48 0 0 0 71.36 64.224L464.02752 173.088V464H173.11552l67.024-60.32a48 48 0 1 0-64.224-71.36l-160 144a47.952 47.952 0 0 0 0 71.36l160 144a48 48 0 0 0 64.224-71.36L173.11552 560H464.02752v290.912l-60.32-67.008a48 48 0 1 0-71.36 64.208l144 160c8.784 9.76 21.52 15.888 35.68 15.888s26.912-6.128 35.68-15.888l144-160a48 48 0 0 0-71.36-64.224L560.02752 850.912V560h290.912l-67.008 60.32a48 48 0 1 0 64.208 71.36l160-144A47.84 47.84 0 0 0 1024.02752 512z" fill="" p-id="3960"></path></svg>