<?xml version="1.0" standalone="no"?><!DOCTYPE svg PUBLIC "-//W3C//DTD SVG 1.1//EN" "http://www.w3.org/Graphics/SVG/1.1/DTD/svg11.dtd"><svg t="1692550389103" class="icon" viewBox="0 0 1024 1024" version="1.1" xmlns="http://www.w3.org/2000/svg" p-id="12583" xmlns:xlink="http://www.w3.org/1999/xlink" width="64" height="64"><path d="M539.75 706.25h-333c-15.32 0-27.75-12.43-27.75-27.75v-333c0-15.32 12.43-27.75 27.75-27.75h333c15.32 0 27.75 12.43 27.75 27.75s-12.43 27.75-27.75 27.75H234.5v277.5h305.25c15.32 0 27.75 12.43 27.75 27.75s-12.43 27.75-27.75 27.75z m-222-222c-15.32 0-27.75 12.43-27.75 27.75s12.43 27.75 27.75 27.75h166.5c15.32 0 27.75-12.43 27.75-27.75s-12.43-27.75-27.75-27.75h-166.5z m444 333H678.5v-610.5h83.25c15.32 0 27.75-12.43 27.75-27.75s-12.43-27.75-27.75-27.75h-222c-15.32 0-27.75 12.43-27.75 27.75s12.43 27.75 27.75 27.75H623v610.5h-83.25c-15.32 0-27.75 12.43-27.75 27.75s12.43 27.75 27.75 27.75h222c15.32 0 27.75-12.43 27.75-27.75s-12.43-27.75-27.75-27.75z m55.5-499.5h-55.5c-15.32 0-27.75 12.43-27.75 27.75s12.43 27.75 27.75 27.75h27.75v277.5h-27.75c-15.32 0-27.75 12.43-27.75 27.75s12.43 27.75 27.75 27.75h55.5c15.32 0 27.75-12.43 27.75-27.75v-333c0-15.32-12.43-27.75-27.75-27.75z" p-id="12584"></path><path d="M761.75 874.37h-222c-16.19 0-29.37-13.17-29.37-29.37 0-16.19 13.17-29.37 29.37-29.37h81.63V208.37h-81.63c-16.19 0-29.37-13.17-29.37-29.37s13.17-29.37 29.37-29.37h222c16.19 0 29.37 13.17 29.37 29.37s-13.17 29.37-29.37 29.37h-81.63v607.27h81.63c16.19 0 29.37 13.17 29.37 29.37 0 16.18-13.18 29.36-29.37 29.36z m-222-55.5c-14.41 0-26.13 11.72-26.13 26.13 0 14.41 11.72 26.13 26.13 26.13h222c14.41 0 26.13-11.72 26.13-26.13 0-14.41-11.72-26.13-26.13-26.13h-84.87V205.13h84.87c14.41 0 26.13-11.72 26.13-26.13 0-14.41-11.72-26.13-26.13-26.13h-222c-14.41 0-26.13 11.72-26.13 26.13 0 14.41 11.72 26.13 26.13 26.13h84.87v613.74h-84.87z m277.5-111h-55.5c-16.19 0-29.37-13.17-29.37-29.37 0-16.19 13.17-29.37 29.37-29.37h26.13V374.87h-26.13c-16.19 0-29.37-13.17-29.37-29.37 0-16.19 13.17-29.37 29.37-29.37h55.5c16.19 0 29.37 13.17 29.37 29.37v333c0 16.19-13.18 29.37-29.37 29.37z m-55.5-55.5c-14.41 0-26.13 11.72-26.13 26.13 0 14.41 11.72 26.13 26.13 26.13h55.5c14.41 0 26.13-11.72 26.13-26.13v-333c0-14.41-11.72-26.13-26.13-26.13h-55.5c-14.41 0-26.13 11.72-26.13 26.13 0 14.41 11.72 26.13 26.13 26.13h29.37v280.74h-29.37z m-222 55.5h-333c-16.19 0-29.37-13.17-29.37-29.37v-333c0-16.19 13.17-29.37 29.37-29.37h333c16.19 0 29.37 13.17 29.37 29.37 0 16.19-13.17 29.37-29.37 29.37H236.12v274.26h303.63c16.19 0 29.37 13.17 29.37 29.37 0 16.19-13.18 29.37-29.37 29.37z m-333-388.5c-14.41 0-26.13 11.72-26.13 26.13v333c0 14.41 11.72 26.13 26.13 26.13h333c14.41 0 26.13-11.72 26.13-26.13 0-14.41-11.72-26.13-26.13-26.13H232.88V371.63h306.87c14.41 0 26.13-11.72 26.13-26.13 0-14.41-11.72-26.13-26.13-26.13h-333z m277.5 222h-166.5c-16.19 0-29.37-13.17-29.37-29.37 0-16.19 13.17-29.37 29.37-29.37h166.5c16.19 0 29.37 13.17 29.37 29.37 0 16.19-13.18 29.37-29.37 29.37z m-166.5-55.5c-14.41 0-26.13 11.72-26.13 26.13 0 14.41 11.72 26.13 26.13 26.13h166.5c14.41 0 26.13-11.72 26.13-26.13 0-14.41-11.72-26.13-26.13-26.13h-166.5z" p-id="12585"></path></svg>