<?xml version="1.0" encoding="UTF-8" ?>
<svg version="1.1" width="32" height="32" xmlns="http://www.w3.org/2000/svg" shape-rendering="crispEdges">
<rect x="10" y="3" width="1" height="1" fill="#014B85" />
<rect x="11" y="3" width="1" height="1" fill="#014B85" />
<rect x="12" y="3" width="1" height="1" fill="#014B85" />
<rect x="13" y="3" width="1" height="1" fill="#014B85" />
<rect x="14" y="3" width="1" height="1" fill="#014B85" />
<rect x="15" y="3" width="1" height="1" fill="#014B85" />
<rect x="16" y="3" width="1" height="1" fill="#014B85" />
<rect x="17" y="3" width="1" height="1" fill="#014B85" />
<rect x="18" y="3" width="1" height="1" fill="#014B85" />
<rect x="19" y="3" width="1" height="1" fill="#014B85" />
<rect x="20" y="3" width="1" height="1" fill="#014B85" />
<rect x="21" y="3" width="1" height="1" fill="#014B85" />
<rect x="22" y="3" width="1" height="1" fill="#014B85" />
<rect x="23" y="3" width="1" height="1" fill="#014B85" />
<rect x="9" y="4" width="1" height="1" fill="#014B85" />
<rect x="10" y="4" width="1" height="1" fill="#014F8D" />
<rect x="11" y="4" width="1" height="1" fill="#014F8D" />
<rect x="12" y="4" width="1" height="1" fill="#01579B" />
<rect x="13" y="4" width="1" height="1" fill="#424242" />
<rect x="14" y="4" width="1" height="1" fill="#D9D9D9" />
<rect x="15" y="4" width="1" height="1" fill="#EEEEEE" />
<rect x="16" y="4" width="1" height="1" fill="#EEEEEE" />
<rect x="17" y="4" width="1" height="1" fill="#EEEEEE" />
<rect x="18" y="4" width="1" height="1" fill="#EEEEEE" />
<rect x="19" y="4" width="1" height="1" fill="#424242" />
<rect x="20" y="4" width="1" height="1" fill="#424242" />
<rect x="21" y="4" width="1" height="1" fill="#EEEEEE" />
<rect x="22" y="4" width="1" height="1" fill="#424242" />
<rect x="23" y="4" width="1" height="1" fill="#01579B" />
<rect x="24" y="4" width="1" height="1" fill="#014B85" />
<rect x="9" y="5" width="1" height="1" fill="#014B85" />
<rect x="10" y="5" width="1" height="1" fill="#014F8D" />
<rect x="11" y="5" width="1" height="1" fill="#014F8D" />
<rect x="12" y="5" width="1" height="1" fill="#01579B" />
<rect x="13" y="5" width="1" height="1" fill="#424242" />
<rect x="14" y="5" width="1" height="1" fill="#D9D9D9" />
<rect x="15" y="5" width="1" height="1" fill="#D9D9D9" />
<rect x="16" y="5" width="1" height="1" fill="#EEEEEE" />
<rect x="17" y="5" width="1" height="1" fill="#EEEEEE" />
<rect x="18" y="5" width="1" height="1" fill="#EEEEEE" />
<rect x="19" y="5" width="1" height="1" fill="#424242" />
<rect x="20" y="5" width="1" height="1" fill="#424242" />
<rect x="21" y="5" width="1" height="1" fill="#EEEEEE" />
<rect x="22" y="5" width="1" height="1" fill="#424242" />
<rect x="23" y="5" width="1" height="1" fill="#01579B" />
<rect x="24" y="5" width="1" height="1" fill="#01579B" />
<rect x="25" y="5" width="1" height="1" fill="#014B85" />
<rect x="9" y="6" width="1" height="1" fill="#014B85" />
<rect x="10" y="6" width="1" height="1" fill="#014F8D" />
<rect x="11" y="6" width="1" height="1" fill="#014F8D" />
<rect x="12" y="6" width="1" height="1" fill="#01579B" />
<rect x="13" y="6" width="1" height="1" fill="#424242" />
<rect x="14" y="6" width="1" height="1" fill="#D9D9D9" />
<rect x="15" y="6" width="1" height="1" fill="#D9D9D9" />
<rect x="16" y="6" width="1" height="1" fill="#EEEEEE" />
<rect x="17" y="6" width="1" height="1" fill="#EEEEEE" />
<rect x="18" y="6" width="1" height="1" fill="#EEEEEE" />
<rect x="19" y="6" width="1" height="1" fill="#424242" />
<rect x="20" y="6" width="1" height="1" fill="#424242" />
<rect x="21" y="6" width="1" height="1" fill="#EEEEEE" />
<rect x="22" y="6" width="1" height="1" fill="#424242" />
<rect x="23" y="6" width="1" height="1" fill="#01579B" />
<rect x="24" y="6" width="1" height="1" fill="#01579B" />
<rect x="25" y="6" width="1" height="1" fill="#01579B" />
<rect x="26" y="6" width="1" height="1" fill="#014B85" />
<rect x="20" y="7" width="1" height="1" fill="#424242" />
<rect x="21" y="7" width="1" height="1" fill="#EEEEEE" />
<rect x="22" y="7" width="1" height="1" fill="#424242" />
<rect x="23" y="7" width="1" height="1" fill="#01579B" />
<rect x="24" y="7" width="1" height="1" fill="#01579B" />
<rect x="25" y="7" width="1" height="1" fill="#01579B" />
<rect x="26" y="7" width="1" height="1" fill="#01579B" />
<rect x="27" y="7" width="1" height="1" fill="#014B85" />
<rect x="5" y="8" width="1" height="1" fill="#014B85" />
<rect x="6" y="8" width="1" height="1" fill="#014B85" />
<rect x="7" y="8" width="1" height="1" fill="#014B85" />
<rect x="8" y="8" width="1" height="1" fill="#014B85" />
<rect x="9" y="8" width="1" height="1" fill="#014B85" />
<rect x="10" y="8" width="1" height="1" fill="#014B85" />
<rect x="11" y="8" width="1" height="1" fill="#014B85" />
<rect x="12" y="8" width="1" height="1" fill="#014B85" />
<rect x="13" y="8" width="1" height="1" fill="#014B85" />
<rect x="14" y="8" width="1" height="1" fill="#014B85" />
<rect x="15" y="8" width="1" height="1" fill="#014B85" />
<rect x="16" y="8" width="1" height="1" fill="#014B85" />
<rect x="17" y="8" width="1" height="1" fill="#014B85" />
<rect x="18" y="8" width="1" height="1" fill="#014B85" />
<rect x="21" y="8" width="1" height="1" fill="#EEEEEE" />
<rect x="22" y="8" width="1" height="1" fill="#424242" />
<rect x="23" y="8" width="1" height="1" fill="#01579B" />
<rect x="24" y="8" width="1" height="1" fill="#01579B" />
<rect x="25" y="8" width="1" height="1" fill="#0166B6" />
<rect x="26" y="8" width="1" height="1" fill="#01579B" />
<rect x="27" y="8" width="1" height="1" fill="#014B85" />
<rect x="4" y="9" width="1" height="1" fill="#014B85" />
<rect x="5" y="9" width="1" height="1" fill="#014F8D" />
<rect x="6" y="9" width="1" height="1" fill="#014F8D" />
<rect x="7" y="9" width="1" height="1" fill="#01579B" />
<rect x="8" y="9" width="1" height="1" fill="#424242" />
<rect x="9" y="9" width="1" height="1" fill="#D9D9D9" />
<rect x="10" y="9" width="1" height="1" fill="#EEEEEE" />
<rect x="11" y="9" width="1" height="1" fill="#EEEEEE" />
<rect x="12" y="9" width="1" height="1" fill="#EEEEEE" />
<rect x="13" y="9" width="1" height="1" fill="#EEEEEE" />
<rect x="14" y="9" width="1" height="1" fill="#424242" />
<rect x="15" y="9" width="1" height="1" fill="#424242" />
<rect x="16" y="9" width="1" height="1" fill="#EEEEEE" />
<rect x="17" y="9" width="1" height="1" fill="#424242" />
<rect x="18" y="9" width="1" height="1" fill="#01579B" />
<rect x="19" y="9" width="1" height="1" fill="#014B85" />
<rect x="22" y="9" width="1" height="1" fill="#01579B" />
<rect x="23" y="9" width="1" height="1" fill="#01579B" />
<rect x="24" y="9" width="1" height="1" fill="#01579B" />
<rect x="25" y="9" width="1" height="1" fill="#0166B6" />
<rect x="26" y="9" width="1" height="1" fill="#01579B" />
<rect x="27" y="9" width="1" height="1" fill="#014B85" />
<rect x="4" y="10" width="1" height="1" fill="#014B85" />
<rect x="5" y="10" width="1" height="1" fill="#014F8D" />
<rect x="6" y="10" width="1" height="1" fill="#014F8D" />
<rect x="7" y="10" width="1" height="1" fill="#01579B" />
<rect x="8" y="10" width="1" height="1" fill="#424242" />
<rect x="9" y="10" width="1" height="1" fill="#D9D9D9" />
<rect x="10" y="10" width="1" height="1" fill="#D9D9D9" />
<rect x="11" y="10" width="1" height="1" fill="#EEEEEE" />
<rect x="12" y="10" width="1" height="1" fill="#EEEEEE" />
<rect x="13" y="10" width="1" height="1" fill="#EEEEEE" />
<rect x="14" y="10" width="1" height="1" fill="#424242" />
<rect x="15" y="10" width="1" height="1" fill="#424242" />
<rect x="16" y="10" width="1" height="1" fill="#EEEEEE" />
<rect x="17" y="10" width="1" height="1" fill="#424242" />
<rect x="18" y="10" width="1" height="1" fill="#01579B" />
<rect x="19" y="10" width="1" height="1" fill="#01579B" />
<rect x="20" y="10" width="1" height="1" fill="#014B85" />
<rect x="23" y="10" width="1" height="1" fill="#01579B" />
<rect x="24" y="10" width="1" height="1" fill="#01579B" />
<rect x="25" y="10" width="1" height="1" fill="#0166B6" />
<rect x="26" y="10" width="1" height="1" fill="#01579B" />
<rect x="27" y="10" width="1" height="1" fill="#014B85" />
<rect x="4" y="11" width="1" height="1" fill="#014B85" />
<rect x="5" y="11" width="1" height="1" fill="#014F8D" />
<rect x="6" y="11" width="1" height="1" fill="#014F8D" />
<rect x="7" y="11" width="1" height="1" fill="#01579B" />
<rect x="8" y="11" width="1" height="1" fill="#424242" />
<rect x="9" y="11" width="1" height="1" fill="#D9D9D9" />
<rect x="10" y="11" width="1" height="1" fill="#D9D9D9" />
<rect x="11" y="11" width="1" height="1" fill="#EEEEEE" />
<rect x="12" y="11" width="1" height="1" fill="#EEEEEE" />
<rect x="13" y="11" width="1" height="1" fill="#EEEEEE" />
<rect x="14" y="11" width="1" height="1" fill="#424242" />
<rect x="15" y="11" width="1" height="1" fill="#424242" />
<rect x="16" y="11" width="1" height="1" fill="#EEEEEE" />
<rect x="17" y="11" width="1" height="1" fill="#424242" />
<rect x="18" y="11" width="1" height="1" fill="#01579B" />
<rect x="19" y="11" width="1" height="1" fill="#01579B" />
<rect x="20" y="11" width="1" height="1" fill="#01579B" />
<rect x="21" y="11" width="1" height="1" fill="#014B85" />
<rect x="24" y="11" width="1" height="1" fill="#01579B" />
<rect x="25" y="11" width="1" height="1" fill="#0166B6" />
<rect x="26" y="11" width="1" height="1" fill="#01579B" />
<rect x="27" y="11" width="1" height="1" fill="#014B85" />
<rect x="4" y="12" width="1" height="1" fill="#014B85" />
<rect x="5" y="12" width="1" height="1" fill="#014F8D" />
<rect x="6" y="12" width="1" height="1" fill="#014F8D" />
<rect x="7" y="12" width="1" height="1" fill="#01579B" />
<rect x="8" y="12" width="1" height="1" fill="#424242" />
<rect x="9" y="12" width="1" height="1" fill="#D9D9D9" />
<rect x="10" y="12" width="1" height="1" fill="#D9D9D9" />
<rect x="11" y="12" width="1" height="1" fill="#D9D9D9" />
<rect x="12" y="12" width="1" height="1" fill="#EEEEEE" />
<rect x="13" y="12" width="1" height="1" fill="#EEEEEE" />
<rect x="14" y="12" width="1" height="1" fill="#424242" />
<rect x="15" y="12" width="1" height="1" fill="#424242" />
<rect x="16" y="12" width="1" height="1" fill="#EEEEEE" />
<rect x="17" y="12" width="1" height="1" fill="#424242" />
<rect x="18" y="12" width="1" height="1" fill="#01579B" />
<rect x="19" y="12" width="1" height="1" fill="#01579B" />
<rect x="20" y="12" width="1" height="1" fill="#01579B" />
<rect x="21" y="12" width="1" height="1" fill="#01579B" />
<rect x="22" y="12" width="1" height="1" fill="#014B85" />
<rect x="24" y="12" width="1" height="1" fill="#01579B" />
<rect x="25" y="12" width="1" height="1" fill="#0166B6" />
<rect x="26" y="12" width="1" height="1" fill="#01579B" />
<rect x="27" y="12" width="1" height="1" fill="#014B85" />
<rect x="4" y="13" width="1" height="1" fill="#014B85" />
<rect x="5" y="13" width="1" height="1" fill="#014F8D" />
<rect x="6" y="13" width="1" height="1" fill="#014F8D" />
<rect x="7" y="13" width="1" height="1" fill="#01579B" />
<rect x="8" y="13" width="1" height="1" fill="#424242" />
<rect x="9" y="13" width="1" height="1" fill="#D9D9D9" />
<rect x="10" y="13" width="1" height="1" fill="#D9D9D9" />
<rect x="11" y="13" width="1" height="1" fill="#D9D9D9" />
<rect x="12" y="13" width="1" height="1" fill="#D9D9D9" />
<rect x="13" y="13" width="1" height="1" fill="#D9D9D9" />
<rect x="14" y="13" width="1" height="1" fill="#EEEEEE" />
<rect x="15" y="13" width="1" height="1" fill="#EEEEEE" />
<rect x="16" y="13" width="1" height="1" fill="#EEEEEE" />
<rect x="17" y="13" width="1" height="1" fill="#424242" />
<rect x="18" y="13" width="1" height="1" fill="#01579B" />
<rect x="19" y="13" width="1" height="1" fill="#01579B" />
<rect x="20" y="13" width="1" height="1" fill="#0166B6" />
<rect x="21" y="13" width="1" height="1" fill="#01579B" />
<rect x="22" y="13" width="1" height="1" fill="#014B85" />
<rect x="24" y="13" width="1" height="1" fill="#01579B" />
<rect x="25" y="13" width="1" height="1" fill="#0166B6" />
<rect x="26" y="13" width="1" height="1" fill="#01579B" />
<rect x="27" y="13" width="1" height="1" fill="#014B85" />
<rect x="4" y="14" width="1" height="1" fill="#014B85" />
<rect x="5" y="14" width="1" height="1" fill="#014F8D" />
<rect x="6" y="14" width="1" height="1" fill="#014F8D" />
<rect x="7" y="14" width="1" height="1" fill="#01579B" />
<rect x="8" y="14" width="1" height="1" fill="#01579B" />
<rect x="9" y="14" width="1" height="1" fill="#424242" />
<rect x="10" y="14" width="1" height="1" fill="#424242" />
<rect x="11" y="14" width="1" height="1" fill="#424242" />
<rect x="12" y="14" width="1" height="1" fill="#424242" />
<rect x="13" y="14" width="1" height="1" fill="#424242" />
<rect x="14" y="14" width="1" height="1" fill="#424242" />
<rect x="15" y="14" width="1" height="1" fill="#424242" />
<rect x="16" y="14" width="1" height="1" fill="#424242" />
<rect x="17" y="14" width="1" height="1" fill="#01579B" />
<rect x="18" y="14" width="1" height="1" fill="#01579B" />
<rect x="19" y="14" width="1" height="1" fill="#01579B" />
<rect x="20" y="14" width="1" height="1" fill="#0166B6" />
<rect x="21" y="14" width="1" height="1" fill="#01579B" />
<rect x="22" y="14" width="1" height="1" fill="#014B85" />
<rect x="24" y="14" width="1" height="1" fill="#01579B" />
<rect x="25" y="14" width="1" height="1" fill="#0166B6" />
<rect x="26" y="14" width="1" height="1" fill="#01579B" />
<rect x="27" y="14" width="1" height="1" fill="#014B85" />
<rect x="4" y="15" width="1" height="1" fill="#014B85" />
<rect x="5" y="15" width="1" height="1" fill="#014F8D" />
<rect x="6" y="15" width="1" height="1" fill="#014F8D" />
<rect x="7" y="15" width="1" height="1" fill="#01579B" />
<rect x="8" y="15" width="1" height="1" fill="#01579B" />
<rect x="9" y="15" width="1" height="1" fill="#01579B" />
<rect x="10" y="15" width="1" height="1" fill="#01579B" />
<rect x="11" y="15" width="1" height="1" fill="#01579B" />
<rect x="12" y="15" width="1" height="1" fill="#01579B" />
<rect x="13" y="15" width="1" height="1" fill="#01579B" />
<rect x="14" y="15" width="1" height="1" fill="#01579B" />
<rect x="15" y="15" width="1" height="1" fill="#01579B" />
<rect x="16" y="15" width="1" height="1" fill="#01579B" />
<rect x="17" y="15" width="1" height="1" fill="#01579B" />
<rect x="18" y="15" width="1" height="1" fill="#01579B" />
<rect x="19" y="15" width="1" height="1" fill="#01579B" />
<rect x="20" y="15" width="1" height="1" fill="#0166B6" />
<rect x="21" y="15" width="1" height="1" fill="#01579B" />
<rect x="22" y="15" width="1" height="1" fill="#014B85" />
<rect x="24" y="15" width="1" height="1" fill="#01579B" />
<rect x="25" y="15" width="1" height="1" fill="#0166B6" />
<rect x="26" y="15" width="1" height="1" fill="#01579B" />
<rect x="27" y="15" width="1" height="1" fill="#014B85" />
<rect x="4" y="16" width="1" height="1" fill="#014B85" />
<rect x="5" y="16" width="1" height="1" fill="#014F8D" />
<rect x="6" y="16" width="1" height="1" fill="#014F8D" />
<rect x="7" y="16" width="1" height="1" fill="#01579B" />
<rect x="8" y="16" width="1" height="1" fill="#01579B" />
<rect x="9" y="16" width="1" height="1" fill="#01579B" />
<rect x="10" y="16" width="1" height="1" fill="#01579B" />
<rect x="11" y="16" width="1" height="1" fill="#01579B" />
<rect x="12" y="16" width="1" height="1" fill="#01579B" />
<rect x="13" y="16" width="1" height="1" fill="#01579B" />
<rect x="14" y="16" width="1" height="1" fill="#01579B" />
<rect x="15" y="16" width="1" height="1" fill="#01579B" />
<rect x="16" y="16" width="1" height="1" fill="#01579B" />
<rect x="17" y="16" width="1" height="1" fill="#01579B" />
<rect x="18" y="16" width="1" height="1" fill="#01579B" />
<rect x="19" y="16" width="1" height="1" fill="#01579B" />
<rect x="20" y="16" width="1" height="1" fill="#0166B6" />
<rect x="21" y="16" width="1" height="1" fill="#01579B" />
<rect x="22" y="16" width="1" height="1" fill="#014B85" />
<rect x="24" y="16" width="1" height="1" fill="#01579B" />
<rect x="25" y="16" width="1" height="1" fill="#0166B6" />
<rect x="26" y="16" width="1" height="1" fill="#01579B" />
<rect x="27" y="16" width="1" height="1" fill="#014B85" />
<rect x="4" y="17" width="1" height="1" fill="#014B85" />
<rect x="5" y="17" width="1" height="1" fill="#014F8D" />
<rect x="6" y="17" width="1" height="1" fill="#014F8D" />
<rect x="7" y="17" width="1" height="1" fill="#01579B" />
<rect x="8" y="17" width="1" height="1" fill="#01579B" />
<rect x="9" y="17" width="1" height="1" fill="#01579B" />
<rect x="10" y="17" width="1" height="1" fill="#01579B" />
<rect x="11" y="17" width="1" height="1" fill="#01579B" />
<rect x="12" y="17" width="1" height="1" fill="#01579B" />
<rect x="13" y="17" width="1" height="1" fill="#01579B" />
<rect x="14" y="17" width="1" height="1" fill="#01579B" />
<rect x="15" y="17" width="1" height="1" fill="#01579B" />
<rect x="16" y="17" width="1" height="1" fill="#01579B" />
<rect x="17" y="17" width="1" height="1" fill="#01579B" />
<rect x="18" y="17" width="1" height="1" fill="#01579B" />
<rect x="19" y="17" width="1" height="1" fill="#01579B" />
<rect x="20" y="17" width="1" height="1" fill="#0166B6" />
<rect x="21" y="17" width="1" height="1" fill="#01579B" />
<rect x="22" y="17" width="1" height="1" fill="#014B85" />
<rect x="24" y="17" width="1" height="1" fill="#01579B" />
<rect x="25" y="17" width="1" height="1" fill="#0166B6" />
<rect x="26" y="17" width="1" height="1" fill="#01579B" />
<rect x="27" y="17" width="1" height="1" fill="#014B85" />
<rect x="4" y="18" width="1" height="1" fill="#014B85" />
<rect x="5" y="18" width="1" height="1" fill="#014F8D" />
<rect x="6" y="18" width="1" height="1" fill="#014F8D" />
<rect x="7" y="18" width="1" height="1" fill="#01579B" />
<rect x="8" y="18" width="1" height="1" fill="#01579B" />
<rect x="9" y="18" width="1" height="1" fill="#01579B" />
<rect x="10" y="18" width="1" height="1" fill="#01579B" />
<rect x="11" y="18" width="1" height="1" fill="#01579B" />
<rect x="12" y="18" width="1" height="1" fill="#01579B" />
<rect x="13" y="18" width="1" height="1" fill="#01579B" />
<rect x="14" y="18" width="1" height="1" fill="#01579B" />
<rect x="15" y="18" width="1" height="1" fill="#01579B" />
<rect x="16" y="18" width="1" height="1" fill="#01579B" />
<rect x="17" y="18" width="1" height="1" fill="#01579B" />
<rect x="18" y="18" width="1" height="1" fill="#01579B" />
<rect x="19" y="18" width="1" height="1" fill="#01579B" />
<rect x="20" y="18" width="1" height="1" fill="#0166B6" />
<rect x="21" y="18" width="1" height="1" fill="#01579B" />
<rect x="22" y="18" width="1" height="1" fill="#014B85" />
<rect x="24" y="18" width="1" height="1" fill="#01579B" />
<rect x="25" y="18" width="1" height="1" fill="#0166B6" />
<rect x="26" y="18" width="1" height="1" fill="#01579B" />
<rect x="27" y="18" width="1" height="1" fill="#014B85" />
<rect x="4" y="19" width="1" height="1" fill="#014B85" />
<rect x="5" y="19" width="1" height="1" fill="#014F8D" />
<rect x="6" y="19" width="1" height="1" fill="#014F8D" />
<rect x="7" y="19" width="1" height="1" fill="#01579B" />
<rect x="8" y="19" width="1" height="1" fill="#01579B" />
<rect x="9" y="19" width="1" height="1" fill="#01579B" />
<rect x="10" y="19" width="1" height="1" fill="#01579B" />
<rect x="11" y="19" width="1" height="1" fill="#01579B" />
<rect x="12" y="19" width="1" height="1" fill="#01579B" />
<rect x="13" y="19" width="1" height="1" fill="#01579B" />
<rect x="14" y="19" width="1" height="1" fill="#01579B" />
<rect x="15" y="19" width="1" height="1" fill="#01579B" />
<rect x="16" y="19" width="1" height="1" fill="#01579B" />
<rect x="17" y="19" width="1" height="1" fill="#01579B" />
<rect x="18" y="19" width="1" height="1" fill="#01579B" />
<rect x="19" y="19" width="1" height="1" fill="#01579B" />
<rect x="20" y="19" width="1" height="1" fill="#0166B6" />
<rect x="21" y="19" width="1" height="1" fill="#01579B" />
<rect x="22" y="19" width="1" height="1" fill="#014B85" />
<rect x="24" y="19" width="1" height="1" fill="#01579B" />
<rect x="25" y="19" width="1" height="1" fill="#0166B6" />
<rect x="26" y="19" width="1" height="1" fill="#01579B" />
<rect x="27" y="19" width="1" height="1" fill="#014B85" />
<rect x="4" y="20" width="1" height="1" fill="#014B85" />
<rect x="5" y="20" width="1" height="1" fill="#014F8D" />
<rect x="6" y="20" width="1" height="1" fill="#014F8D" />
<rect x="7" y="20" width="1" height="1" fill="#01579B" />
<rect x="8" y="20" width="1" height="1" fill="#01579B" />
<rect x="9" y="20" width="1" height="1" fill="#01579B" />
<rect x="10" y="20" width="1" height="1" fill="#01579B" />
<rect x="11" y="20" width="1" height="1" fill="#01579B" />
<rect x="12" y="20" width="1" height="1" fill="#01579B" />
<rect x="13" y="20" width="1" height="1" fill="#01579B" />
<rect x="14" y="20" width="1" height="1" fill="#01579B" />
<rect x="15" y="20" width="1" height="1" fill="#01579B" />
<rect x="16" y="20" width="1" height="1" fill="#01579B" />
<rect x="17" y="20" width="1" height="1" fill="#01579B" />
<rect x="18" y="20" width="1" height="1" fill="#01579B" />
<rect x="19" y="20" width="1" height="1" fill="#01579B" />
<rect x="20" y="20" width="1" height="1" fill="#0166B6" />
<rect x="21" y="20" width="1" height="1" fill="#01579B" />
<rect x="22" y="20" width="1" height="1" fill="#014B85" />
<rect x="24" y="20" width="1" height="1" fill="#01579B" />
<rect x="25" y="20" width="1" height="1" fill="#0166B6" />
<rect x="26" y="20" width="1" height="1" fill="#01579B" />
<rect x="27" y="20" width="1" height="1" fill="#014B85" />
<rect x="4" y="21" width="1" height="1" fill="#014B85" />
<rect x="5" y="21" width="1" height="1" fill="#014F8D" />
<rect x="6" y="21" width="1" height="1" fill="#014F8D" />
<rect x="7" y="21" width="1" height="1" fill="#01579B" />
<rect x="8" y="21" width="1" height="1" fill="#01579B" />
<rect x="9" y="21" width="1" height="1" fill="#424242" />
<rect x="10" y="21" width="1" height="1" fill="#424242" />
<rect x="11" y="21" width="1" height="1" fill="#424242" />
<rect x="12" y="21" width="1" height="1" fill="#424242" />
<rect x="13" y="21" width="1" height="1" fill="#424242" />
<rect x="14" y="21" width="1" height="1" fill="#424242" />
<rect x="15" y="21" width="1" height="1" fill="#424242" />
<rect x="16" y="21" width="1" height="1" fill="#424242" />
<rect x="17" y="21" width="1" height="1" fill="#01579B" />
<rect x="18" y="21" width="1" height="1" fill="#01579B" />
<rect x="19" y="21" width="1" height="1" fill="#01579B" />
<rect x="20" y="21" width="1" height="1" fill="#0166B6" />
<rect x="21" y="21" width="1" height="1" fill="#01579B" />
<rect x="22" y="21" width="1" height="1" fill="#014B85" />
<rect x="24" y="21" width="1" height="1" fill="#01579B" />
<rect x="25" y="21" width="1" height="1" fill="#01579B" />
<rect x="26" y="21" width="1" height="1" fill="#01579B" />
<rect x="27" y="21" width="1" height="1" fill="#014B85" />
<rect x="4" y="22" width="1" height="1" fill="#014B85" />
<rect x="5" y="22" width="1" height="1" fill="#014F8D" />
<rect x="6" y="22" width="1" height="1" fill="#014F8D" />
<rect x="7" y="22" width="1" height="1" fill="#01579B" />
<rect x="8" y="22" width="1" height="1" fill="#424242" />
<rect x="9" y="22" width="1" height="1" fill="#D9D9D9" />
<rect x="10" y="22" width="1" height="1" fill="#EEEEEE" />
<rect x="11" y="22" width="1" height="1" fill="#EEEEEE" />
<rect x="12" y="22" width="1" height="1" fill="#EEEEEE" />
<rect x="13" y="22" width="1" height="1" fill="#EEEEEE" />
<rect x="14" y="22" width="1" height="1" fill="#EEEEEE" />
<rect x="15" y="22" width="1" height="1" fill="#EEEEEE" />
<rect x="16" y="22" width="1" height="1" fill="#EEEEEE" />
<rect x="17" y="22" width="1" height="1" fill="#424242" />
<rect x="18" y="22" width="1" height="1" fill="#01579B" />
<rect x="19" y="22" width="1" height="1" fill="#01579B" />
<rect x="20" y="22" width="1" height="1" fill="#0166B6" />
<rect x="21" y="22" width="1" height="1" fill="#01579B" />
<rect x="22" y="22" width="1" height="1" fill="#014B85" />
<rect x="24" y="22" width="1" height="1" fill="#014B85" />
<rect x="25" y="22" width="1" height="1" fill="#014B85" />
<rect x="26" y="22" width="1" height="1" fill="#014B85" />
<rect x="4" y="23" width="1" height="1" fill="#014B85" />
<rect x="5" y="23" width="1" height="1" fill="#014F8D" />
<rect x="6" y="23" width="1" height="1" fill="#014F8D" />
<rect x="7" y="23" width="1" height="1" fill="#01579B" />
<rect x="8" y="23" width="1" height="1" fill="#424242" />
<rect x="9" y="23" width="1" height="1" fill="#D9D9D9" />
<rect x="10" y="23" width="1" height="1" fill="#424242" />
<rect x="11" y="23" width="1" height="1" fill="#424242" />
<rect x="12" y="23" width="1" height="1" fill="#424242" />
<rect x="13" y="23" width="1" height="1" fill="#424242" />
<rect x="14" y="23" width="1" height="1" fill="#424242" />
<rect x="15" y="23" width="1" height="1" fill="#424242" />
<rect x="16" y="23" width="1" height="1" fill="#EEEEEE" />
<rect x="17" y="23" width="1" height="1" fill="#424242" />
<rect x="18" y="23" width="1" height="1" fill="#01579B" />
<rect x="19" y="23" width="1" height="1" fill="#01579B" />
<rect x="20" y="23" width="1" height="1" fill="#0166B6" />
<rect x="21" y="23" width="1" height="1" fill="#01579B" />
<rect x="22" y="23" width="1" height="1" fill="#014B85" />
<rect x="4" y="24" width="1" height="1" fill="#014B85" />
<rect x="5" y="24" width="1" height="1" fill="#014F8D" />
<rect x="6" y="24" width="1" height="1" fill="#014F8D" />
<rect x="7" y="24" width="1" height="1" fill="#01579B" />
<rect x="8" y="24" width="1" height="1" fill="#424242" />
<rect x="9" y="24" width="1" height="1" fill="#D9D9D9" />
<rect x="10" y="24" width="1" height="1" fill="#D9D9D9" />
<rect x="11" y="24" width="1" height="1" fill="#EEEEEE" />
<rect x="12" y="24" width="1" height="1" fill="#EEEEEE" />
<rect x="13" y="24" width="1" height="1" fill="#EEEEEE" />
<rect x="14" y="24" width="1" height="1" fill="#EEEEEE" />
<rect x="15" y="24" width="1" height="1" fill="#EEEEEE" />
<rect x="16" y="24" width="1" height="1" fill="#EEEEEE" />
<rect x="17" y="24" width="1" height="1" fill="#424242" />
<rect x="18" y="24" width="1" height="1" fill="#01579B" />
<rect x="19" y="24" width="1" height="1" fill="#01579B" />
<rect x="20" y="24" width="1" height="1" fill="#0166B6" />
<rect x="21" y="24" width="1" height="1" fill="#01579B" />
<rect x="22" y="24" width="1" height="1" fill="#014B85" />
<rect x="4" y="25" width="1" height="1" fill="#014B85" />
<rect x="5" y="25" width="1" height="1" fill="#014F8D" />
<rect x="6" y="25" width="1" height="1" fill="#014F8D" />
<rect x="7" y="25" width="1" height="1" fill="#01579B" />
<rect x="8" y="25" width="1" height="1" fill="#424242" />
<rect x="9" y="25" width="1" height="1" fill="#D9D9D9" />
<rect x="10" y="25" width="1" height="1" fill="#424242" />
<rect x="11" y="25" width="1" height="1" fill="#424242" />
<rect x="12" y="25" width="1" height="1" fill="#424242" />
<rect x="13" y="25" width="1" height="1" fill="#424242" />
<rect x="14" y="25" width="1" height="1" fill="#424242" />
<rect x="15" y="25" width="1" height="1" fill="#424242" />
<rect x="16" y="25" width="1" height="1" fill="#EEEEEE" />
<rect x="17" y="25" width="1" height="1" fill="#424242" />
<rect x="18" y="25" width="1" height="1" fill="#01579B" />
<rect x="19" y="25" width="1" height="1" fill="#01579B" />
<rect x="20" y="25" width="1" height="1" fill="#0166B6" />
<rect x="21" y="25" width="1" height="1" fill="#01579B" />
<rect x="22" y="25" width="1" height="1" fill="#014B85" />
<rect x="4" y="26" width="1" height="1" fill="#014B85" />
<rect x="5" y="26" width="1" height="1" fill="#014F8D" />
<rect x="6" y="26" width="1" height="1" fill="#014F8D" />
<rect x="7" y="26" width="1" height="1" fill="#01579B" />
<rect x="8" y="26" width="1" height="1" fill="#424242" />
<rect x="9" y="26" width="1" height="1" fill="#D9D9D9" />
<rect x="10" y="26" width="1" height="1" fill="#D9D9D9" />
<rect x="11" y="26" width="1" height="1" fill="#D9D9D9" />
<rect x="12" y="26" width="1" height="1" fill="#D9D9D9" />
<rect x="13" y="26" width="1" height="1" fill="#D9D9D9" />
<rect x="14" y="26" width="1" height="1" fill="#D9D9D9" />
<rect x="15" y="26" width="1" height="1" fill="#EEEEEE" />
<rect x="16" y="26" width="1" height="1" fill="#EEEEEE" />
<rect x="17" y="26" width="1" height="1" fill="#424242" />
<rect x="18" y="26" width="1" height="1" fill="#01579B" />
<rect x="19" y="26" width="1" height="1" fill="#01579B" />
<rect x="20" y="26" width="1" height="1" fill="#01579B" />
<rect x="21" y="26" width="1" height="1" fill="#01579B" />
<rect x="22" y="26" width="1" height="1" fill="#014B85" />
<rect x="5" y="27" width="1" height="1" fill="#014B85" />
<rect x="6" y="27" width="1" height="1" fill="#014B85" />
<rect x="7" y="27" width="1" height="1" fill="#014B85" />
<rect x="8" y="27" width="1" height="1" fill="#014B85" />
<rect x="9" y="27" width="1" height="1" fill="#014B85" />
<rect x="10" y="27" width="1" height="1" fill="#014B85" />
<rect x="11" y="27" width="1" height="1" fill="#014B85" />
<rect x="12" y="27" width="1" height="1" fill="#014B85" />
<rect x="13" y="27" width="1" height="1" fill="#014B85" />
<rect x="14" y="27" width="1" height="1" fill="#014B85" />
<rect x="15" y="27" width="1" height="1" fill="#014B85" />
<rect x="16" y="27" width="1" height="1" fill="#014B85" />
<rect x="17" y="27" width="1" height="1" fill="#014B85" />
<rect x="18" y="27" width="1" height="1" fill="#014B85" />
<rect x="19" y="27" width="1" height="1" fill="#014B85" />
<rect x="20" y="27" width="1" height="1" fill="#014B85" />
<rect x="21" y="27" width="1" height="1" fill="#014B85" />
</svg>