<?xml version="1.0" encoding="utf-8"?>
<!-- Generator: Adobe Illustrator 26.0.0, SVG Export Plug-In . SVG Version: 6.00 Build 0)  -->
<svg version="1.1" id="图层_1" xmlns="http://www.w3.org/2000/svg" xmlns:xlink="http://www.w3.org/1999/xlink" x="0px" y="0px"
	 viewBox="0 0 128 128" style="enable-background:new 0 0 128 128;" xml:space="preserve">
<style type="text/css">
	.st0{fill:#1296DB;}
</style>
<path class="st0" d="M101.1,66.5c-0.2-1.9-1.7-3.5-3.6-3.6H30.7c-1.9,0.2-3.5,1.7-3.6,3.6v36.6c0.2,1.9,1.7,3.5,3.6,3.6h66.7
	c1.9-0.2,3.5-1.7,3.6-3.6L101.1,66.5z M34.3,47.5c0.2,1.9,1.7,3.5,3.6,3.6h48.5c1.9-0.2,3.5-1.7,3.6-3.6V21.9
	c-0.2-1.9-1.7-3.5-3.6-3.6H38c-1.9,0.2-3.5,1.7-3.6,3.6L34.3,47.5z M112,36.5v63.1c0.2,5.8-4.3,10.7-10.1,11c-0.3,0-0.5,0-0.8,0H27
	c-5.8,0.2-10.7-4.3-11-10.1c0-0.3,0-0.5,0-0.8V25.5c-0.2-5.8,4.3-10.7,10.1-11c0.3,0,0.5,0,0.8,0h63.1c2.8,0,4.6,1.8,13.7,11
	C110.2,32.8,112,33.8,112,36.5z M82.8,47.5h-11V21.9h11L82.8,47.5z"/>
</svg>
