<?xml version="1.0" standalone="no"?><!DOCTYPE svg PUBLIC "-//W3C//DTD SVG 1.1//EN" "http://www.w3.org/Graphics/SVG/1.1/DTD/svg11.dtd"><svg t="1705592566013" class="icon" viewBox="0 0 1024 1024" version="1.1" xmlns="http://www.w3.org/2000/svg" p-id="9211" xmlns:xlink="http://www.w3.org/1999/xlink" width="128" height="128"><path d="M680.330746 671.980092a31.99605 31.99605 0 0 0-29.116406-29.116405H117.200257a31.99605 31.99605 0 0 0-29.116406 29.116405v292.443902a31.99605 31.99605 0 0 0 29.116406 29.116406h533.694122a31.99605 31.99605 0 0 0 29.116406-29.116406zM146.316663 519.358932a31.99605 31.99605 0 0 0 29.116406 29.116406H563.225201a31.99605 31.99605 0 0 0 29.116406-29.116406v-204.774723a31.99605 31.99605 0 0 0-29.116406-29.116406H175.753029a31.99605 31.99605 0 0 0-29.116406 29.116406zM767.999924 431.689753v504.577716A84.469573 84.469573 0 0 1 680.330746 1023.936648H87.763891A84.469573 84.469573 0 0 1 0.094712 936.267469V343.700614A84.469573 84.469573 0 0 1 87.763891 256.031436h504.577716c22.077275 0 36.475498 14.718183 109.746453 87.669178 51.193681 58.552772 65.911864 65.911864 65.911864 87.989139z m-233.891129 87.669179h-87.989139v-204.774723h87.669178z" fill="#1296DB" p-id="9212"></path><path d="M702.08806 58.615805v190.05654l14.718183 14.718183h73.270956v-204.774723z m248.609312 29.116406C885.105469 14.781215 870.387285 0.063032 841.27088 0.063032H343.732294A84.469573 84.469573 0 0 0 256.063116 87.732211v102.387361h146.221951V58.615805a31.99605 31.99605 0 0 1 29.116406-29.116406H819.193605a31.99605 31.99605 0 0 1 29.116406 29.116406v204.774723a31.99605 31.99605 0 0 1-29.116406 29.116406h-73.270956c14.718183 14.718183 29.116406 29.116406 29.116406 36.475497a153.261082 153.261082 0 0 1 43.834589 58.552773h80.310087a31.99605 31.99605 0 0 1 28.796445 28.476485v292.443901a31.99605 31.99605 0 0 1-29.116406 29.116406h-72.311074V767.968244H927.980176a84.469573 84.469573 0 0 0 87.669179-87.669178V175.721349c8.318973-22.077275-6.39921-29.436366-64.951983-87.989138z m-159.980252-29.116406h-88.62906v190.05654l14.718183 14.718183h73.270956z m-87.669179 0v190.05654l14.718184 14.718183h73.270955v-204.774723z" fill="#1296DB" p-id="9213"></path></svg>