<?xml version="1.0" standalone="no"?><!DOCTYPE svg PUBLIC "-//W3C//DTD SVG 1.1//EN" "http://www.w3.org/Graphics/SVG/1.1/DTD/svg11.dtd"><svg t="1693112237198" class="icon" viewBox="0 0 1024 1024" version="1.1" xmlns="http://www.w3.org/2000/svg" p-id="4113" xmlns:xlink="http://www.w3.org/1999/xlink" width="256" height="256"><path d="M450.512 382.624L211.888 144H288a48 48 0 1 0 0-96H96a48 48 0 0 0-48 48v192a48 48 0 1 0 96 0v-76.112l238.624 238.624 0.048-0.048c8.64 8.352 20.368 13.536 33.328 13.536a48 48 0 0 0 48-48c0-12.96-5.184-24.688-13.552-33.328l0.064-0.048zM416 560c-12.96 0-24.688 5.2-33.312 13.568l-0.048-0.064L144 812.112V736a48 48 0 1 0-96 0v192a48 48 0 0 0 48 48h192a48 48 0 1 0 0-96h-76.112l238.624-238.624-0.048-0.048c8.352-8.64 13.536-20.352 13.536-33.328a48 48 0 0 0-48-48z m512 128a48 48 0 0 0-48 48v76.112L641.376 573.488l-0.048 0.048A47.84 47.84 0 0 0 608 560a48 48 0 0 0-48 48c0 12.976 5.184 24.688 13.568 33.328l-0.064 0.048L812.112 880H736a48 48 0 1 0 0 96h192a48 48 0 0 0 48-48V736a48 48 0 0 0-48-48z m0-640H736a48 48 0 1 0 0 96h76.112L573.488 382.624l0.048 0.048A47.872 47.872 0 0 0 560 416a48 48 0 0 0 48 48c12.976 0 24.688-5.2 33.328-13.552l0.048 0.048L880 211.888V288a48 48 0 1 0 96 0V96a48 48 0 0 0-48-48z" fill="" p-id="4114"></path></svg>