<?xml version="1.0" standalone="no"?><!DOCTYPE svg PUBLIC "-//W3C//DTD SVG 1.1//EN" "http://www.w3.org/Graphics/SVG/1.1/DTD/svg11.dtd"><svg t="1692635179370" class="icon" viewBox="0 0 1024 1024" version="1.1" xmlns="http://www.w3.org/2000/svg" p-id="2644" xmlns:xlink="http://www.w3.org/1999/xlink" width="64" height="64"><path d="M157.5788807570935 408.00539207458496L500.34105297923094 564.8663396835327c3.69340181350708 1.665651798248291 7.676482200622559 2.5346875190734863 11.659562587738039 2.5346875190734863 3.9830803871154785 0 7.966160774230957-0.8690357208251953 11.659562587738039-2.5346875190734863l342.68975257873535-156.86094760894775c10.138750076293945-4.634857177734375 16.43925905227661-14.483928680419922 16.36683940887451-25.63655376434326-0.07241964340209961-11.15262508392334-6.372928619384766-20.929276943206787-16.58409833908081-25.491714477539062L523.5153388679028 202.69570302963257a28.345048427581787 28.345048427581787 0 0 0-23.029446601867676 0L157.79613968729979 356.87712383270264C147.5849699676038 361.4395613670349 141.28446099162107 371.21621322631836 141.21204134821897 382.3688383102417c-0.07241964340209961 11.15262508392334 6.228089332580566 20.929276943206787 16.36683940887451 25.63655376434326z m708.6262106895447 205.2372694015503l-91.03149175643921-40.91709852218628c-9.12487506866455-4.127919673919678-19.842982292175293 0-23.97090196609497 9.052455425262451-4.127919673919678 9.12487506866455 0 19.842982292175293 9.052455425262451 23.97090196609497L834.9922251403333 638.8792152404785 512.0006155669689 786.7601270675659 189.00900599360472 638.8792152404785l74.5922327041626-33.60271453857422c9.12487506866455-4.127919673919678 13.180375099182129-14.84602689743042 9.052455425262451-23.97090196609497s-14.84602689743042-13.180375099182129-23.97090196609497-9.052455425262451L157.79613968729979 613.2426614761353C147.5849699676038 617.8050990104675 141.28446099162107 627.581750869751 141.21204134821897 638.7343759536743c-0.07241964340209961 11.15262508392334 6.228089332580566 21.001696586608887 16.36683940887451 25.63655376434326L500.34105297923094 821.2318773269653c3.69340181350708 1.665651798248291 7.676482200622559 2.5346875190734863 11.659562587738039 2.5346875190734863s7.966160774230957-0.8690357208251953 11.659562587738039-2.5346875190734863l342.68975257873535-156.86094760894775c10.138750076293945-4.634857177734375 16.43925905227661-14.483928680419922 16.36683940887451-25.63655376434326s-6.300508975982666-20.929276943206787-16.51167869567871-25.491714477539062z" p-id="2645"></path></svg>