<?xml version="1.0" standalone="no"?><!DOCTYPE svg PUBLIC "-//W3C//DTD SVG 1.1//EN" "http://www.w3.org/Graphics/SVG/1.1/DTD/svg11.dtd"><svg t="1683450357621" class="icon" viewBox="0 0 1102 1024" version="1.1" xmlns="http://www.w3.org/2000/svg" p-id="1356" xmlns:xlink="http://www.w3.org/1999/xlink" width="137.75" height="128"><path d="M888.884513 171.979487l1.024 6.406564 15.596308 108.806564 3.203282 0.183795a196.923077 196.923077 0 0 1 185.842871 199.916308l-0.210051 6.459077-15.937641 320.905846a196.923077 196.923077 0 0 1-206.454154 186.919385l-498.162872-32.295385a196.923077 196.923077 0 0 1-184.162461-193.929846 196.949333 196.949333 0 0 1-134.852923-151.788308l-1.155282-6.931692-47.156513-313.501539a196.923077 196.923077 0 0 1 159.166359-222.995692l6.301538-1.050256L668.278154 11.237744a196.923077 196.923077 0 0 1 220.553846 160.768zM511.684923 613.139692l-3.465846 2.940718-226.67159 210.996513a118.101333 118.101333 0 0 0 97.332513 63.645539l495.195897 32.111589 7.351795 0.262564a118.180103 118.180103 0 0 0 103.581539-60.757333l-162.264616-151.289436a42.089026 42.089026 0 0 0-51.331282-4.726154l-3.36082 2.363077-26.098872 20.48a52.512821 52.512821 0 0 1-69.526974-4.201025l-2.993231-3.255795-85.333333-101.060923-1.654154-1.890462a52.512821 52.512821 0 0 0-70.761026-5.618872z m-106.574769-275.114666a118.153846 118.153846 0 0 0-123.090051 112.981333l-13.548308 316.468513 203.986051-189.833846a105.025641 105.025641 0 0 1 148.427487 5.330051l3.360821 3.807179 85.333333 101.034667 26.072616-20.453744a94.601846 94.601846 0 0 1 118.731487 1.601642l4.174769 3.675897 141.495795 131.938461 15.596308-314.683076a118.153846 118.153846 0 0 0-105.83959-123.405129l-5.513846-0.420102z m279.368205-249.357129l-5.513846 0.630154L183.611077 157.013333a118.153846 118.153846 0 0 0-99.958154 128.866462l0.708923 5.513846L131.492103 604.947692a117.996308 117.996308 0 0 0 61.387487 86.75118l10.450051-244.053334a196.923077 196.923077 0 0 1 205.141333-188.33723l416.794257 23.420718-13.338257-93.131488a118.153846 118.153846 0 0 0-127.448615-100.929641z m168.854974 310.875898a91.897436 91.897436 0 1 1 0 183.794872 91.897436 91.897436 0 0 1 0-183.794872z m0 52.51282a39.384615 39.384615 0 1 0 0 78.769231 39.384615 39.384615 0 0 0 0-78.769231z" fill="#7112e8" p-id="1357"></path></svg>