<?xml version="1.0" standalone="no"?><!DOCTYPE svg PUBLIC "-//W3C//DTD SVG 1.1//EN" "http://www.w3.org/Graphics/SVG/1.1/DTD/svg11.dtd"><svg t="1690039159083" class="icon" viewBox="0 0 1024 1024" version="1.1" xmlns="http://www.w3.org/2000/svg" p-id="21759" xmlns:xlink="http://www.w3.org/1999/xlink" width="64" height="64"><path d="M260.096 512c47.104 0 84.992-38.912 84.992-84.992s-38.912-84.992-84.992-84.992-84.992 38.912-84.992 84.992C179.2 474.112 217.088 512 260.096 512zM260.096 388.096c21.504 0 43.008 17.408 43.008 43.008 0 21.504-17.408 43.008-43.008 43.008-21.504 0-43.008-17.408-43.008-43.008C222.208 405.504 238.592 388.096 260.096 388.096zM677.888 815.104 677.888 815.104 677.888 815.104 555.008 606.208l0 0c-4.096-8.192-8.192-13.312-21.504-13.312-4.096 0-13.312 4.096-13.312 4.096l-64.512 64.512-72.704-94.208c0-8.192-8.192-13.312-17.408-13.312-8.192 0-13.312 4.096-17.408 8.192l0 0L183.296 811.008l0 0c-4.096 4.096-4.096 8.192-4.096 13.312 0 12.288 8.192 21.504 21.504 21.504l456.704 0c13.312 0 21.504-8.192 21.504-21.504C677.888 823.296 677.888 819.2 677.888 815.104L677.888 815.104zM238.592 801.792l128-192.512 64.512 94.208c4.096 8.192 8.192 12.288 17.408 12.288 4.096 0 13.312-4.096 13.312-4.096l64.512-64.512 94.208 153.6L238.592 800.768zM887.808 55.296 303.104 55.296c-47.104 0-84.992 37.888-84.992 84.992l0 21.504c0 13.312 8.192 21.504 21.504 21.504s21.504-13.312 21.504-25.6l0-21.504c0-21.504 17.408-43.008 43.008-43.008l584.704 0c21.504 0 43.008 17.408 43.008 43.008l0 584.704c0 21.504-17.408 43.008-43.008 43.008l-21.504 0c-13.312 0-21.504 8.192-21.504 21.504 0 12.288 8.192 21.504 21.504 21.504l21.504 0c47.104 0 84.992-37.888 84.992-84.992L973.824 136.192C968.704 89.088 933.888 55.296 887.808 55.296zM720.896 222.208 136.192 222.208C89.088 222.208 51.2 260.096 51.2 307.2l0 584.704c0 47.104 37.888 84.992 84.992 84.992l584.704 0c47.104 0 84.992-38.912 84.992-84.992L805.888 303.104C801.792 256 768 222.208 720.896 222.208zM763.904 887.808c0 21.504-17.408 43.008-43.008 43.008L136.192 930.816c-21.504 0-43.008-17.408-43.008-43.008L93.184 303.104c0-21.504 17.408-43.008 43.008-43.008l584.704 0c21.504 0 43.008 17.408 43.008 43.008L763.904 887.808z" fill="#11db85" p-id="21760"></path></svg>