<?xml version="1.0" standalone="no"?><!DOCTYPE svg PUBLIC "-//W3C//DTD SVG 1.1//EN" "http://www.w3.org/Graphics/SVG/1.1/DTD/svg11.dtd"><svg t="1692635172696" class="icon" viewBox="0 0 1438 1024" version="1.1" xmlns="http://www.w3.org/2000/svg" p-id="2489" xmlns:xlink="http://www.w3.org/1999/xlink" width="89.875" height="64"><path d="M935.3610026041667 548.3867187500001l-102.83203125000001-17.797851562499996 118.25683593749999-112.32421875a30.612459182739258 30.612459182739258 0 0 0 8.226871490478516-30.849609374999993 30.216951370239258 30.216951370239258 0 0 0-23.730468749999996-21.199064254760742l-102.83203125000001-17.639493942260746 118.33562850952148-112.32421875a30.612459182739258 30.612459182739258 0 0 0 8.226871490478516-30.92917442321778 30.216951370239258 30.216951370239258 0 0 0-23.730468749999996-21.199064254760742L550.5319010416667 117.6787109375a29.82144355773925 29.82144355773925 0 0 0-23.3349609375 5.932617187499999L194.57486979166669 382.2734375000001a30.612459182739258 30.612459182739258 0 0 0 10.757503509521486 53.47234725952148l115.72620391845705 30.29651641845703L194.57486979166669 564.4434089660645a30.53289413452149 30.53289413452149 0 0 0 10.757503509521486 53.47311973571778L321.13736979166663 648.2918376922607 194.57486979166669 746.6944904327393a30.53289413452149 30.53289413452149 0 0 0 10.757503509521486 53.393554687500014l314.66663360595703 82.50277519226076 88.90969276428221 23.3349609375a29.82144355773925 29.82144355773925 0 0 0 28.002262115478516-7.1979331970214835l314.033203125-298.212890625a30.849609374999993 30.849609374999993 0 0 0 8.147306442260744-30.92917442321778 30.058593749999993 30.058593749999993 0 0 0-23.730468749999996-21.199064254760742zM553.3004557291667 179.7734375l312.45117187500006 53.7890625-257.9498863220214 244.97769355773926-328.113899230957-86.06234550476074L553.3792483011882 179.69464492797846zM394.5434652964274 485.3426189422607l214.20764923095703 56.162109375a29.82144355773925 29.82144355773925 0 0 0 28.00148963928223-7.1979331970214835L777.5533854166667 400.6243820190429l88.2770347595215 15.186882019042969L607.8805338541667 660.7117099761963 279.7674070994059 574.6485919952391l114.77605819702147-89.30597305297852z" p-id="2490"></path><path d="M1155.6588541666667 636.6637535095215a342.8264808654786 342.8264808654786 0 0 0-187.47070312499997-295.048828125c54.26336288452147 80.05170822143553 88.83090019226076 175.05237579345703 88.83090019226076 280.01953124999994v15.029296874999996h-98.71859550476074l147.99871444702148 199.96936798095703 148.07827949523926-199.96936798095703H1155.6588541666667z" p-id="2491"></path></svg>