<?xml version="1.0" standalone="no"?><!DOCTYPE svg PUBLIC "-//W3C//DTD SVG 1.1//EN" "http://www.w3.org/Graphics/SVG/1.1/DTD/svg11.dtd"><svg t="1692635168103" class="icon" viewBox="0 0 1434 1024" version="1.1" xmlns="http://www.w3.org/2000/svg" p-id="2334" xmlns:xlink="http://www.w3.org/1999/xlink" width="89.625" height="64"><path d="M972.2255846659343 569.5857830047607a31.086759567260742 31.086759567260742 0 0 0-24.758634567260742-21.277856826782227l-107.73648262023924-17.719058990478516 123.87273788452146-112.40301132202146c8.701171874999998-7.91015625 12.023591995239258-19.854955673217773 8.622379302978517-30.849609374999993a31.00719451904297 31.00719451904297 0 0 0-24.758634567260742-21.278629302978516l-107.81527519226076-17.719058990478516 123.95153045654297-112.40301132202146c8.701171874999998-7.91015625 12.023591995239258-19.933748245239258 8.622379302978517-30.928401947021484a31.086759567260742 31.086759567260742 0 0 0-24.83819961547852-21.278629302978516L544.5240542093914 117.36199569702143a32.27405548095703 32.27405548095703 0 0 0-24.363126754760746 5.853824615478516L171.7965647379558 382.11507987976074a29.741878509521488 29.741878509521488 0 0 0-11.627311706542969 30.138158798217773c2.3730468749999996 11.390161514282225 11.311368942260742 20.486841201782227 22.939453125 23.3349609375l121.18297576904297 30.37453651428222L171.7965647379558 564.4441814422607a29.741878509521488 29.741878509521488 0 0 0-11.627311706542969 30.138158798217773c2.3730468749999996 11.390161514282225 11.231803894042969 20.408048629760746 22.939453125 23.3349609375l121.10418319702148 30.37453651428222L171.7965647379558 746.7732830047607a29.741878509521488 29.741878509521488 0 0 0-11.627311706542969 30.058593749999993 30.849609374999993 30.849609374999993 0 0 0 22.939453125 23.413753509521484l422.40234374999994 105.75971603393555a31.798982620239258 31.798982620239258 0 0 0 29.267578124999996-7.277498245239258l328.8245773315429-298.212890625c8.701171874999998-7.91015625 12.023591995239258-19.854955673217773 8.622379302978517-30.849609374999993zM381.3369127909342 485.2645988464355l224.17413711547852 56.24090194702148a32.0361328125 32.0361328125 0 0 0 29.267578124999996-7.276725769042969L782.2227045694988 400.54481697082514l92.31167793273927 15.187654495239258-270.0530433654785 244.97769355773926-343.45836639404297-86.06234550476074 120.23437499999997-89.384765625z m223.22476387023926 357.77621269226074L261.0237452189127 756.9776935577393 381.2581202189127 667.592155456543l224.3317222595215 56.162109375a31.798982620239258 31.798982620239258 0 0 0 29.267578124999996-7.277498245239258l147.3660564422607-133.68164062500003 92.39047050476074 15.186882019042969-270.0522708892822 245.05725860595703z" p-id="2335"></path><path d="M1110.890469233195 341.5361328125L955.8521792093912 541.6630859375h103.38589668273924v15.029296874999996c0 105.12628555297853-36.22913360595703 200.126953125-93.02312850952147 280.17711639404297 113.66832733154295-55.054378509521484 191.10906600952146-165.08434295654294 196.25066757202148-295.1276206970215h103.38589668273924L1110.810904184977 341.61492538452154z" p-id="2336"></path></svg>