<?xml version="1.0" standalone="no"?><!DOCTYPE svg PUBLIC "-//W3C//DTD SVG 1.1//EN" "http://www.w3.org/Graphics/SVG/1.1/DTD/svg11.dtd"><svg t="1687357407100" class="icon" viewBox="0 0 1024 1024" version="1.1" xmlns="http://www.w3.org/2000/svg" p-id="6346" xmlns:xlink="http://www.w3.org/1999/xlink" width="64" height="64"><path d="M512 85.333333C276.352 85.333333 85.333333 276.352 85.333333 512s191.018667 426.666667 426.666667 426.666667 426.666667-191.018667 426.666667-426.666667S747.648 85.333333 512 85.333333z m205.312 581.546667a36.010667 36.010667 0 0 1-51.029333 50.816L512 562.986667l-154.282667 154.709333a35.84 35.84 0 0 1-50.901333 0.085333 36.010667 36.010667 0 0 1-0.128-50.901333L461.226667 512 306.773333 357.12a36.010667 36.010667 0 0 1 50.986667-50.816L512 461.013333l154.282667-154.794666a36.010667 36.010667 0 0 1 51.029333 50.773333L562.773333 512l154.453334 154.88z" fill="#595959" p-id="6347"></path></svg>