<?xml version="1.0" standalone="no"?><!DOCTYPE svg PUBLIC "-//W3C//DTD SVG 1.1//EN" "http://www.w3.org/Graphics/SVG/1.1/DTD/svg11.dtd"><svg t="1704124549764" class="icon" viewBox="0 0 1024 1024" version="1.1" xmlns="http://www.w3.org/2000/svg" p-id="135532" xmlns:xlink="http://www.w3.org/1999/xlink" width="48" height="48"><path d="M853.71 869.56h-679.3a35.75 35.75 0 0 1 0-71.51h679.3a35.75 35.75 0 0 1 0 71.51z" fill="#5E9EFC" p-id="135533"></path><path d="M769.09 219.17l-90.59-90.59a64.06 64.06 0 0 0-90.59 0L204.39 512.1a64.06 64.06 0 0 0-17 30.46l-28.31 118.9c-9.84 41.32 22.16 78.95 62 78.95a65.17 65.17 0 0 0 15.11-1.79l118.9-28.31a64.06 64.06 0 0 0 30.46-17l383.54-383.55a64.06 64.06 0 0 0 0-90.59zM327.44 625l-71.9 17.12 17.12-71.9 267.16-267.15 54.78 54.78zM657.8 294.65L603 239.87l30.19-30.19L688 264.47z" fill="#4D4D4D" p-id="135534"></path></svg>