<?xml version="1.0" standalone="no"?><!DOCTYPE svg PUBLIC "-//W3C//DTD SVG 1.1//EN" "http://www.w3.org/Graphics/SVG/1.1/DTD/svg11.dtd"><svg t="1686585258043" class="icon" viewBox="0 0 1024 1024" version="1.1" xmlns="http://www.w3.org/2000/svg" p-id="19607" xmlns:xlink="http://www.w3.org/1999/xlink" width="64" height="64"><path d="M716.78 609.59L604.8 525.61c-16.97-12.72-40.62-12.72-57.59 0l-98.58 73.92L317.2 494.39c-16.48-13.19-39.28-14.19-56.81-2.39L128 581.02V224h704v352c0 17.67 14.33 32 32 32s32-14.33 32-32V221.31c0-33.81-27.5-61.31-61.31-61.31H125.31C91.5 160 64 187.5 64 221.31v581.38C64 836.5 91.5 864 125.31 864H608c17.67 0 32-14.33 32-32s-14.33-32-32-32H128V658.16l158.36-106.48 161.02 128.8L576 584l102.38 76.78c14.19 10.67 34.23 7.73 44.8-6.39 10.6-14.14 7.74-34.2-6.4-44.8z" fill="#2c2c2c" p-id="19608"></path><path d="M576 384c0 52.94 43.06 96 96 96s96-43.06 96-96-43.06-96-96-96-96 43.06-96 96z m128 0c0 17.64-14.36 32-32 32s-32-14.36-32-32 14.36-32 32-32 32 14.36 32 32zM928 768h-64v-64c0-17.67-14.33-32-32-32s-32 14.33-32 32v64h-64c-17.67 0-32 14.33-32 32s14.33 32 32 32h64v64c0 17.67 14.33 32 32 32s32-14.33 32-32v-64h64c17.67 0 32-14.33 32-32s-14.33-32-32-32z" fill="#2c2c2c" p-id="19609"></path></svg>