<?xml version="1.0" standalone="no"?><!DOCTYPE svg PUBLIC "-//W3C//DTD SVG 1.1//EN" "http://www.w3.org/Graphics/SVG/1.1/DTD/svg11.dtd"><svg t="1704373010570" class="icon" viewBox="0 0 1024 1024" version="1.1" xmlns="http://www.w3.org/2000/svg" p-id="4168" data-spm-anchor-id="a313x.collections_detail.0.i2.61da3a814sPHJr" xmlns:xlink="http://www.w3.org/1999/xlink" width="48" height="48"><path d="M900.6 212.9v-65.7C900.6 66.1 834.4 0 753 0H608.6v63.8H753c46.1 0 83.6 37.4 83.6 83.4v65.7H713.1L868.6 368 1024 212.9H900.6z" fill="#497CAD" p-id="4169"></path><path d="M694.2 376.5L424 556.1 153.8 376.5 424 196.8z" fill="#BDCDE8" p-id="4170" data-spm-anchor-id="a313x.collections_detail.0.i1.61da3a814sPHJr" class="selected"></path><path d="M752 338.1L424 120 96 338l-32 21.3v361.3l328 218 32 21.3 32-21.3 328-218V359.4l-32-21.3zM424 196.8l270.2 179.6L424 556.1 153.8 376.5 424 196.8z m-32 665.1L128.1 686.4V436.2L392 611.6v250.3z m327.9-175.5L456 861.9V611.6l263.9-175.4v250.2z" fill="#727272" p-id="4171"></path></svg>