<?xml version="1.0" standalone="no"?><!DOCTYPE svg PUBLIC "-//W3C//DTD SVG 1.1//EN" "http://www.w3.org/Graphics/SVG/1.1/DTD/svg11.dtd"><svg t="1704121280744" class="icon" viewBox="0 0 1024 1024" version="1.1" xmlns="http://www.w3.org/2000/svg" p-id="31816" xmlns:xlink="http://www.w3.org/1999/xlink" width="48" height="48"><path d="M310 329.2l299.5 207.2c5.5 3.8 11.8 5.7 18.2 5.7 6.4 0 12.7-1.9 18.2-5.7L946.2 329c8.7-6 13.8-15.8 13.8-26.3s-5.2-20.4-13.8-26.3L646.7 69.7c-10.9-7.5-25.4-7.5-36.3 0L310.1 276.5c-8.7 6-13.8 15.8-13.8 26.3-0.1 10.6 5.1 20.5 13.7 26.4z m599.6 301.1L627.5 825.2l-38.8-26.8-46 46 66.5 46c5.5 3.8 11.8 5.7 18.2 5.7 6.4 0 12.7-1.9 18.2-5.7L946 683c14.5-10 18.2-30 8.1-44.5-10-14.6-29.9-18.2-44.5-8.2z m0.1-181.3L627.6 643.9 346.3 449.2c-14.5-10.1-34.5-6.4-44.5 8.1s-6.4 34.5 8.1 44.5L609.4 709c5.5 3.8 11.8 5.7 18.2 5.7 6.4 0 12.7-1.9 18.2-5.7l300.3-207.5c14.5-10 18.2-30 8.1-44.5-10-14.4-29.9-18.1-44.5-8z" fill="#E6C27C" p-id="31817"></path><path d="M336.9 633.9H198.7l98.8 98.9-233.4-0.1-0.1 128.2 233.4 0.2-98.9 98.8 138.3 0.1 162.8-162.9z" fill="#497CAD" p-id="31818"></path></svg>