<?xml version="1.0" standalone="no"?><!DOCTYPE svg PUBLIC "-//W3C//DTD SVG 1.1//EN" "http://www.w3.org/Graphics/SVG/1.1/DTD/svg11.dtd"><svg t="1683451996312" class="icon" viewBox="0 0 1024 1024" version="1.1" xmlns="http://www.w3.org/2000/svg" p-id="2259" xmlns:xlink="http://www.w3.org/1999/xlink" width="128" height="128"><path d="M802.72 821.44H216.08c-7.52 0-14.64-3.6-19.2-9.6s-5.92-13.84-3.84-21.12L294.4 444.4a24 24 0 0 1 23.04-17.28H904c7.52 0 14.64 3.6 19.2 9.6 4.56 6.08 5.92 13.84 3.84 21.12l-101.28 346.32a24.072 24.072 0 0 1-23.04 17.28z m-554.56-48h536.56L872 475.12H335.44L248.16 773.44z" fill="#2A2C2C" p-id="2260"></path><path d="M802.72 821.44H216c-13.28 0-24-10.72-24-24V226.56c0-13.28 10.72-24 24-24h247.04c6.88 0 13.44 2.96 18 8.08L564.8 305.2h237.92c13.28 0 24 10.72 24 24v116.16c0 13.28-10.72 24-24 24s-24-10.72-24-24V353.2H554c-6.88 0-13.44-2.96-18-8.08L452.24 250.56H240v522.88h562.72c13.28 0 24 10.72 24 24s-10.8 24-24 24z" fill="#2A2C2C" p-id="2261"></path></svg>