<?xml version="1.0" standalone="no"?><!DOCTYPE svg PUBLIC "-//W3C//DTD SVG 1.1//EN" "http://www.w3.org/Graphics/SVG/1.1/DTD/svg11.dtd"><svg t="1693070523322" class="icon" viewBox="0 0 1024 1024" version="1.1" xmlns="http://www.w3.org/2000/svg" p-id="6462" xmlns:xlink="http://www.w3.org/1999/xlink" width="64" height="64"><path d="M413.866667 259.413333l301.226666 229.12a32 32 0 0 1 0 46.933334L413.866667 764.586667c-13.226667 9.813333-29.866667-2.986667-29.866667-23.466667V282.88c0-20.48 16.64-33.706667 29.866667-23.466667zM512 42.666667A469.333333 469.333333 0 0 0 42.666667 512 469.333333 469.333333 0 1 0 512 42.666667z m0 878.506666A409.173333 409.173333 0 0 1 102.826667 512a409.173333 409.173333 0 0 1 818.346666 0A409.173333 409.173333 0 0 1 512 921.173333z" fill="#666666" p-id="6463"></path></svg>