<?xml version="1.0" standalone="no"?><!DOCTYPE svg PUBLIC "-//W3C//DTD SVG 1.1//EN" "http://www.w3.org/Graphics/SVG/1.1/DTD/svg11.dtd"><svg t="1688918082810" class="icon" viewBox="0 0 1024 1024" version="1.1" xmlns="http://www.w3.org/2000/svg" p-id="4706" xmlns:xlink="http://www.w3.org/1999/xlink" width="64" height="64"><path d="M135.7 535.7c3.7 12.9 12.7 23.9 24.7 29.9 6.8 3.4 14.3 5.2 21.8 5.2 5.7 0 11.5-1 17-3.1L399 492.8c18.9-7.1 31.2-24.6 31.4-44.8 0.2-20.1-11.7-38-30.4-45.5l-31.8-12.7c30.4-45.7 65.2-80.1 105.5-104.5 72.1-43.7 161.8-53.8 266.7-30.1l120.1 27.1-91.6-82.2c-2.7-2.4-66.3-58.4-172.9-68.5-61.9-5.8-125.6 4.9-189.5 31.9-72.6 30.7-145.6 82.7-217.1 154.6l-39-15.6c-17.3-6.9-36.6-3.5-50.4 9C86 324.2 80.6 343 85.8 360.9L135.7 535.7zM205.4 393.7l14.9-15.7c69.4-72.8 139.5-124.7 208.3-154.3 26.1-11.2 52-19.3 77.6-24.1-23 8-45 18.4-65.8 31-58.7 35.6-106.9 87.6-147.3 159.1l-18 31.9 63.6 25.4-146.2 54.8L156 374 205.4 393.7z" p-id="4707"></path><path d="M951.8 788.8l-273-409.5c-11.9-17.9-33.7-25.7-54.3-19.5-20.6 6.2-34.4 24.8-34.4 46.3l0 409.5c0 26.7 21.7 48.4 48.4 48.4l273 0c17.9 0 34.2-9.8 42.7-25.6S961.8 803.7 951.8 788.8zM654.2 800 654.2 457.7 882.4 800 654.2 800z" p-id="4708"></path><path d="M532.6 500c-15.8-8.4-34.8-7.5-49.7 2.4l-409.5 273c-17.9 11.9-25.7 33.7-19.5 54.3 6.2 20.6 24.8 34.4 46.3 34.4l409.5 0c26.7 0 48.4-21.7 48.4-48.4l0-273C558.2 524.8 548.4 508.4 532.6 500zM494.2 800 151.9 800l342.3-228.2L494.2 800z" p-id="4709"></path></svg>